{
.appVersion = "3151";
.formatVersion = 3;
DisplayStrings = (
"rðdysa",
",‚„“”‘’",
"/bullet.case/bullet.case/bullet.case",
"a/a.ss01/a.ss02/a.ss03 æbcdðe/e.ss03 əf/f.ss01 g/g.ss01/g.ss03 h/h.ss01/h.ss03 i/i.ss01 ı/idotless.ss01/idotless.wide j/j.ss01/j.ss02 ȷ/jdotless.ss01/jdotless.ss02 k/k.ss01 ĸl/l.ss01/l.ss03 m/m.ss01/m.ss03 n/n.ss01/n.ss03 ŋ/eng.ss01/eng.ss03 oơœp/p.ss02 þq/q.ss02 r/r.ss01/r.ss02 sßt/t.ss01 u/u.ss01/u.ss03 ư/uhorn.ss01/uhorn.ss03 vwxy/y.ss01/y.ss02/y.ss03 z",
"New research shows how nearly 6,000 sales professionals are selling in a global crisis. Nevada's highest recorded temperature is 125 °F (52 °C) at Laughlin on June 29, 1994, and the lowest recorded temperature is −50 °F (−46 °C) at San Jacinto on January 8, 1937. The unexpected NFT gold rush. Jun 08, 2021 | ISBN 9780593188132. We offer client and server libraries in everything from React and PHP to .NET and iOS. ",
"€₦",
"æ",
"®ơ"
);
axes = (
{
name = Weight;
tag = wght;
}
);
classes = (
{
automatic = 1;

glyphs = (
{
glyphname = A;
lastChange = "2023-01-30 07:37:07 +0000";
layers = (
{
anchors = (
{
name = bottom;
pos = (326,0);
},
{
name = ogonek;
pos = (599,0);
},
{
name = top;
pos = (326,745);
}
);
layerId = "30C2FD74-1A74-41AC-9C29-B288AE1DBDD7";
shapes = (
{
closed = 1;
nodes = (
(95,0,l),
(160,182,l),
(493,182,l),
(557,0,l),
(641,0,l),
(369,745,l),
(283,745,l),
(11,0,l)
);
},
{
closed = 1;
nodes = (
(338,685,l),
(314,685,l),
(465,257,l),
(186,257,l)
);
}
);
width = 652;
},
{
anchors = (
{
name = bottom;
pos = (366,0);
},
{
name = ogonek;
pos = (637,0);
},
{
name = top;
pos = (366,745);
}
);
layerId = "9398AC28-6BE1-4A79-9C94-3CBC2F226CE7";
shapes = (
{
closed = 1;
nodes = (
(179,0,l),
(229,152,l),
(502,152,l),
(552,0,l),
(721,0,l),
(469,745,l),
(263,745,l),
(11,0,l)
);
},
{
closed = 1;
nodes = (
(387,639,l),
(345,639,l),
(459,287,l),
(272,287,l)
);
}
);
width = 732;
},
{
anchors = (
{
name = bottom;
pos = (322,0);
},
{
name = ogonek;
pos = (595,0);
},
{
name = top;
pos = (322,745);
}
);
layerId = "C1DB0BE6-5704-4A8C-8C00-D80E72C16D98";
shapes = (
{
closed = 1;
nodes = (
(77,0,l),
(149,197,l),
(495,197,l),
(567,0,l),
(622,0,l),
(346,745,l),
(298,745,l),
(22,0,l)
);
},
{
closed = 1;
nodes = (
(334,704,l),
(310,704,l),
(479,242,l),
(165,242,l)
);
}
);
width = 644;
}
);
unicode = 65;
},
{
glyphname = AE;
lastChange = "2023-01-30 07:37:07 +0000";
layers = (
{
anchors = (
{
name = bottom;
pos = (493,0);
},
{
name = top;
pos = (493,745);
}
);
layerId = "30C2FD74-1A74-41AC-9C29-B288AE1DBDD7";
shapes = (
{
closed = 1;
nodes = (
(95,0,l),
(160,182,l),
(461,182,l),
(461,0,l),
(941,0,l),
(941,75,l),
(541,75,l),
(541,336,l),
(921,336,l),
(921,411,l),
(541,411,l),
(541,670,l),
(941,670,l),
(941,745,l),
(283,745,l),
(11,0,l)
);
},
{
closed = 1;
nodes = (
(333,670,l),
(461,670,l),
(461,257,l),
(186,257,l)
);
}
);
width = 985;
},
{
anchors = (
{
name = bottom;
pos = (497,0);
},
{
name = top;
pos = (497,745);
}
);
layerId = "9398AC28-6BE1-4A79-9C94-3CBC2F226CE7";
shapes = (
{
closed = 1;
nodes = (
(179,0,l),
(229,152,l),
(470,152,l),
(470,0,l),
(970,0,l),
(971,135,l),
(625,135,l),
(625,306,l),
(951,306,l),
(951,441,l),
(625,441,l),
(625,610,l),
(971,610,l),
(971,745,l),
(263,745,l),
(11,0,l)
);
},
{
closed = 1;
nodes = (
(378,610,l),
(470,610,l),
(470,287,l),
(272,287,l)
);
}
);
width = 993;
},
{
anchors = (
{
name = bottom;
pos = (494,0);
},
{
name = top;
pos = (494,745);
}
);
layerId = "C1DB0BE6-5704-4A8C-8C00-D80E72C16D98";
shapes = (
{
closed = 1;
nodes = (
(77,0,l),
(149,197,l),
(472,197,l),
(472,0,l),
(932,0,l),
(932,45,l),
(522,45,l),
(522,351,l),
(912,351,l),
(912,396,l),
(522,396,l),
(522,700,l),
(932,700,l),
(932,745,l),
(298,745,l),
(22,0,l)
);
},
{
closed = 1;
nodes = (
(333,700,l),
(472,700,l),
(472,242,l),
(165,242,l)
);
}
);
width = 987;
}
);
metricLeft = "=A";
metricRight = "=E";
unicode = 198;
},
{
glyphname = B;
lastChange = "2023-01-30 07:37:07 +0000";
layers = (
{
anchors = (
{
name = bottom;
pos = (347,0);
},
{
name = top;
pos = (347,745);
}
);
layerId = "30C2FD74-1A74-41AC-9C29-B288AE1DBDD7";
shapes = (
{
closed = 1;
nodes = (
(402,0,ls),
(547,0,o),
(638,83,o),
(638,217,cs),
(638,305,o),
(585,380,o),
(497,412,c),
(498,388,l),
(568,418,o),
(608,480,o),
(608,558,cs),
(608,670,o),
(527,745,o),
(401,745,cs),
(88,745,l),
(88,0,l)
);
},
{
closed = 1;
nodes = (
(168,358,l),
(402,358,ls),
(496,358,o),
(558,302,o),
(558,216,cs),
(558,128,o),
(496,75,o),
(402,75,cs),
(168,75,l)
);
},
{
closed = 1;
nodes = (
(168,670,l),
(395,670,ls),
(475,670,o),
(528,629,o),
(528,555,cs),
(528,482,o),
(475,430,o),
(395,430,cs),
(168,430,l)
);
}
);
width = 693;
},
{
anchors = (
{
name = bottom;
pos = (345,0);
},
{
name = top;
pos = (345,745);
}
);
layerId = "9398AC28-6BE1-4A79-9C94-3CBC2F226CE7";
shapes = (
{
closed = 1;
nodes = (
(381,0,ls),
(554,0,o),
(657,85,o),
(657,232,cs),
(657,314,o),
(628,388,o),
(510,435,c),
(510,359,l),
(593,399,o),
(626,461,o),
(626,527,cs),
(626,664,o),
(535,745,o),
(381,745,cs),
(66,745,l),
(66,0,l)
);
},
{
closed = 1;
nodes = (
(221,330,l),
(399,330,ls),
(461,330,o),
(502,291,o),
(502,232,cs),
(502,174,o),
(461,135,o),
(399,135,cs),
(221,135,l)
);
},
{
closed = 1;
nodes = (
(221,615,l),
(392,615,ls),
(440,615,o),
(471,585,o),
(471,540,cs),
(471,495,o),
(440,465,o),
(392,465,cs),
(221,465,l)
);
}
);
width = 690;
},
{
anchors = (
{
name = bottom;
pos = (348,0);
},
{
name = top;
pos = (348,745);
}
);
layerId = "C1DB0BE6-5704-4A8C-8C00-D80E72C16D98";
shapes = (
{
closed = 1;
nodes = (
(400,0,ls),
(548,0,o),
(629,83,o),
(629,208,cs),
(629,301,o),
(571,378,o),
(482,401,c),
(482,392,l),
(554,415,o),
(599,479,o),
(599,557,cs),
(599,665,o),
(519,745,o),
(400,745,cs),
(99,745,l),
(99,0,l)
);
},
{
closed = 1;
nodes = (
(149,370,l),
(401,370,ls),
(509,370,o),
(579,306,o),
(579,207,cs),
(579,110,o),
(508,45,o),
(391,45,cs),
(149,45,l)
);
},
{
closed = 1;
nodes = (
(149,700,l),
(394,700,ls),
(492,700,o),
(549,644,o),
(549,558,cs),
(549,471,o),
(488,415,o),
(394,415,cs),
(149,415,l)
);
}
);
width = 695;
}
);
unicode = 66;
},
{
glyphname = C;
lastChange = "2023-01-30 07:37:07 +0000";
layers = (
{
anchors = (
{
name = bottom;
pos = (428,0);
},
{
name = top;
pos = (428,745);
}
);
layerId = "30C2FD74-1A74-41AC-9C29-B288AE1DBDD7";
shapes = (
{
closed = 1;
nodes = (
(579,-12,o),
(689,80,o),
(726,173,c),
(651,206,l),
(613,119,o),
(534,63,o),
(428,63,cs),
(263,63,o),
(146,187,o),
(146,372,cs),
(146,557,o),
(263,682,o),
(428,682,cs),
(534,682,o),
(613,625,o),
(651,538,c),
(726,571,l),
(689,664,o),
(579,757,o),
(428,757,cs),
(218,757,o),
(66,595,o),
(66,372,cs),
(66,149,o),
(218,-12,o),
(428,-12,cs)
);
}
);
width = 781;
},
{
anchors = (
{
name = bottom;
pos = (420,0);
},
{
name = top;
pos = (420,745);
}
);
layerId = "9398AC28-6BE1-4A79-9C94-3CBC2F226CE7";
shapes = (
{
closed = 1;
nodes = (
(581,-12,o),
(700,77,o),
(739,187,c),
(602,253,l),
(576,181,o),
(510,128,o),
(420,128,cs),
(288,128,o),
(199,227,o),
(199,373,cs),
(199,518,o),
(288,617,o),
(420,617,cs),
(510,617,o),
(576,564,o),
(602,492,c),
(739,558,l),
(700,668,o),
(581,757,o),
(420,757,cs),
(204,757,o),
(44,595,o),
(44,373,cs),
(44,152,o),
(206,-12,o),
(420,-12,cs)
);
}
);
width = 772;
},
{
anchors = (
{
name = bottom;
pos = (430,0);
},
{
name = top;
pos = (430,745);
}
);
layerId = "C1DB0BE6-5704-4A8C-8C00-D80E72C16D98";
shapes = (
{
closed = 1;
nodes = (
(577,-12,o),
(686,83,o),
(722,169,c),
(675,190,l),
(631,97,o),
(543,36,o),
(430,36,cs),
(252,36,o),
(127,173,o),
(127,373,cs),
(127,572,o),
(252,709,o),
(430,709,cs),
(543,709,o),
(631,648,o),
(675,555,c),
(722,576,l),
(686,662,o),
(577,757,o),
(430,757,cs),
(228,757,o),
(77,595,o),
(77,373,cs),
(77,150,o),
(228,-12,o),
(430,-12,cs)
);
}
);
width = 788;
}
);
unicode = 67;
},
{
glyphname = D;
lastChange = "2023-01-30 07:37:07 +0000";
layers = (
{
anchors = (
{
name = bottom;
pos = (382,0);
},
{
name = center;
pos = (178,373);
},
{
name = top;
pos = (382,745);
}
);
layerId = "30C2FD74-1A74-41AC-9C29-B288AE1DBDD7";
shapes = (
{
closed = 1;
nodes = (
(333,0,ls),
(554,0,o),
(698,147,o),
(698,373,cs),
(698,600,o),
(554,745,o),
(333,745,cs),
(88,745,l),
(88,0,l)
);
},
{
closed = 1;
nodes = (
(168,670,l),
(333,670,ls),
(503,670,o),
(614,555,o),
(614,373,cs),
(614,190,o),
(504,75,o),
(333,75,cs),
(168,75,l)
);
}
);
width = 742;
},
{
anchors = (
{
name = bottom;
pos = (375,0);
},
{
name = center;
pos = (194,373);
},
{
name = top;
pos = (375,745);
}
);
layerId = "9398AC28-6BE1-4A79-9C94-3CBC2F226CE7";
shapes = (
{
closed = 1;
nodes = (
(309,0,ls),
(550,0,o),
(706,157,o),
(706,373,cs),
(706,589,o),
(551,745,o),
(309,745,cs),
(66,745,l),
(66,0,l)
);
},
{
closed = 1;
nodes = (
(221,610,l),
(313,610,ls),
(458,610,o),
(551,518,o),
(551,373,cs),
(551,228,o),
(458,135,o),
(313,135,cs),
(221,135,l)
);
}
);
width = 739;
},
{
anchors = (
{
name = bottom;
pos = (383,0);
},
{
name = center;
pos = (174,373);
},
{
name = top;
pos = (383,745);
}
);
layerId = "C1DB0BE6-5704-4A8C-8C00-D80E72C16D98";
shapes = (
{
closed = 1;
nodes = (
(337,0,ls),
(552,0,o),
(689,146,o),
(689,373,cs),
(689,601,o),
(552,745,o),
(337,745,cs),
(99,745,l),
(99,0,l)
);
},
{
closed = 1;
nodes = (
(149,700,l),
(335,700,ls),
(517,700,o),
(639,569,o),
(639,373,cs),
(639,177,o),
(517,45,o),
(335,45,cs),
(149,45,l)
);
}
);
width = 744;
}
);
unicode = 68;
},
{
glyphname = E;
lastChange = "2023-01-30 07:37:07 +0000";
layers = (
{
anchors = (
{
name = bottom;
pos = (328,0);
},
{
name = ogonek;
pos = (468,0);
},
{
name = top;
pos = (328,745);
}
);
layerId = "30C2FD74-1A74-41AC-9C29-B288AE1DBDD7";
shapes = (
{
closed = 1;
nodes = (
(568,0,l),
(568,75,l),
(168,75,l),
(168,336,l),
(548,336,l),
(548,411,l),
(168,411,l),
(168,670,l),
(568,670,l),
(568,745,l),
(88,745,l),
(88,0,l)
);
}
);
width = 612;
},
{
anchors = (
{
name = bottom;
pos = (317,0);
},
{
name = ogonek;
pos = (467,0);
},
{
name = top;
pos = (317,745);
}
);
layerId = "9398AC28-6BE1-4A79-9C94-3CBC2F226CE7";
shapes = (
{
closed = 1;
nodes = (
(567,0,l),
(567,135,l),
(221,135,l),
(221,306,l),
(547,306,l),
(547,441,l),
(221,441,l),
(221,610,l),
(567,610,l),
(567,745,l),
(66,745,l),
(66,0,l)
);
}
);
width = 589;
},
{
anchors = (
{
name = bottom;
pos = (329,0);
},
{
name = ogonek;
pos = (459,0);
},
{
name = top;
pos = (329,745);
}
);
layerId = "C1DB0BE6-5704-4A8C-8C00-D80E72C16D98";
shapes = (
{
closed = 1;
nodes = (
(559,0,l),
(559,45,l),
(149,45,l),
(149,351,l),
(539,351,l),
(539,396,l),
(149,396,l),
(149,700,l),
(559,700,l),
(559,745,l),
(99,745,l),
(99,0,l)
);
}
);
width = 614;
}
);
unicode = 69;
},
{
glyphname = F;
lastChange = "2023-01-30 07:37:07 +0000";
layers = (
{
anchors = (
{
name = bottom;
pos = (291,0);
},
{
name = top;
pos = (291,745);
}
);
layerId = "30C2FD74-1A74-41AC-9C29-B288AE1DBDD7";
shapes = (
{
closed = 1;
nodes = (
(168,0,l),
(168,336,l),
(518,336,l),
(518,411,l),
(168,411,l),
(168,670,l),
(548,670,l),
(548,745,l),
(88,745,l),
(88,0,l)
);
}
);
width = 581;
},
{
anchors = (
{
name = bottom;
pos = (294,0);
},
{
name = top;
pos = (294,745);
}
);
layerId = "9398AC28-6BE1-4A79-9C94-3CBC2F226CE7";
shapes = (
{
closed = 1;
nodes = (
(221,0,l),
(221,286,l),
(526,286,l),
(526,421,l),
(221,421,l),
(221,610,l),
(576,610,l),
(576,745,l),
(66,745,l),
(66,0,l)
);
}
);
width = 587;
},
{
anchors = (
{
name = bottom;
pos = (297,0);
},
{
name = top;
pos = (297,745);
}
);
layerId = "C1DB0BE6-5704-4A8C-8C00-D80E72C16D98";
shapes = (
{
closed = 1;
nodes = (
(149,0,l),
(149,351,l),
(509,351,l),
(509,396,l),
(149,396,l),
(149,700,l),
(549,700,l),
(549,745,l),
(99,745,l),
(99,0,l)
);
}
);
width = 593;
}
);
unicode = 70;
},
{
glyphname = G;
lastChange = "2023-01-30 07:37:07 +0000";
layers = (
{
anchors = (
{
name = bottom;
pos = (411,0);
},
{
name = top;
pos = (411,745);
}
);
layerId = "30C2FD74-1A74-41AC-9C29-B288AE1DBDD7";
shapes = (
{
closed = 1;
nodes = (
(617,-12,o),
(766,128,o),
(766,323,cs),
(766,385,l),
(428,385,l),
(428,315,l),
(722,315,l),
(686,351,l),
(686,310,ls),
(686,166,o),
(574,63,o),
(428,63,cs),
(263,63,o),
(146,187,o),
(146,372,cs),
(146,557,o),
(263,682,o),
(428,682,cs),
(537,682,o),
(617,627,o),
(654,536,c),
(726,571,l),
(689,664,o),
(579,757,o),
(428,757,cs),
(218,757,o),
(66,595,o),
(66,372,cs),
(66,149,o),
(218,-12,o),
(428,-12,cs)
);
}
);
width = 821;
},
{
anchors = (
{
name = bottom;
pos = (402,0);
},
{
name = top;
pos = (402,745);
}
);
layerId = "9398AC28-6BE1-4A79-9C94-3CBC2F226CE7";
shapes = (
{
closed = 1;
nodes = (
(595,-12,o),
(774,102,o),
(774,346,cs),
(774,425,l),
(420,425,l),
(420,295,l),
(690,295,l),
(619,355,l),
(619,293,ls),
(619,189,o),
(526,128,o),
(424,128,cs),
(292,128,o),
(199,227,o),
(199,373,cs),
(199,518,o),
(288,617,o),
(420,617,cs),
(510,617,o),
(576,564,o),
(602,492,c),
(739,558,l),
(700,668,o),
(581,757,o),
(420,757,cs),
(204,757,o),
(44,595,o),
(44,373,cs),
(44,152,o),
(210,-12,o),
(424,-12,cs)
);
}
);
width = 804;
},
{
anchors = (
{
name = bottom;
pos = (417,0);
},
{
name = top;
pos = (417,745);
}
);
layerId = "C1DB0BE6-5704-4A8C-8C00-D80E72C16D98";
shapes = (
{
closed = 1;
nodes = (
(630,-12,o),
(767,139,o),
(767,319,cs),
(767,368,l),
(434,368,l),
(434,323,l),
(739,323,l),
(717,349,l),
(717,319,ls),
(717,157,o),
(597,36,o),
(433,36,cs),
(255,36,o),
(127,171,o),
(127,372,cs),
(127,572,o),
(256,709,o),
(434,709,cs),
(554,709,o),
(642,648,o),
(686,555,c),
(733,576,l),
(697,662,o),
(588,757,o),
(434,757,cs),
(227,757,o),
(77,595,o),
(77,372,cs),
(77,148,o),
(225,-12,o),
(433,-12,cs)
);
}
);
width = 834;
}
);
unicode = 71;
},
{
glyphname = G.ss01;
lastChange = "2023-01-30 07:37:07 +0000";
layers = (
{
anchors = (
{
name = bottom;
pos = (398,0);
},
{
name = top;
pos = (418,745);
}
);
layerId = "30C2FD74-1A74-41AC-9C29-B288AE1DBDD7";
shapes = (
{
closed = 1;
nodes = (
(534,-12,o),
(634,44,o),
(689,133,c),
(676,150,l),
(676,0,l),
(746,0,l),
(746,385,l),
(418,385,l),
(418,315,l),
(712,315,l),
(676,351,l),
(676,310,ls),
(676,166,o),
(564,63,o),
(418,63,cs),
(253,63,o),
(136,187,o),
(136,372,cs),
(136,557,o),
(253,682,o),
(418,682,cs),
(527,682,o),
(607,627,o),
(644,536,c),
(716,571,l),
(679,664,o),
(569,757,o),
(418,757,cs),
(208,757,o),
(56,595,o),
(56,372,cs),
(56,149,o),
(208,-12,o),
(418,-12,cs)
);
}
);
width = 796;
},
{
anchors = (
{
name = bottom;
pos = (393,0);
},
{
name = top;
pos = (411,745);
}
);
layerId = "9398AC28-6BE1-4A79-9C94-3CBC2F226CE7";
shapes = (
{
closed = 1;
nodes = (
(501,-12,o),
(589,20,o),
(647,98,c),
(615,129,l),
(615,0,l),
(755,0,l),
(755,425,l),
(411,425,l),
(411,295,l),
(677,295,l),
(610,362,l),
(610,291,ls),
(610,187,o),
(517,128,o),
(415,128,cs),
(283,128,o),
(190,227,o),
(190,373,cs),
(190,518,o),
(279,617,o),
(411,617,cs),
(501,617,o),
(567,564,o),
(593,492,c),
(730,558,l),
(691,668,o),
(572,757,o),
(411,757,cs),
(195,757,o),
(35,595,o),
(35,373,cs),
(35,152,o),
(201,-12,o),
(415,-12,cs)
);
}
);
width = 786;
},
{
anchors = (
{
name = bottom;
pos = (398,0);
},
{
name = top;
pos = (418,745);
}
);
layerId = "C1DB0BE6-5704-4A8C-8C00-D80E72C16D98";
shapes = (
{
closed = 1;
nodes = (
(550,-12,o),
(653,63,o),
(701,170,c),
(691,185,l),
(691,0,l),
(741,0,l),
(741,368,l),
(418,368,l),
(418,323,l),
(727,323,l),
(691,359,l),
(691,319,ls),
(691,157,o),
(575,36,o),
(417,36,cs),
(239,36,o),
(111,171,o),
(111,372,cs),
(111,572,o),
(240,709,o),
(418,709,cs),
(538,709,o),
(626,648,o),
(670,555,c),
(717,576,l),
(681,662,o),
(572,757,o),
(418,757,cs),
(211,757,o),
(61,595,o),
(61,372,cs),
(61,148,o),
(209,-12,o),
(417,-12,cs)
);
}
);
width = 796;
}
);
},
{
glyphname = G.ss03;
lastChange = "2023-01-30 07:37:07 +0000";
layers = (
{
anchors = (
{
name = bottom;
pos = (399,0);
},
{
name = top;
pos = (425,745);
}
);
layerId = "30C2FD74-1A74-41AC-9C29-B288AE1DBDD7";
shapes = (
{
closed = 1;
nodes = (
(575,-12,o),
(696,56,o),
(756,167,c),
(756,385,l),
(428,385,l),
(428,315,l),
(712,315,l),
(681,351,l),
(681,149,l),
(690,206,l),
(644,119,o),
(550,63,o),
(434,63,cs),
(275,63,o),
(146,178,o),
(146,372,cs),
(146,557,o),
(263,682,o),
(428,682,cs),
(537,682,o),
(617,627,o),
(654,536,c),
(726,571,l),
(689,664,o),
(580,757,o),
(425,757,cs),
(224,757,o),
(66,600,o),
(66,373,cs),
(66,143,o),
(227,-12,o),
(434,-12,cs)
);
}
);
width = 797;
},
{
anchors = (
{
name = bottom;
pos = (396,0);
},
{
name = top;
pos = (418,745);
}
);
layerId = "9398AC28-6BE1-4A79-9C94-3CBC2F226CE7";
shapes = (
{
closed = 1;
nodes = (
(557,-12,o),
(696,44,o),
(764,177,c),
(764,425,l),
(420,425,l),
(420,295,l),
(686,295,l),
(619,352,l),
(619,155,l),
(636,263,l),
(614,178,o),
(523,128,o),
(430,128,cs),
(303,128,o),
(199,218,o),
(199,374,cs),
(199,521,o),
(292,617,o),
(418,617,cs),
(511,617,o),
(576,564,o),
(602,492,c),
(739,558,l),
(700,668,o),
(581,757,o),
(420,757,cs),
(201,757,o),
(44,592,o),
(44,375,cs),
(44,149,o),
(212,-12,o),
(428,-12,cs)
);
}
);
width = 792;
},
{
anchors = (
{
name = bottom;
pos = (394,0);
},
{
name = top;
pos = (434,745);
}
);
layerId = "C1DB0BE6-5704-4A8C-8C00-D80E72C16D98";
shapes = (
{
closed = 1;
nodes = (
(589,-12,o),
(707,65,o),
(757,174,c),
(757,368,l),
(434,368,l),
(434,323,l),
(743,323,l),
(709,359,l),
(709,151,l),
(716,208,l),
(678,104,o),
(572,36,o),
(443,36,cs),
(259,36,o),
(127,171,o),
(127,372,cs),
(127,572,o),
(256,709,o),
(434,709,cs),
(554,709,o),
(642,648,o),
(686,555,c),
(733,576,l),
(697,662,o),
(588,757,o),
(434,757,cs),
(227,757,o),
(77,595,o),
(77,372,cs),
(77,148,o),
(229,-12,o),
(443,-12,cs)
);
}
);
width = 788;
}
);
metricLeft = "=O";
},
{
glyphname = H;
lastChange = "2023-01-30 07:37:07 +0000";
layers = (
{
anchors = (
{
name = bottom;
pos = (368,0);
},
{
name = center;
pos = (368,595);
},
{
name = top;
pos = (368,745);
}
);
layerId = "30C2FD74-1A74-41AC-9C29-B288AE1DBDD7";
shapes = (
{
closed = 1;
nodes = (
(168,0,l),
(168,335,l),
(568,335,l),
(568,0,l),
(648,0,l),
(648,745,l),
(568,745,l),
(568,410,l),
(168,410,l),
(168,745,l),
(88,745,l),
(88,0,l)
);
}
);
width = 736;
},
{
anchors = (
{
name = bottom;
pos = (366,0);
},
{
name = center;
pos = (366,595);
},
{
name = top;
pos = (366,745);
}
);
layerId = "9398AC28-6BE1-4A79-9C94-3CBC2F226CE7";
shapes = (
{
closed = 1;
nodes = (
(221,0,l),
(221,288,l),
(511,288,l),
(511,0,l),
(666,0,l),
(666,745,l),
(511,745,l),
(511,423,l),
(221,423,l),
(221,745,l),
(66,745,l),
(66,0,l)
);
}
);
width = 732;
},
{
anchors = (
{
name = bottom;
pos = (369,0);
},
{
name = center;
pos = (369,595);
},
{
name = top;
pos = (369,745);
}
);
layerId = "C1DB0BE6-5704-4A8C-8C00-D80E72C16D98";
shapes = (
{
closed = 1;
nodes = (
(149,0,l),
(149,357,l),
(589,357,l),
(589,0,l),
(639,0,l),
(639,745,l),
(589,745,l),
(589,402,l),
(149,402,l),
(149,745,l),
(99,745,l),
(99,0,l)
);
}
);
width = 738;
}
);
unicode = 72;
},
{
glyphname = I;
lastChange = "2023-01-30 07:37:07 +0000";
layers = (
{
anchors = (
{
name = bottom;
pos = (128,0);
},
{
name = ogonek;
pos = (138,0);
},
{
name = top;
pos = (128,745);
}
);
layerId = "30C2FD74-1A74-41AC-9C29-B288AE1DBDD7";
shapes = (
{
closed = 1;
nodes = (
(168,0,l),
(168,745,l),
(88,745,l),
(88,0,l)
);
}
);
width = 256;
},
{
anchors = (
{
name = bottom;
pos = (144,0);
},
{
name = ogonek;
pos = (171,0);
},
{
name = top;
pos = (144,745);
}
);
layerId = "9398AC28-6BE1-4A79-9C94-3CBC2F226CE7";
shapes = (
{
closed = 1;
nodes = (
(221,0,l),
(221,745,l),
(66,745,l),
(66,0,l)
);
}
);
width = 287;
},
{
anchors = (
{
name = bottom;
pos = (124,0);
},
{
name = ogonek;
pos = (129,0);
},
{
name = top;
pos = (124,745);
}
);
layerId = "C1DB0BE6-5704-4A8C-8C00-D80E72C16D98";
shapes = (
{
closed = 1;
nodes = (
(149,0,l),
(149,745,l),
(99,745,l),
(99,0,l)
);
}
);
width = 248;
}
);
unicode = 73;
},
{
glyphname = I.ss01;
lastChange = "2023-01-30 07:37:07 +0000";
layers = (
{
anchors = (
{
name = bottom;
pos = (182,0);
},
{
name = ogonek;
pos = (202,0);
},
{
name = top;
pos = (182,745);
}
);
layerId = "30C2FD74-1A74-41AC-9C29-B288AE1DBDD7";
shapes = (
{
closed = 1;
nodes = (
(322,0,l),
(322,70,l),
(222,70,l),
(222,675,l),
(322,675,l),
(322,745,l),
(42,745,l),
(42,675,l),
(142,675,l),
(142,70,l),
(42,70,l),
(42,0,l)
);
}
);
width = 364;
},
{
anchors = (
{
name = bottom;
pos = (261,0);
},
{
name = ogonek;
pos = (281,0);
},
{
name = top;
pos = (260,745);
}
);
layerId = "9398AC28-6BE1-4A79-9C94-3CBC2F226CE7";
shapes = (
{
closed = 1;
nodes = (
(458,0,l),
(458,135,l),
(338,135,l),
(338,610,l),
(458,610,l),
(458,745,l),
(63,745,l),
(63,610,l),
(183,610,l),
(183,135,l),
(63,135,l),
(63,0,l)
);
}
);
width = 520;
},
{
anchors = (
{
name = bottom;
pos = (182,0);
},
{
name = ogonek;
pos = (202,0);
},
{
name = top;
pos = (182,745);
}
);
layerId = "C1DB0BE6-5704-4A8C-8C00-D80E72C16D98";
shapes = (
{
closed = 1;
nodes = (
(307,0,l),
(307,45,l),
(207,45,l),
(207,700,l),
(307,700,l),
(307,745,l),
(57,745,l),
(57,700,l),
(157,700,l),
(157,45,l),
(57,45,l),
(57,0,l)
);
}
);
width = 364;
}
);
},
{
glyphname = J;
lastChange = "2023-01-30 07:37:07 +0000";
layers = (
{
anchors = (
{
name = bottom;
pos = (203,0);
},
{
name = top;
pos = (255,745);
}
);
layerId = "30C2FD74-1A74-41AC-9C29-B288AE1DBDD7";
shapes = (
{
closed = 1;
nodes = (
(95,0,ls),
(217,0,o),
(295,79,o),
(295,205,cs),
(295,745,l),
(215,745,l),
(215,205,ls),
(215,128,o),
(169,80,o),
(95,80,cs),
(55,80,l),
(55,0,l)
);
}
);
width = 383;
},
{
anchors = (
{
name = bottom;
pos = (209,0);
},
{
name = top;
pos = (256,745);
}
);
layerId = "9398AC28-6BE1-4A79-9C94-3CBC2F226CE7";
shapes = (
{
closed = 1;
nodes = (
(78,0,ls),
(234,0,o),
(333,96,o),
(333,240,cs),
(333,745,l),
(178,745,l),
(178,233,ls),
(178,177,o),
(138,140,o),
(78,140,cs),
(33,140,l),
(33,0,l)
);
}
);
width = 396;
},
{
anchors = (
{
name = bottom;
pos = (202,0);
},
{
name = top;
pos = (257,745);
}
);
layerId = "C1DB0BE6-5704-4A8C-8C00-D80E72C16D98";
shapes = (
{
closed = 1;
nodes = (
(104,0,ls),
(212,0,o),
(282,72,o),
(282,191,cs),
(282,745,l),
(232,745,l),
(232,194,ls),
(232,99,o),
(184,50,o),
(104,50,cs),
(66,50,l),
(66,0,l)
);
}
);
width = 381;
}
);
unicode = 74;
},
{
glyphname = J.ss03;
lastChange = "2023-01-30 07:37:07 +0000";
layers = (
{
anchors = (
{
name = bottom;
pos = (295,0);
},
{
name = top;
pos = (450,745);
}
);
layerId = "30C2FD74-1A74-41AC-9C29-B288AE1DBDD7";
shapes = (
{
closed = 1;
nodes = (
(409,-12,o),
(490,77,o),
(490,195,cs),
(490,745,l),
(410,745,l),
(410,195,ls),
(410,118,o),
(359,63,o),
(277,63,cs),
(202,63,o),
(142,109,o),
(119,185,c),
(45,163,l),
(71,58,o),
(160,-12,o),
(277,-12,cs)
);
}
);
width = 578;
},
{
anchors = (
{
name = bottom;
pos = (331,0);
},
{
name = top;
pos = (485,745);
}
);
layerId = "9398AC28-6BE1-4A79-9C94-3CBC2F226CE7";
shapes = (
{
closed = 1;
nodes = (
(464,-12,o),
(562,97,o),
(562,245,cs),
(562,745,l),
(407,745,l),
(407,245,ls),
(407,172,o),
(366,128,o),
(295,128,cs),
(231,128,o),
(184,163,o),
(167,228,c),
(23,189,l),
(48,64,o),
(151,-12,o),
(294,-12,cs)
);
}
);
width = 625;
},
{
anchors = (
{
name = bottom;
pos = (275,0);
},
{
name = top;
pos = (430,745);
}
);
layerId = "C1DB0BE6-5704-4A8C-8C00-D80E72C16D98";
shapes = (
{
closed = 1;
nodes = (
(369,-12,o),
(455,64,o),
(455,185,cs),
(455,745,l),
(405,745,l),
(405,185,ls),
(405,91,o),
(339,33,o),
(257,33,cs),
(172,33,o),
(115,89,o),
(91,166,c),
(45,151,l),
(73,54,o),
(147,-12,o),
(256,-12,cs)
);
}
);
width = 554;
}
);
metricRight = "=J";
},
{
glyphname = K;
lastChange = "2023-01-30 07:37:07 +0000";
layers = (
{
anchors = (
{
name = bottom;
pos = (327,0);
},
{
name = top;
pos = (327,745);
}
);
layerId = "30C2FD74-1A74-41AC-9C29-B288AE1DBDD7";
shapes = (
{
closed = 1;
nodes = (
(168,0,l),
(168,225,l),
(293,367,l),
(547,0,l),
(643,0,l),
(328,460,l),
(324,403,l),
(625,745,l),
(525,745,l),
(150,319,l),
(168,310,l),
(168,745,l),
(88,745,l),
(88,0,l)
);
}
);
width = 654;
},
{
anchors = (
{
name = bottom;
pos = (344,0);
},
{
name = top;
pos = (344,745);
}
);
layerId = "9398AC28-6BE1-4A79-9C94-3CBC2F226CE7";
shapes = (
{
closed = 1;
nodes = (
(221,0,l),
(221,204,l),
(313,315,l),
(495,0,l),
(676,0,l),
(384,499,l),
(375,389,l),
(670,745,l),
(476,745,l),
(178,387,l),
(221,372,l),
(221,745,l),
(66,745,l),
(66,0,l)
);
}
);
width = 687;
},
{
anchors = (
{
name = bottom;
pos = (326,0);
},
{
name = top;
pos = (326,745);
}
);
layerId = "C1DB0BE6-5704-4A8C-8C00-D80E72C16D98";
shapes = (
{
closed = 1;
nodes = (
(149,0,l),
(149,241,l),
(283,390,l),
(567,0,l),
(629,0,l),
(305,444,l),
(303,409,l),
(606,745,l),
(539,745,l),
(130,294,l),
(149,285,l),
(149,745,l),
(99,745,l),
(99,0,l)
);
}
);
width = 651;
}
);
unicode = 75;
},
{
glyphname = K.ss01;
lastChange = "2023-01-30 07:37:07 +0000";
layers = (
{
anchors = (
{
name = bottom;
pos = (326,0);
},
{
name = top;
pos = (326,745);
}
);
layerId = "30C2FD74-1A74-41AC-9C29-B288AE1DBDD7";
shapes = (
{
closed = 1;
nodes = (
(640,0,l),
(364,374,l),
(603,745,l),
(507,745,l),
(291,408,l),
(289,338,l),
(543,0,l)
);
},
{
closed = 1;
nodes = (
(160,0,l),
(160,745,l),
(80,745,l),
(80,0,l)
);
},
{
closed = 1;
nodes = (
(326,335,l),
(326,410,l),
(122,410,l),
(122,335,l)
);
}
);
width = 651;
},
{
anchors = (
{
name = bottom;
pos = (336,0);
},
{
name = top;
pos = (336,745);
}
);
layerId = "9398AC28-6BE1-4A79-9C94-3CBC2F226CE7";
shapes = (
{
closed = 1;
nodes = (
(670,0,l),
(394,374,l),
(633,745,l),
(448,745,l),
(232,408,l),
(225,338,l),
(479,0,l)
);
},
{
closed = 1;
nodes = (
(215,0,l),
(215,745,l),
(60,745,l),
(60,0,l)
);
},
{
closed = 1;
nodes = (
(348,303,l),
(348,443,l),
(144,443,l),
(144,303,l)
);
}
);
width = 671;
},
{
anchors = (
{
name = bottom;
pos = (326,0);
},
{
name = top;
pos = (326,745);
}
);
layerId = "C1DB0BE6-5704-4A8C-8C00-D80E72C16D98";
shapes = (
{
closed = 1;
nodes = (
(622,0,l),
(346,374,l),
(585,745,l),
(525,745,l),
(296,388,l),
(293,358,l),
(563,0,l)
);
},
{
closed = 1;
nodes = (
(142,0,l),
(142,745,l),
(92,745,l),
(92,0,l)
);
},
{
closed = 1;
nodes = (
(321,350,l),
(321,395,l),
(117,395,l),
(117,350,l)
);
}
);
width = 651;
}
);
},
{
glyphname = K.ss03;
lastChange = "2023-01-30 07:37:07 +0000";
layers = (
{
anchors = (
{
name = bottom;
pos = (342,0);
},
{
name = top;
pos = (342,745);
}
);
layerId = "30C2FD74-1A74-41AC-9C29-B288AE1DBDD7";
shapes = (
{
closed = 1;
nodes = (
(673,-6,l),
(673,64,l),
(660,64,ls),
(604,64,o),
(581,91,o),
(543,147,cs),
(328,460,l),
(324,403,l),
(625,745,l),
(525,745,l),
(150,319,l),
(168,310,l),
(168,745,l),
(88,745,l),
(88,0,l),
(168,0,l),
(168,225,l),
(294,368,l),
(450,142,ls),
(543,8,o),
(579,-6,o),
(660,-6,cs)
);
}
);
width = 684;
},
{
anchors = (
{
name = bottom;
pos = (356,0);
},
{
name = top;
pos = (356,745);
}
);
layerId = "9398AC28-6BE1-4A79-9C94-3CBC2F226CE7";
shapes = (
{
closed = 1;
nodes = (
(701,-6,l),
(701,124,l),
(666,124,ls),
(618,124,o),
(587,150,o),
(549,215,cs),
(384,499,l),
(375,389,l),
(670,745,l),
(476,745,l),
(178,387,l),
(221,372,l),
(221,745,l),
(66,745,l),
(66,0,l),
(221,0,l),
(221,204,l),
(313,315,l),
(402,160,ls),
(484,17,o),
(541,-6,o),
(659,-6,cs)
);
}
);
width = 712;
},
{
anchors = (
{
name = bottom;
pos = (343,0);
},
{
name = top;
pos = (343,745);
}
);
layerId = "C1DB0BE6-5704-4A8C-8C00-D80E72C16D98";
shapes = (
{
closed = 1;
nodes = (
(664,-6,l),
(664,39,l),
(650,39,ls),
(599,39,o),
(584,60,o),
(540,120,cs),
(305,444,l),
(303,409,l),
(606,745,l),
(539,745,l),
(130,294,l),
(149,285,l),
(149,745,l),
(99,745,l),
(99,0,l),
(149,0,l),
(149,241,l),
(283,390,l),
(477,120,ls),
(553,15,o),
(575,-6,o),
(649,-6,cs)
);
}
);
width = 686;
}
);
metricLeft = "=K";
metricRight = "=K";
},
{
glyphname = L;
lastChange = "2023-01-30 07:37:07 +0000";
layers = (
{
anchors = (
{
name = bottom;
pos = (293,0);
},
{
name = center;
pos = (128,373);
},
{
name = dot;
pos = (333,372);
},
{
name = top;
pos = (128,745);
},
{
name = topright;
pos = (333,536);
}
);
layerId = "30C2FD74-1A74-41AC-9C29-B288AE1DBDD7";
shapes = (
{
closed = 1;
nodes = (
(498,0,l),
(498,75,l),
(168,75,l),
(168,745,l),
(88,745,l),
(88,0,l)
);
}
);
width = 531;
},
{
anchors = (
{
name = bottom;
pos = (301,0);
},
{
name = center;
pos = (144,373);
},
{
name = dot;
pos = (379,372);
},
{
name = top;
pos = (144,745);
},
{
name = topright;
pos = (379,546);
}
);
layerId = "9398AC28-6BE1-4A79-9C94-3CBC2F226CE7";
shapes = (
{
closed = 1;
nodes = (
(536,0,l),
(536,135,l),
(221,135,l),
(221,745,l),
(66,745,l),
(66,0,l)
);
}
);
width = 547;
},
{
anchors = (
{
name = bottom;
pos = (294,0);
},
{
name = center;
pos = (124,373);
},
{
name = dot;
pos = (319,372);
},
{
name = top;
pos = (124,745);
},
{
name = topright;
pos = (319,526);
}
);
layerId = "C1DB0BE6-5704-4A8C-8C00-D80E72C16D98";
shapes = (
{
closed = 1;
nodes = (
(489,0,l),
(489,45,l),
(149,45,l),
(149,745,l),
(99,745,l),
(99,0,l)
);
}
);
width = 533;
}
);
unicode = 76;
},
{
glyphname = M;
lastChange = "2023-01-30 07:37:07 +0000";
layers = (
{
anchors = (
{
name = bottom;
pos = (418,0);
},
{
name = top;
pos = (418,745);
}
);
layerId = "30C2FD74-1A74-41AC-9C29-B288AE1DBDD7";
shapes = (
{
closed = 1;
nodes = (
(168,0,l),
(168,637,l),
(143,627,l),
(416,230,l),
(420,230,l),
(694,627,l),
(668,637,l),
(668,0,l),
(748,0,l),
(748,745,l),
(678,745,l),
(399,339,l),
(438,339,l),
(158,745,l),
(88,745,l),
(88,0,l)
);
}
);
width = 836;
},
{
anchors = (
{
name = bottom;
pos = (456,0);
},
{
name = top;
pos = (456,745);
}
);
layerId = "9398AC28-6BE1-4A79-9C94-3CBC2F226CE7";
shapes = (
{
closed = 1;
nodes = (
(221,0,l),
(221,574,l),
(169,560,l),
(446,190,l),
(466,190,l),
(753,560,l),
(691,574,l),
(691,0,l),
(846,0,l),
(846,745,l),
(696,745,l),
(425,375,l),
(495,375,l),
(216,745,l),
(66,745,l),
(66,0,l)
);
}
);
width = 912;
},
{
anchors = (
{
name = bottom;
pos = (409,0);
},
{
name = top;
pos = (409,745);
}
);
layerId = "C1DB0BE6-5704-4A8C-8C00-D80E72C16D98";
shapes = (
{
closed = 1;
nodes = (
(149,0,l),
(149,662,l),
(141,654,l),
(408,246,l),
(410,246,l),
(675,654,l),
(669,662,l),
(669,0,l),
(719,0,l),
(719,745,l),
(679,745,l),
(400,323,l),
(415,323,l),
(139,745,l),
(99,745,l),
(99,0,l)
);
}
);
width = 818;
}
);
unicode = 77;
},
{
glyphname = N;
lastChange = "2023-01-30 07:37:07 +0000";
layers = (
{
anchors = (
{
name = bottom;
pos = (368,0);
},
{
name = top;
pos = (368,745);
}
);
layerId = "30C2FD74-1A74-41AC-9C29-B288AE1DBDD7";
shapes = (
{
closed = 1;
nodes = (
(168,0,l),
(168,631,l),
(141,631,l),
(578,0,l),
(648,0,l),
(648,745,l),
(568,745,l),
(568,118,l),
(595,118,l),
(158,745,l),
(88,745,l),
(88,0,l)
);
}
);
width = 736;
},
{
anchors = (
{
name = bottom;
pos = (371,0);
},
{
name = top;
pos = (371,745);
}
);
layerId = "9398AC28-6BE1-4A79-9C94-3CBC2F226CE7";
shapes = (
{
closed = 1;
nodes = (
(221,0,l),
(221,546,l),
(163,531,l),
(556,0,l),
(676,0,l),
(676,745,l),
(521,745,l),
(521,203,l),
(585,218,l),
(185,745,l),
(66,745,l),
(66,0,l)
);
}
);
width = 742;
},
{
anchors = (
{
name = bottom;
pos = (369,0);
},
{
name = top;
pos = (369,745);
}
);
layerId = "C1DB0BE6-5704-4A8C-8C00-D80E72C16D98";
shapes = (
{
closed = 1;
nodes = (
(149,0,l),
(149,671,l),
(130,671,l),
(599,0,l),
(639,0,l),
(639,745,l),
(589,745,l),
(589,78,l),
(605,78,l),
(139,745,l),
(99,745,l),
(99,0,l)
);
}
);
width = 738;
}
);
unicode = 78;
},
{
glyphname = Eng;
lastChange = "2023-01-30 07:37:07 +0000";
layers = (
{
layerId = "C1DB0BE6-5704-4A8C-8C00-D80E72C16D98";
shapes = (
{
closed = 1;
nodes = (
(574,-220,o),
(639,-165,o),
(639,-62,cs),
(639,745,l),
(589,745,l),
(589,65,l),
(610,71,l),
(139,745,l),
(99,745,l),
(99,0,l),
(149,0,l),
(149,680,l),
(128,674,l),
(610,-16,l),
(589,50,l),
(589,-62,ls),
(589,-137,o),
(549,-175,o),
(480,-175,cs),
(469,-175,o),
(455,-174,o),
(444,-172,c),
(444,-215,l),
(454,-218,o),
(467,-220,o),
(483,-220,cs)
);
}
);
width = 738;
},
{
layerId = "30C2FD74-1A74-41AC-9C29-B288AE1DBDD7";
shapes = (
{
closed = 1;
nodes = (
(568,-220,o),
(648,-161,o),
(648,-50,cs),
(648,745,l),
(568,745,l),
(568,121,l),
(589,127,l),
(158,745,l),
(88,745,l),
(88,0,l),
(168,0,l),
(168,628,l),
(148,622,l),
(588,-17,l),
(568,49,l),
(568,-50,ls),
(568,-117,o),
(529,-145,o),
(475,-145,cs),
(462,-145,o),
(447,-144,o),
(433,-142,c),
(433,-216,l),
(443,-219,o),
(464,-220,o),
(473,-220,cs)
);
}
);
width = 736;
},
{
layerId = "9398AC28-6BE1-4A79-9C94-3CBC2F226CE7";
shapes = (
{
closed = 1;
nodes = (
(596,-222,o),
(676,-149,o),
(676,-20,cs),
(676,745,l),
(521,745,l),
(521,235,l),
(562,248,l),
(185,745,l),
(66,745,l),
(66,0,l),
(221,0,l),
(221,520,l),
(181,507,l),
(566,-13,l),
(526,108,l),
(526,-20,ls),
(526,-68,o),
(497,-92,o),
(440,-92,cs),
(428,-92,o),
(417,-91,o),
(406,-89,c),
(406,-217,l),
(419,-220,o),
(440,-222,o),
(460,-222,cs)
);
}
);
width = 742;
}
);
metricLeft = "=N";
metricRight = "=N";
unicode = 330;
},
{
glyphname = O;
lastChange = "2023-01-30 07:37:07 +0000";
layers = (
{
anchors = (
{
name = bottom;
pos = (439,0);
},
{
name = center;
pos = (439,373);
},
{
name = ogonek;
pos = (489,0);
},
{
name = top;
pos = (439,745);
},
{
name = topright;
pos = (858,745);
}
);
layerId = "30C2FD74-1A74-41AC-9C29-B288AE1DBDD7";
shapes = (
{
closed = 1;
nodes = (
(646,-12,o),
(812,149,o),
(812,373,cs),
(812,596,o),
(646,757,o),
(439,757,cs),
(232,757,o),
(66,597,o),
(66,373,cs),
(66,148,o),
(232,-12,o),
(439,-12,cs)
);
},
{
closed = 1;
nodes = (
(267,63,o),
(146,202,o),
(146,373,cs),
(146,542,o),
(266,682,o),
(439,682,cs),
(612,682,o),
(732,542,o),
(732,373,cs),
(732,202,o),
(611,63,o),
(439,63,cs)
);
}
);
width = 878;
},
{
anchors = (
{
name = bottom;
pos = (439,0);
},
{
name = center;
pos = (439,373);
},
{
name = ogonek;
pos = (489,0);
},
{
name = top;
pos = (439,745);
},
{
name = topright;
pos = (858,745);
}
);
layerId = "9398AC28-6BE1-4A79-9C94-3CBC2F226CE7";
shapes = (
{
closed = 1;
nodes = (
(664,-12,o),
(834,154,o),
(834,373,cs),
(834,592,o),
(665,757,o),
(439,757,cs),
(213,757,o),
(44,592,o),
(44,373,cs),
(44,154,o),
(214,-12,o),
(439,-12,cs)
);
},
{
closed = 1;
nodes = (
(303,128,o),
(199,229,o),
(199,373,cs),
(199,517,o),
(303,617,o),
(439,617,cs),
(575,617,o),
(679,517,o),
(679,373,cs),
(679,229,o),
(575,128,o),
(439,128,cs)
);
}
);
width = 878;
},
{
anchors = (
{
name = bottom;
pos = (442,0);
},
{
name = center;
pos = (442,373);
},
{
name = ogonek;
pos = (492,0);
},
{
name = top;
pos = (442,745);
},
{
name = topright;
pos = (864,745);
}
);
layerId = "C1DB0BE6-5704-4A8C-8C00-D80E72C16D98";
shapes = (
{
closed = 1;
nodes = (
(643,-12,o),
(807,147,o),
(807,373,cs),
(807,598,o),
(642,757,o),
(442,757,cs),
(242,757,o),
(77,599,o),
(77,373,cs),
(77,147,o),
(241,-12,o),
(442,-12,cs)
);
},
{
closed = 1;
nodes = (
(255,36,o),
(127,191,o),
(127,373,cs),
(127,552,o),
(254,709,o),
(442,709,cs),
(631,709,o),
(757,552,o),
(757,373,cs),
(757,191,o),
(629,36,o),
(442,36,cs)
);
}
);
width = 884;
}
);
unicode = 79;
},
{
glyphname = Ohorn;
lastChange = "2023-01-30 07:37:07 +0000";
layers = (
{
anchors = (
{
name = bottom;
pos = (442,0);
},
{
name = center;
pos = (442,373);
},
{
name = top;
pos = (442,745);
}
);
layerId = "C1DB0BE6-5704-4A8C-8C00-D80E72C16D98";
shapes = (
{
closed = 1;
nodes = (
(643,-12,o),
(807,147,o),
(807,373,cs),
(807,536,o),
(721,664,o),
(597,722,c),
(588,716,l),
(658,716,ls),
(714,716,o),
(754,747,o),
(754,806,cs),
(754,835,o),
(744,864,o),
(733,893,c),
(688,893,l),
(698,866,o),
(708,840,o),
(708,812,cs),
(708,773,o),
(687,757,o),
(655,757,cs),
(442,757,ls),
(242,757,o),
(77,599,o),
(77,373,cs),
(77,147,o),
(241,-12,o),
(442,-12,cs)
);
},
{
closed = 1;
nodes = (
(255,36,o),
(127,191,o),
(127,373,cs),
(127,552,o),
(254,709,o),
(442,709,cs),
(631,709,o),
(757,552,o),
(757,373,cs),
(757,191,o),
(629,36,o),
(442,36,cs)
);
}
);
width = 884;
},
{
anchors = (
{
name = bottom;
pos = (439,0);
},
{
name = center;
pos = (439,373);
},
{
name = top;
pos = (439,745);
}
);
layerId = "30C2FD74-1A74-41AC-9C29-B288AE1DBDD7";
shapes = (
{
closed = 1;
nodes = (
(646,-12,o),
(812,149,o),
(812,373,cs),
(812,517,o),
(743,635,o),
(638,701,c),
(628,693,l),
(666,693,ls),
(745,693,o),
(796,719,o),
(796,801,cs),
(796,836,o),
(785,863,o),
(771,889,c),
(679,889,l),
(692,862,o),
(702,837,o),
(702,809,cs),
(702,764,o),
(675,757,o),
(652,757,cs),
(439,757,ls),
(232,757,o),
(66,597,o),
(66,373,cs),
(66,148,o),
(232,-12,o),
(439,-12,cs)
);
},
{
closed = 1;
nodes = (
(267,63,o),
(146,202,o),
(146,373,cs),
(146,542,o),
(266,682,o),
(439,682,cs),
(612,682,o),
(732,542,o),
(732,373,cs),
(732,202,o),
(611,63,o),
(439,63,cs)
);
}
);
width = 878;
},
{
anchors = (
{
name = bottom;
pos = (439,0);
},
{
name = center;
pos = (439,373);
},
{
name = top;
pos = (439,745);
}
);
layerId = "9398AC28-6BE1-4A79-9C94-3CBC2F226CE7";
shapes = (
{
closed = 1;
nodes = (
(664,-12,o),
(834,154,o),
(834,373,cs),
(834,503,o),
(775,614,o),
(679,683,c),
(644,654,l),
(732,654,ls),
(781,654,o),
(815,697,o),
(815,793,cs),
(815,829,o),
(805,854,o),
(792,882,c),
(666,882,l),
(676,857,o),
(686,827,o),
(686,806,cs),
(686,754,o),
(651,757,o),
(639,757,cs),
(439,757,ls),
(213,757,o),
(44,592,o),
(44,373,cs),
(44,154,o),
(214,-12,o),
(439,-12,cs)
);
},
{
closed = 1;
nodes = (
(303,128,o),
(199,229,o),
(199,373,cs),
(199,517,o),
(303,617,o),
(439,617,cs),
(575,617,o),
(679,517,o),
(679,373,cs),
(679,229,o),
(575,128,o),
(439,128,cs)
);
}
);
width = 878;
}
);
metricLeft = "=O";
metricRight = "=O";
unicode = 416;
},
{
glyphname = OE;
lastChange = "2023-01-30 07:37:07 +0000";
layers = (
{
layerId = "30C2FD74-1A74-41AC-9C29-B288AE1DBDD7";
shapes = (
{
closed = 1;
nodes = (
(569,-12,o),
(684,52,o),
(751,156,c),
(737,172,l),
(737,0,l),
(1217,0,l),
(1217,75,l),
(817,75,l),
(817,336,l),
(1197,336,l),
(1197,411,l),
(817,411,l),
(817,670,l),
(1217,670,l),
(1217,745,l),
(737,745,l),
(737,573,l),
(751,589,l),
(684,693,o),
(569,757,o),
(439,757,cs),
(232,757,o),
(66,597,o),
(66,373,cs),
(66,148,o),
(232,-12,o),
(439,-12,cs)
);
},
{
closed = 1;
nodes = (
(267,63,o),
(146,202,o),
(146,373,cs),
(146,542,o),
(266,682,o),
(439,682,cs),
(612,682,o),
(732,542,o),
(732,373,cs),
(732,202,o),
(611,63,o),
(439,63,cs)
);
}
);
width = 1261;
},
{
layerId = "9398AC28-6BE1-4A79-9C94-3CBC2F226CE7";
shapes = (
{
closed = 1;
nodes = (
(549,-12,o),
(647,28,o),
(716,105,c),
(684,134,l),
(684,0,l),
(1184,0,l),
(1185,135,l),
(839,135,l),
(839,306,l),
(1165,306,l),
(1165,441,l),
(839,441,l),
(839,610,l),
(1185,610,l),
(1185,745,l),
(684,745,l),
(684,612,l),
(716,642,l),
(647,717,o),
(549,757,o),
(439,757,cs),
(213,757,o),
(44,592,o),
(44,373,cs),
(44,154,o),
(214,-12,o),
(439,-12,cs)
);
},
{
closed = 1;
nodes = (
(303,128,o),
(199,229,o),
(199,373,cs),
(199,517,o),
(303,617,o),
(439,617,cs),
(575,617,o),
(679,517,o),
(679,373,cs),
(679,229,o),
(575,128,o),
(439,128,cs)
);
}
);
width = 1207;
},
{
layerId = "C1DB0BE6-5704-4A8C-8C00-D80E72C16D98";
shapes = (
{
closed = 1;
nodes = (
(588,-12,o),
(716,72,o),
(774,207,c),
(763,220,l),
(763,0,l),
(1223,0,l),
(1223,45,l),
(813,45,l),
(813,351,l),
(1203,351,l),
(1203,396,l),
(813,396,l),
(813,700,l),
(1223,700,l),
(1223,745,l),
(763,745,l),
(763,525,l),
(774,538,l),
(716,673,o),
(588,757,o),
(442,757,cs),
(242,757,o),
(77,599,o),
(77,373,cs),
(77,147,o),
(241,-12,o),
(442,-12,cs)
);
},
{
closed = 1;
nodes = (
(255,36,o),
(127,191,o),
(127,373,cs),
(127,552,o),
(254,709,o),
(442,709,cs),
(631,709,o),
(757,552,o),
(757,373,cs),
(757,191,o),
(629,36,o),
(442,36,cs)
);
}
);
width = 1278;
}
);
metricLeft = "=O";
metricRight = "=E";
unicode = 338;
},
{
glyphname = P;
lastChange = "2023-01-30 07:37:07 +0000";
layers = (
{
anchors = (
{
name = bottom;
pos = (322,0);
},
{
name = top;
pos = (322,745);
}
);
layerId = "30C2FD74-1A74-41AC-9C29-B288AE1DBDD7";
shapes = (
{
closed = 1;
nodes = (
(168,0,l),
(168,290,l),
(344,290,ls),
(491,290,o),
(588,381,o),
(588,517,cs),
(588,653,o),
(490,745,o),
(344,745,cs),
(88,745,l),
(88,0,l)
);
},
{
closed = 1;
nodes = (
(168,670,l),
(348,670,ls),
(444,670,o),
(508,612,o),
(508,518,cs),
(508,423,o),
(444,365,o),
(348,365,cs),
(168,365,l)
);
}
);
width = 643;
},
{
anchors = (
{
name = bottom;
pos = (325,0);
},
{
name = top;
pos = (325,745);
}
);
layerId = "9398AC28-6BE1-4A79-9C94-3CBC2F226CE7";
shapes = (
{
closed = 1;
nodes = (
(221,0,l),
(221,270,l),
(352,270,ls),
(504,270,o),
(616,354,o),
(616,507,cs),
(616,663,o),
(506,745,o),
(352,745,cs),
(66,745,l),
(66,0,l)
);
},
{
closed = 1;
nodes = (
(221,610,l),
(353,610,ls),
(418,610,o),
(461,569,o),
(461,507,cs),
(461,446,o),
(418,405,o),
(353,405,cs),
(221,405,l)
);
}
);
width = 649;
},
{
anchors = (
{
name = bottom;
pos = (323,0);
},
{
name = top;
pos = (323,745);
}
);
layerId = "C1DB0BE6-5704-4A8C-8C00-D80E72C16D98";
shapes = (
{
closed = 1;
nodes = (
(149,0,l),
(149,300,l),
(343,300,ls),
(483,300,o),
(579,390,o),
(579,522,cs),
(579,654,o),
(482,745,o),
(343,745,cs),
(99,745,l),
(99,0,l)
);
},
{
closed = 1;
nodes = (
(149,700,l),
(343,700,ls),
(453,700,o),
(529,628,o),
(529,523,cs),
(529,418,o),
(452,345,o),
(343,345,cs),
(149,345,l)
);
}
);
width = 645;
}
);
unicode = 80;
},
{
glyphname = Thorn;
lastChange = "2023-01-30 07:37:07 +0000";
layers = (
{
layerId = "30C2FD74-1A74-41AC-9C29-B288AE1DBDD7";
shapes = (
{
closed = 1;
nodes = (
(160,0,l),
(160,145,l),
(336,145,ls),
(483,145,o),
(580,236,o),
(580,372,cs),
(580,508,o),
(482,600,o),
(336,600,cs),
(160,600,l),
(160,745,l),
(80,745,l),
(80,0,l)
);
},
{
closed = 1;
nodes = (
(160,525,l),
(340,525,ls),
(436,525,o),
(500,467,o),
(500,373,cs),
(500,278,o),
(436,220,o),
(340,220,cs),
(160,220,l)
);
}
);
width = 635;
},
{
layerId = "9398AC28-6BE1-4A79-9C94-3CBC2F226CE7";
shapes = (
{
closed = 1;
nodes = (
(215,0,l),
(215,135,l),
(346,135,ls),
(498,135,o),
(610,219,o),
(610,372,cs),
(610,528,o),
(500,610,o),
(346,610,cs),
(215,610,l),
(215,745,l),
(60,745,l),
(60,0,l)
);
},
{
closed = 1;
nodes = (
(215,475,l),
(347,475,ls),
(412,475,o),
(455,434,o),
(455,372,cs),
(455,311,o),
(412,270,o),
(347,270,cs),
(215,270,l)
);
}
);
width = 655;
},
{
layerId = "C1DB0BE6-5704-4A8C-8C00-D80E72C16D98";
shapes = (
{
closed = 1;
nodes = (
(145,0,l),
(145,150,l),
(339,150,ls),
(479,150,o),
(575,240,o),
(575,372,cs),
(575,504,o),
(478,595,o),
(339,595,cs),
(145,595,l),
(145,745,l),
(95,745,l),
(95,0,l)
);
},
{
closed = 1;
nodes = (
(145,550,l),
(339,550,ls),
(449,550,o),
(525,478,o),
(525,373,cs),
(525,268,o),
(448,195,o),
(339,195,cs),
(145,195,l)
);
}
);
width = 635;
}
);
unicode = 222;
},
{
glyphname = Q;
lastChange = "2023-01-30 07:37:07 +0000";
layers = (
{
anchors = (
{
name = bottom;
pos = (439,0);
},
{
name = top;
pos = (439,745);
}
);
layerId = "30C2FD74-1A74-41AC-9C29-B288AE1DBDD7";
shapes = (
{
closed = 1;
nodes = (
(646,-12,o),
(812,149,o),
(812,373,cs),
(812,596,o),
(646,757,o),
(439,757,cs),
(232,757,o),
(66,597,o),
(66,373,cs),
(66,148,o),
(232,-12,o),
(439,-12,cs)
);
},
{
closed = 1;
nodes = (
(267,63,o),
(146,202,o),
(146,373,cs),
(146,542,o),
(266,682,o),
(439,682,cs),
(612,682,o),
(732,542,o),
(732,373,cs),
(732,202,o),
(611,63,o),
(439,63,cs)
);
},
{
closed = 1;
nodes = (
(745,-90,l),
(480,298,l),
(389,298,l),
(654,-90,l)
);
}
);
width = 878;
},
{
anchors = (
{
name = bottom;
pos = (439,0);
},
{
name = top;
pos = (439,745);
}
);
layerId = "9398AC28-6BE1-4A79-9C94-3CBC2F226CE7";
shapes = (
{
closed = 1;
nodes = (
(664,-12,o),
(834,154,o),
(834,373,cs),
(834,592,o),
(665,757,o),
(439,757,cs),
(213,757,o),
(44,592,o),
(44,373,cs),
(44,154,o),
(214,-12,o),
(439,-12,cs)
);
},
{
closed = 1;
nodes = (
(303,128,o),
(199,229,o),
(199,373,cs),
(199,517,o),
(303,617,o),
(439,617,cs),
(575,617,o),
(679,517,o),
(679,373,cs),
(679,229,o),
(575,128,o),
(439,128,cs)
);
},
{
closed = 1;
nodes = (
(760,-90,l),
(535,298,l),
(375,298,l),
(597,-90,l)
);
}
);
width = 878;
},
{
anchors = (
{
name = bottom;
pos = (442,0);
},
{
name = top;
pos = (442,745);
}
);
layerId = "C1DB0BE6-5704-4A8C-8C00-D80E72C16D98";
shapes = (
{
closed = 1;
nodes = (
(643,-12,o),
(807,147,o),
(807,373,cs),
(807,598,o),
(642,757,o),
(442,757,cs),
(242,757,o),
(77,599,o),
(77,373,cs),
(77,147,o),
(241,-12,o),
(442,-12,cs)
);
},
{
closed = 1;
nodes = (
(255,36,o),
(127,191,o),
(127,373,cs),
(127,552,o),
(254,709,o),
(442,709,cs),
(631,709,o),
(757,552,o),
(757,373,cs),
(757,191,o),
(629,36,o),
(442,36,cs)
);
},
{
closed = 1;
nodes = (
(733,-90,l),
(483,298,l),
(424,298,l),
(674,-90,l)
);
}
);
width = 884;
}
);
unicode = 81;
},
{
glyphname = Q.ss03;
lastChange = "2023-01-30 07:37:07 +0000";
layers = (
{
layerId = "30C2FD74-1A74-41AC-9C29-B288AE1DBDD7";
shapes = (
{
closed = 1;
nodes = (
(646,-12,o),
(812,149,o),
(812,373,cs),
(812,596,o),
(646,757,o),
(439,757,cs),
(232,757,o),
(66,597,o),
(66,373,cs),
(66,148,o),
(232,-12,o),
(439,-12,cs)
);
},
{
closed = 1;
nodes = (
(267,63,o),
(146,202,o),
(146,373,cs),
(146,542,o),
(266,682,o),
(439,682,cs),
(612,682,o),
(732,542,o),
(732,373,cs),
(732,202,o),
(611,63,o),
(439,63,cs)
);
},
{
closed = 1;
nodes = (
(762,-180,l),
(762,-115,l),
(592,-115,ls),
(518,-115,o),
(476,-88,o),
(476,-20,cs),
(476,5,l),
(401,5,l),
(401,-20,ls),
(401,-125,o),
(467,-180,o),
(584,-180,cs)
);
}
);
width = 878;
},
{
layerId = "9398AC28-6BE1-4A79-9C94-3CBC2F226CE7";
shapes = (
{
closed = 1;
nodes = (
(664,-12,o),
(834,154,o),
(834,373,cs),
(834,592,o),
(665,757,o),
(439,757,cs),
(213,757,o),
(44,592,o),
(44,373,cs),
(44,154,o),
(214,-12,o),
(439,-12,cs)
);
},
{
closed = 1;
nodes = (
(303,128,o),
(199,229,o),
(199,373,cs),
(199,517,o),
(303,617,o),
(439,617,cs),
(575,617,o),
(679,517,o),
(679,373,cs),
(679,229,o),
(575,128,o),
(439,128,cs)
);
},
{
closed = 1;
nodes = (
(754,-180,l),
(754,-50,l),
(581,-50,ls),
(538,-50,o),
(515,-40,o),
(515,-10,cs),
(515,67,l),
(365,67,l),
(365,-19,ls),
(365,-132,o),
(425,-180,o),
(558,-180,cs)
);
}
);
width = 878;
},
{
layerId = "C1DB0BE6-5704-4A8C-8C00-D80E72C16D98";
shapes = (
{
closed = 1;
nodes = (
(643,-12,o),
(807,147,o),
(807,373,cs),
(807,598,o),
(642,757,o),
(442,757,cs),
(242,757,o),
(77,599,o),
(77,373,cs),
(77,147,o),
(241,-12,o),
(442,-12,cs)
);
},
{
closed = 1;
nodes = (
(255,36,o),
(127,191,o),
(127,373,cs),
(127,552,o),
(254,709,o),
(442,709,cs),
(631,709,o),
(757,552,o),
(757,373,cs),
(757,191,o),
(629,36,o),
(442,36,cs)
);
},
{
closed = 1;
nodes = (
(758,-180,l),
(758,-140,l),
(589,-140,ls),
(510,-140,o),
(463,-96,o),
(463,-20,cs),
(463,12,l),
(418,12,l),
(418,-20,ls),
(418,-121,o),
(481,-180,o),
(587,-180,cs)
);
}
);
width = 884;
}
);
metricLeft = "=O";
metricRight = "=O";
},
{
glyphname = R;
lastChange = "2023-01-30 07:37:07 +0000";
layers = (
{
anchors = (
{
name = bottom;
pos = (315,0);
},
{
name = top;
pos = (315,745);
}
);
layerId = "30C2FD74-1A74-41AC-9C29-B288AE1DBDD7";
shapes = (
{
closed = 1;
nodes = (
(168,0,l),
(168,290,l),
(386,290,l),
(332,321,l),
(514,0,l),
(608,0,l),
(434,303,l),
(529,333,o),
(588,411,o),
(588,517,cs),
(588,653,o),
(490,745,o),
(344,745,cs),
(88,745,l),
(88,0,l)
);
},
{
closed = 1;
nodes = (
(168,670,l),
(348,670,ls),
(444,670,o),
(508,612,o),
(508,518,cs),
(508,423,o),
(444,365,o),
(348,365,cs),
(168,365,l)
);
}
);
width = 641;
},
{
anchors = (
{
name = bottom;
pos = (334,0);
},
{
name = top;
pos = (334,745);
}
);
layerId = "9398AC28-6BE1-4A79-9C94-3CBC2F226CE7";
shapes = (
{
closed = 1;
nodes = (
(221,0,l),
(221,270,l),
(398,270,l),
(298,329,l),
(482,0,l),
(656,0,l),
(486,297,l),
(565,333,o),
(615,405,o),
(615,507,cs),
(615,663,o),
(505,745,o),
(351,745,cs),
(66,745,l),
(66,0,l)
);
},
{
closed = 1;
nodes = (
(221,610,l),
(352,610,ls),
(417,610,o),
(460,569,o),
(460,507,cs),
(460,446,o),
(417,405,o),
(352,405,cs),
(221,405,l)
);
}
);
width = 667;
},
{
anchors = (
{
name = bottom;
pos = (312,0);
},
{
name = top;
pos = (312,745);
}
);
layerId = "C1DB0BE6-5704-4A8C-8C00-D80E72C16D98";
shapes = (
{
closed = 1;
nodes = (
(149,0,l),
(149,300,l),
(397,300,l),
(343,331,l),
(532,0,l),
(591,0,l),
(413,308,l),
(514,333,o),
(579,414,o),
(579,522,cs),
(579,654,o),
(482,745,o),
(343,745,cs),
(99,745,l),
(99,0,l)
);
},
{
closed = 1;
nodes = (
(149,700,l),
(343,700,ls),
(453,700,o),
(529,628,o),
(529,523,cs),
(529,418,o),
(452,345,o),
(343,345,cs),
(149,345,l)
);
}
);
width = 635;
}
);
unicode = 82;
},
{
glyphname = R.ss03;
lastChange = "2023-01-30 07:37:07 +0000";
layers = (
{
anchors = (
{
name = bottom;
pos = (316,0);
},
{
name = top;
pos = (316,745);
}
);
layerId = "30C2FD74-1A74-41AC-9C29-B288AE1DBDD7";
shapes = (
{
closed = 1;
nodes = (
(168,0,l),
(168,290,l),
(431,290,ls),
(473,290,o),
(497,271,o),
(497,230,cs),
(497,153,o),
(497,77,o),
(507,0,c),
(587,0,l),
(577,79,o),
(577,157,o),
(577,236,cs),
(577,301,o),
(545,339,o),
(488,351,c),
(493,330,l),
(553,369,o),
(588,435,o),
(588,517,cs),
(588,653,o),
(490,745,o),
(344,745,cs),
(88,745,l),
(88,0,l)
);
},
{
closed = 1;
nodes = (
(168,670,l),
(348,670,ls),
(444,670,o),
(508,612,o),
(508,518,cs),
(508,423,o),
(444,365,o),
(348,365,cs),
(168,365,l)
);
}
);
width = 643;
},
{
anchors = (
{
name = bottom;
pos = (324,0);
},
{
name = top;
pos = (324,745);
}
);
layerId = "9398AC28-6BE1-4A79-9C94-3CBC2F226CE7";
shapes = (
{
closed = 1;
nodes = (
(221,0,l),
(221,270,l),
(394,270,ls),
(437,270,o),
(460,249,o),
(460,209,cs),
(460,139,o),
(461,70,o),
(471,0,c),
(626,0,l),
(616,73,o),
(615,147,o),
(615,220,cs),
(615,299,o),
(584,346,o),
(518,368,c),
(528,319,l),
(583,361,o),
(616,424,o),
(616,507,cs),
(616,663,o),
(506,745,o),
(352,745,cs),
(66,745,l),
(66,0,l)
);
},
{
closed = 1;
nodes = (
(221,610,l),
(353,610,ls),
(418,610,o),
(461,569,o),
(461,507,cs),
(461,446,o),
(418,405,o),
(353,405,cs),
(221,405,l)
);
}
);
width = 670;
},
{
anchors = (
{
name = bottom;
pos = (323,0);
},
{
name = top;
pos = (323,745);
}
);
layerId = "C1DB0BE6-5704-4A8C-8C00-D80E72C16D98";
shapes = (
{
closed = 1;
nodes = (
(149,0,l),
(149,300,l),
(445,300,ls),
(489,300,o),
(511,280,o),
(511,240,cs),
(511,160,o),
(511,80,o),
(521,0,c),
(571,0,l),
(561,80,o),
(561,160,o),
(561,240,cs),
(561,302,o),
(527,340,o),
(453,341,c),
(462,326,l),
(535,362,o),
(579,432,o),
(579,522,cs),
(579,654,o),
(482,745,o),
(343,745,cs),
(99,745,l),
(99,0,l)
);
},
{
closed = 1;
nodes = (
(149,700,l),
(343,700,ls),
(453,700,o),
(529,628,o),
(529,523,cs),
(529,418,o),
(452,345,o),
(343,345,cs),
(149,345,l)
);
}
);
width = 656;
}
);
metricLeft = "=R";
},
{
glyphname = S;
lastChange = "2023-01-30 07:37:07 +0000";
layers = (
{
anchors = (
{
name = bottom;
pos = (339,0);
},
{
name = top;
pos = (323,745);
}
);
layerId = "30C2FD74-1A74-41AC-9C29-B288AE1DBDD7";
shapes = (
{
closed = 1;
nodes = (
(481,-12,o),
(580,71,o),
(580,191,cs),
(580,290,o),
(519,354,o),
(402,389,cs),
(284,424,ls),
(204,448,o),
(166,500,o),
(166,561,cs),
(166,637,o),
(224,685,o),
(310,685,cs),
(401,685,o),
(471,639,o),
(503,551,c),
(573,579,l),
(541,676,o),
(442,757,o),
(309,757,cs),
(180,757,o),
(86,673,o),
(86,555,cs),
(86,463,o),
(145,386,o),
(250,355,cs),
(384,315,ls),
(458,293,o),
(500,257,o),
(500,184,cs),
(500,109,o),
(435,60,o),
(339,60,cs),
(237,60,o),
(161,114,o),
(127,215,c),
(55,188,l),
(89,78,o),
(196,-12,o),
(339,-12,cs)
);
}
);
width = 646;
},
{
anchors = (
{
name = bottom;
pos = (337,0);
},
{
name = top;
pos = (318,745);
}
);
layerId = "9398AC28-6BE1-4A79-9C94-3CBC2F226CE7";
shapes = (
{
closed = 1;
nodes = (
(494,-12,o),
(603,80,o),
(603,211,cs),
(603,311,o),
(544,380,o),
(424,419,cs),
(281,465,ls),
(236,480,o),
(213,506,o),
(213,541,cs),
(213,589,o),
(255,622,o),
(318,622,cs),
(390,622,o),
(449,580,o),
(477,511,c),
(603,568,l),
(561,685,o),
(452,757,o),
(318,757,cs),
(165,757,o),
(60,666,o),
(60,535,cs),
(60,435,o),
(120,363,o),
(239,324,cs),
(385,276,ls),
(430,261,o),
(451,237,o),
(451,202,cs),
(451,154,o),
(410,123,o),
(347,123,cs),
(267,123,o),
(197,172,o),
(160,254,c),
(33,197,l),
(76,68,o),
(196,-12,o),
(337,-12,cs)
);
}
);
width = 647;
},
{
anchors = (
{
name = bottom;
pos = (331,0);
},
{
name = top;
pos = (320,745);
}
);
layerId = "C1DB0BE6-5704-4A8C-8C00-D80E72C16D98";
shapes = (
{
closed = 1;
nodes = (
(464,-12,o),
(562,68,o),
(562,183,cs),
(562,276,o),
(502,345,o),
(405,374,cs),
(279,412,ls),
(177,443,o),
(145,489,o),
(145,562,cs),
(145,655,o),
(217,714,o),
(310,714,cs),
(398,714,o),
(473,663,o),
(508,569,c),
(553,583,l),
(524,675,o),
(432,757,o),
(309,757,cs),
(190,757,o),
(97,678,o),
(97,563,cs),
(97,474,o),
(142,398,o),
(257,365,cs),
(396,325,ls),
(458,307,o),
(514,265,o),
(514,184,cs),
(514,88,o),
(436,31,o),
(331,31,cs),
(226,31,o),
(150,87,o),
(111,188,c),
(66,174,l),
(96,79,o),
(189,-12,o),
(332,-12,cs)
);
}
);
width = 639;
}
);
unicode = 83;
},
{
glyphname = Schwa;
lastChange = "2023-01-30 07:37:07 +0000";
layers = (
{
layerId = "C1DB0BE6-5704-4A8C-8C00-D80E72C16D98";
shapes = (
{
closed = 1;
nodes = (
(611,-12,o),
(767,156,o),
(767,371,cs),
(767,589,o),
(606,757,o),
(398,757,cs),
(262,757,o),
(140,686,o),
(87,582,c),
(128,560,l),
(181,652,o),
(283,709,o),
(398,709,cs),
(581,709,o),
(717,564,o),
(717,373,cs),
(717,184,o),
(580,36,o),
(409,36,cs),
(248,36,o),
(126,167,o),
(126,343,cs),
(126,346,o),
(126,351,o),
(126,354,c),
(109,342,l),
(751,342,l),
(751,388,l),
(81,388,l),
(78,368,o),
(77,355,o),
(77,338,cs),
(77,139,o),
(221,-12,o),
(410,-12,cs)
);
}
);
width = 844;
},
{
layerId = "30C2FD74-1A74-41AC-9C29-B288AE1DBDD7";
shapes = (
{
closed = 1;
nodes = (
(630,-12,o),
(766,164,o),
(766,369,cs),
(766,592,o),
(605,757,o),
(394,757,cs),
(256,757,o),
(134,686,o),
(83,581,c),
(154,545,l),
(199,630,o),
(288,682,o),
(394,682,cs),
(565,682,o),
(689,545,o),
(686,373,c),
(689,183,o),
(574,63,o),
(416,63,cs),
(263,63,o),
(155,170,o),
(155,315,cs),
(155,324,o),
(155,333,o),
(156,343,c),
(124,325,l),
(705,325,l),
(705,400,l),
(72,400,l),
(68,379,o),
(66,362,o),
(66,339,cs),
(66,140,o),
(210,-12,o),
(412,-12,cs)
);
}
);
width = 832;
},
{
layerId = "9398AC28-6BE1-4A79-9C94-3CBC2F226CE7";
shapes = (
{
closed = 1;
nodes = (
(608,-12,o),
(764,152,o),
(764,370,cs),
(764,585,o),
(611,757,o),
(385,757,cs),
(242,757,o),
(121,687,o),
(74,579,c),
(201,518,l),
(237,581,o),
(301,617,o),
(383,617,cs),
(521,617,o),
(615,517,o),
(608,372,c),
(615,222,o),
(522,128,o),
(399,128,cs),
(289,128,o),
(211,206,o),
(211,313,cs),
(211,326,o),
(212,339,o),
(214,352,c),
(141,297,l),
(636,297,l),
(636,417,l),
(51,417,l),
(46,395,o),
(44,371,o),
(44,347,cs),
(44,134,o),
(191,-12,o),
(394,-12,cs)
);
}
);
width = 808;
}
);
metricLeft = "=O";
metricRight = "=O";
unicode = 399;
},
{
glyphname = T;
lastChange = "2023-01-30 07:37:07 +0000";
layers = (
{
anchors = (
{
name = bottom;
pos = (256,0);
},
{
name = center;
pos = (256,373);
},
{
name = top;
pos = (256,745);
}
);
layerId = "30C2FD74-1A74-41AC-9C29-B288AE1DBDD7";
shapes = (
{
closed = 1;
nodes = (
(297,0,l),
(297,670,l),
(501,670,l),
(501,745,l),
(11,745,l),
(11,670,l),
(217,670,l),
(217,0,l)
);
}
);
width = 512;
},
{
anchors = (
{
name = bottom;
pos = (276,0);
},
{
name = center;
pos = (276,373);
},
{
name = top;
pos = (276,745);
}
);
layerId = "9398AC28-6BE1-4A79-9C94-3CBC2F226CE7";
shapes = (
{
closed = 1;
nodes = (
(355,0,l),
(355,610,l),
(541,610,l),
(541,745,l),
(11,745,l),
(11,610,l),
(200,610,l),
(200,0,l)
);
}
);
width = 552;
},
{
anchors = (
{
name = bottom;
pos = (257,0);
},
{
name = center;
pos = (257,373);
},
{
name = top;
pos = (257,745);
}
);
layerId = "C1DB0BE6-5704-4A8C-8C00-D80E72C16D98";
shapes = (
{
closed = 1;
nodes = (
(283,0,l),
(283,700,l),
(492,700,l),
(492,745,l),
(22,745,l),
(22,700,l),
(233,700,l),
(233,0,l)
);
}
);
width = 514;
}
);
unicode = 84;
},
{
glyphname = U;
lastChange = "2023-01-30 07:37:07 +0000";
layers = (
{
anchors = (
{
name = bottom;
pos = (350,0);
},
{
name = ogonek;
pos = (370,0);
},
{
name = top;
pos = (350,745);
}
);
layerId = "30C2FD74-1A74-41AC-9C29-B288AE1DBDD7";
shapes = (
{
closed = 1;
nodes = (
(509,-12,o),
(615,95,o),
(615,243,cs),
(615,745,l),
(535,745,l),
(535,243,ls),
(535,135,o),
(460,63,o),
(350,63,cs),
(240,63,o),
(165,135,o),
(165,243,cs),
(165,745,l),
(85,745,l),
(85,243,ls),
(85,95,o),
(191,-12,o),
(350,-12,cs)
);
}
);
width = 700;
},
{
anchors = (
{
name = bottom;
pos = (362,0);
},
{
name = ogonek;
pos = (382,0);
},
{
name = top;
pos = (362,745);
}
);
layerId = "9398AC28-6BE1-4A79-9C94-3CBC2F226CE7";
shapes = (
{
closed = 1;
nodes = (
(538,-12,o),
(667,109,o),
(667,273,cs),
(667,745,l),
(512,745,l),
(512,283,ls),
(512,194,o),
(449,128,o),
(362,128,cs),
(275,128,o),
(212,194,o),
(212,283,cs),
(212,745,l),
(57,745,l),
(57,273,ls),
(57,109,o),
(186,-12,o),
(362,-12,cs)
);
}
);
width = 724;
},
{
anchors = (
{
name = bottom;
pos = (345,0);
},
{
name = ogonek;
pos = (365,0);
},
{
name = top;
pos = (345,745);
}
);
layerId = "C1DB0BE6-5704-4A8C-8C00-D80E72C16D98";
shapes = (
{
closed = 1;
nodes = (
(494,-12,o),
(595,93,o),
(595,251,cs),
(595,745,l),
(545,745,l),
(545,247,ls),
(545,121,o),
(464,33,o),
(345,33,cs),
(226,33,o),
(145,121,o),
(145,247,cs),
(145,745,l),
(95,745,l),
(95,251,ls),
(95,93,o),
(196,-12,o),
(345,-12,cs)
);
}
);
width = 690;
}
);
unicode = 85;
},
{
glyphname = U.ss01;
lastChange = "2023-01-30 07:37:07 +0000";
layers = (
{
anchors = (
{
name = bottom;
pos = (353,0);
},
{
name = ogonek;
pos = (373,0);
},
{
name = top;
pos = (353,745);
}
);
layerId = "30C2FD74-1A74-41AC-9C29-B288AE1DBDD7";
shapes = (
{
closed = 1;
nodes = (
(618,0,l),
(618,745,l),
(538,745,l),
(538,75,l),
(168,75,l),
(168,745,l),
(88,745,l),
(88,0,l)
);
}
);
width = 706;
},
{
anchors = (
{
name = bottom;
pos = (371,0);
},
{
name = ogonek;
pos = (391,0);
},
{
name = top;
pos = (371,745);
}
);
layerId = "9398AC28-6BE1-4A79-9C94-3CBC2F226CE7";
shapes = (
{
closed = 1;
nodes = (
(676,0,l),
(676,745,l),
(521,745,l),
(521,135,l),
(221,135,l),
(221,745,l),
(66,745,l),
(66,0,l)
);
}
);
width = 742;
},
{
anchors = (
{
name = bottom;
pos = (349,0);
},
{
name = ogonek;
pos = (369,0);
},
{
name = top;
pos = (349,745);
}
);
layerId = "C1DB0BE6-5704-4A8C-8C00-D80E72C16D98";
shapes = (
{
closed = 1;
nodes = (
(599,0,l),
(599,745,l),
(549,745,l),
(549,45,l),
(149,45,l),
(149,745,l),
(99,745,l),
(99,0,l)
);
}
);
width = 698;
}
);
metricLeft = "=H";
metricRight = "=H";
},
{
glyphname = Uhorn;
lastChange = "2023-01-30 07:37:07 +0000";
layers = (
{
anchors = (
{
name = bottom;
pos = (345,0);
},
{
name = ogonek;
pos = (621,10);
},
{
name = top;
pos = (345,745);
}
);
layerId = "C1DB0BE6-5704-4A8C-8C00-D80E72C16D98";
shapes = (
{
closed = 1;
nodes = (
(494,-12,o),
(595,93,o),
(595,251,cs),
(595,704,l),
(602,704,ls),
(652,704,o),
(687,738,o),
(687,794,cs),
(687,823,o),
(677,852,o),
(666,881,c),
(621,881,l),
(631,854,o),
(641,828,o),
(641,800,cs),
(641,761,o),
(620,745,o),
(588,745,cs,{
name = "🧨";
}),
(545,745,l),
(545,247,ls),
(545,121,o),
(464,33,o),
(345,33,cs),
(226,33,o),
(145,121,o),
(145,247,cs),
(145,745,l),
(95,745,l),
(95,251,ls),
(95,93,o),
(196,-12,o),
(345,-12,cs)
);
}
);
width = 690;
},
{
anchors = (
{
name = bottom;
pos = (350,0);
},
{
name = ogonek;
pos = (630,10);
},
{
name = top;
pos = (350,745);
}
);
layerId = "30C2FD74-1A74-41AC-9C29-B288AE1DBDD7";
shapes = (
{
closed = 1;
nodes = (
(509,-12,o),
(615,95,o),
(615,243,cs),
(615,671,l),
(622,671,ls),
(701,671,o),
(752,707,o),
(752,789,cs),
(752,824,o),
(741,851,o),
(727,877,c),
(635,877,l),
(648,850,o),
(658,825,o),
(658,797,cs),
(658,752,o),
(631,745,o),
(608,745,cs),
(535,745,l),
(535,243,ls),
(535,135,o),
(460,63,o),
(350,63,cs),
(240,63,o),
(165,135,o),
(165,243,cs),
(165,745,l),
(85,745,l),
(85,243,ls),
(85,95,o),
(191,-12,o),
(350,-12,cs)
);
}
);
width = 700;
},
{
anchors = (
{
name = bottom;
pos = (362,0);
},
{
name = ogonek;
pos = (652,10);
},
{
name = top;
pos = (362,745);
}
);
layerId = "9398AC28-6BE1-4A79-9C94-3CBC2F226CE7";
shapes = (
{
closed = 1;
nodes = (
(538,-12,o),
(667,109,o),
(667,273,cs),
(667,642,l),
(674,642,ls),
(764,642,o),
(817,685,o),
(817,781,cs),
(817,817,o),
(807,842,o),
(794,870,c),
(668,870,l),
(678,845,o),
(688,815,o),
(688,794,cs),
(688,750,o),
(663,745,o),
(648,745,cs),
(512,745,l),
(512,283,ls),
(512,194,o),
(449,128,o),
(362,128,cs),
(275,128,o),
(212,194,o),
(212,283,cs),
(212,745,l),
(57,745,l),
(57,273,ls),
(57,109,o),
(186,-12,o),
(362,-12,cs)
);
}
);
width = 724;
}
);
metricLeft = "=U";
unicode = 431;
},
{
glyphname = Uhorn.ss01;
lastChange = "2023-01-30 07:37:07 +0000";
layers = (
{
anchors = (
{
name = bottom;
pos = (353,0);
},
{
name = top;
pos = (353,745);
}
);
layerId = "30C2FD74-1A74-41AC-9C29-B288AE1DBDD7";
shapes = (
{
closed = 1;
nodes = (
(618,0,l),
(618,671,l),
(622,671,ls),
(701,671,o),
(752,707,o),
(752,789,cs),
(752,824,o),
(741,851,o),
(727,877,c),
(635,877,l),
(648,850,o),
(658,825,o),
(658,797,cs),
(658,752,o),
(631,745,o),
(608,745,cs),
(538,745,l),
(538,75,l),
(168,75,l),
(168,745,l),
(88,745,l),
(88,0,l)
);
}
);
width = 700;
},
{
anchors = (
{
name = bottom;
pos = (371,0);
},
{
name = top;
pos = (371,745);
}
);
layerId = "9398AC28-6BE1-4A79-9C94-3CBC2F226CE7";
shapes = (
{
closed = 1;
nodes = (
(676,0,l),
(676,642,l),
(683,642,ls),
(767,642,o),
(826,685,o),
(826,781,cs),
(826,817,o),
(816,842,o),
(803,870,c),
(677,870,l),
(687,845,o),
(697,815,o),
(697,794,cs),
(697,750,o),
(672,745,o),
(657,745,cs),
(521,745,l),
(521,135,l),
(221,135,l),
(221,745,l),
(66,745,l),
(66,0,l)
);
}
);
width = 733;
},
{
anchors = (
{
name = bottom;
pos = (349,0);
},
{
name = top;
pos = (349,745);
}
);
layerId = "C1DB0BE6-5704-4A8C-8C00-D80E72C16D98";
shapes = (
{
closed = 1;
nodes = (
(599,0,l),
(599,704,l),
(605,704,ls),
(661,704,o),
(691,735,o),
(691,794,cs),
(691,823,o),
(681,852,o),
(670,881,c),
(625,881,l),
(635,854,o),
(645,828,o),
(645,800,cs),
(645,761,o),
(624,745,o),
(592,745,cs),
(549,745,l),
(549,45,l),
(149,45,l),
(149,745,l),
(99,745,l),
(99,0,l)
);
}
);
width = 694;
}
);
metricLeft = "=H";
metricRight = "=Uhorn";
},
{
glyphname = V;
lastChange = "2023-01-30 07:37:07 +0000";
layers = (
{
anchors = (
{
name = bottom;
pos = (326,0);
},
{
name = top;
pos = (326,745);
}
);
layerId = "30C2FD74-1A74-41AC-9C29-B288AE1DBDD7";
shapes = (
{
closed = 1;
nodes = (
(368,0,l),
(641,745,l),
(557,745,l),
(318,71,l),
(334,71,l),
(94,745,l),
(11,745,l),
(284,0,l)
);
}
);
width = 652;
},
{
anchors = (
{
name = bottom;
pos = (356,0);
},
{
name = top;
pos = (356,745);
}
);
layerId = "9398AC28-6BE1-4A79-9C94-3CBC2F226CE7";
shapes = (
{
closed = 1;
nodes = (
(446,0,l),
(701,745,l),
(531,745,l),
(339,147,l),
(373,147,l),
(181,745,l),
(11,745,l),
(266,0,l)
);
}
);
width = 712;
},
{
anchors = (
{
name = bottom;
pos = (327,0);
},
{
name = top;
pos = (327,745);
}
);
layerId = "C1DB0BE6-5704-4A8C-8C00-D80E72C16D98";
shapes = (
{
closed = 1;
nodes = (
(351,0,l),
(632,745,l),
(577,745,l),
(317,46,l),
(338,46,l),
(77,745,l),
(22,745,l),
(303,0,l)
);
}
);
width = 654;
}
);
unicode = 86;
},
{
glyphname = W;
lastChange = "2023-01-30 07:37:07 +0000";
layers = (
{
anchors = (
{
name = bottom;
pos = (492,0);
},
{
name = top;
pos = (492,745);
}
);
layerId = "30C2FD74-1A74-41AC-9C29-B288AE1DBDD7";
shapes = (
{
closed = 1;
nodes = (
(310,0,l),
(501,670,l),
(483,670,l),
(674,0,l),
(759,0,l),
(973,745,l),
(892,745,l),
(706,78,l),
(724,78,l),
(535,745,l),
(450,745,l),
(260,78,l),
(277,78,l),
(92,745,l),
(11,745,l),
(225,0,l)
);
}
);
width = 984;
},
{
anchors = (
{
name = bottom;
pos = (516,0);
},
{
name = top;
pos = (516,745);
}
);
layerId = "9398AC28-6BE1-4A79-9C94-3CBC2F226CE7";
shapes = (
{
closed = 1;
nodes = (
(386,0,l),
(542,600,l),
(490,600,l),
(646,0,l),
(826,0,l),
(1021,745,l),
(853,745,l),
(706,121,l),
(751,121,l),
(596,745,l),
(436,745,l),
(281,121,l),
(326,121,l),
(179,745,l),
(11,745,l),
(206,0,l)
);
}
);
width = 1032;
},
{
anchors = (
{
name = bottom;
pos = (494,0);
},
{
name = top;
pos = (494,745);
}
);
layerId = "C1DB0BE6-5704-4A8C-8C00-D80E72C16D98";
shapes = (
{
closed = 1;
nodes = (
(293,0,l),
(508,706,l),
(480,706,l),
(695,0,l),
(743,0,l),
(966,745,l),
(912,745,l),
(706,44,l),
(732,45,l),
(518,745,l),
(470,745,l),
(256,45,l),
(282,44,l),
(76,745,l),
(22,745,l),
(245,0,l)
);
}
);
width = 988;
}
);
unicode = 87;
},
{
glyphname = X;
lastChange = "2023-01-30 07:37:07 +0000";
layers = (
{
anchors = (
{
name = bottom;
pos = (299,0);
},
{
name = top;
pos = (299,745);
}
);
layerId = "30C2FD74-1A74-41AC-9C29-B288AE1DBDD7";
shapes = (
{
closed = 1;
nodes = (
(99,0,l),
(312,332,l),
(285,332,l),
(496,0,l),
(586,0,l),
(343,380,l),
(577,745,l),
(487,745,l),
(285,427,l),
(312,427,l),
(109,745,l),
(19,745,l),
(253,380,l),
(11,0,l)
);
}
);
width = 597;
},
{
anchors = (
{
name = bottom;
pos = (341,0);
},
{
name = top;
pos = (341,745);
}
);
layerId = "9398AC28-6BE1-4A79-9C94-3CBC2F226CE7";
shapes = (
{
closed = 1;
nodes = (
(189,0,l),
(385,298,l),
(298,299,l),
(493,0,l),
(671,0,l),
(428,373,l),
(671,745,l),
(493,745,l),
(298,447,l),
(385,447,l),
(189,745,l),
(11,745,l),
(255,373,l),
(11,0,l)
);
}
);
width = 682;
},
{
anchors = (
{
name = bottom;
pos = (295,0);
},
{
name = top;
pos = (295,745);
}
);
layerId = "C1DB0BE6-5704-4A8C-8C00-D80E72C16D98";
shapes = (
{
closed = 1;
nodes = (
(84,0,l),
(298,343,l),
(290,343,l),
(505,0,l),
(567,0,l),
(325,382,l),
(555,745,l),
(494,745,l),
(291,421,l),
(298,421,l),
(94,745,l),
(32,745,l),
(262,382,l),
(22,0,l)
);
}
);
width = 589;
}
);
unicode = 88;
},
{
glyphname = Y;
lastChange = "2023-01-30 07:37:07 +0000";
layers = (
{
anchors = (
{
name = bottom;
pos = (312,0);
},
{
name = top;
pos = (312,745);
}
);
layerId = "30C2FD74-1A74-41AC-9C29-B288AE1DBDD7";
shapes = (
{
closed = 1;
nodes = (
(352,0,l),
(352,346,l),
(612,745,l),
(523,745,l),
(296,398,l),
(328,398,l),
(100,745,l),
(11,745,l),
(272,346,l),
(272,0,l)
);
}
);
width = 623;
},
{
anchors = (
{
name = bottom;
pos = (336,0);
},
{
name = top;
pos = (336,745);
}
);
layerId = "9398AC28-6BE1-4A79-9C94-3CBC2F226CE7";
shapes = (
{
closed = 1;
nodes = (
(414,0,l),
(414,326,l),
(661,745,l),
(484,745,l),
(305,429,l),
(368,429,l),
(188,745,l),
(11,745,l),
(259,325,l),
(259,0,l)
);
}
);
width = 672;
},
{
anchors = (
{
name = bottom;
pos = (312,0);
},
{
name = top;
pos = (312,745);
}
);
layerId = "C1DB0BE6-5704-4A8C-8C00-D80E72C16D98";
shapes = (
{
closed = 1;
nodes = (
(337,0,l),
(337,333,l),
(602,745,l),
(545,745,l),
(300,369,l),
(326,369,l),
(79,745,l),
(22,745,l),
(287,333,l),
(287,0,l)
);
}
);
width = 624;
}
);
unicode = 89;
},
{
glyphname = Z;
lastChange = "2023-01-30 07:37:07 +0000";
layers = (
{
anchors = (
{
name = bottom;
pos = (292,0);
},
{
name = center;
pos = (292,373);
},
{
name = top;
pos = (292,745);
}
);
layerId = "30C2FD74-1A74-41AC-9C29-B288AE1DBDD7";
shapes = (
{
closed = 1;
nodes = (
(562,0,l),
(562,75,l),
(128,75,l),
(553,691,l),
(553,745,l),
(47,745,l),
(47,670,l),
(448,670,l),
(22,54,l),
(22,0,l)
);
}
);
width = 584;
},
{
anchors = (
{
name = bottom;
pos = (284,0);
},
{
name = center;
pos = (284,373);
},
{
name = top;
pos = (284,745);
}
);
layerId = "9398AC28-6BE1-4A79-9C94-3CBC2F226CE7";
shapes = (
{
closed = 1;
nodes = (
(556,0,l),
(556,135,l),
(208,135,l),
(546,620,l),
(546,745,l),
(31,745,l),
(31,610,l),
(350,610,l),
(11,125,l),
(11,0,l)
);
}
);
width = 567;
},
{
anchors = (
{
name = bottom;
pos = (303,0);
},
{
name = center;
pos = (303,373);
},
{
name = top;
pos = (303,745);
}
);
layerId = "C1DB0BE6-5704-4A8C-8C00-D80E72C16D98";
shapes = (
{
closed = 1;
nodes = (
(573,0,l),
(573,45,l),
(102,45,l),
(563,715,l),
(563,745,l),
(60,745,l),
(60,700,l),
(495,700,l),
(33,30,l),
(33,0,l)
);
}
);
width = 606;
}
);
unicode = 90;
},
{
glyphname = a;
lastChange = "2023-01-30 07:37:07 +0000";
layers = (
{
anchors = (
{
name = bottom;
pos = (286,0);
},
{
name = ogonek;
pos = (458,0);
},
{
name = top;
pos = (294,536);
}
);
layerId = "30C2FD74-1A74-41AC-9C29-B288AE1DBDD7";
shapes = (
{
closed = 1;
nodes = (
(325,-12,o),
(402,35,o),
(431,96,c),
(420,107,l),
(420,0,l),
(495,0,l),
(495,368,ls),
(495,474,o),
(412,548,o),
(294,548,cs),
(204,548,o),
(115,493,o),
(85,425,c),
(153,388,l),
(177,440,o),
(228,476,o),
(294,476,cs),
(368,476,o),
(420,432,o),
(420,368,cs),
(420,232,ls),
(420,133,o),
(346,56,o),
(237,56,cs),
(177,56,o),
(135,94,o),
(135,142,cs),
(135,191,o),
(166,230,o),
(244,243,cs),
(436,275,l),
(436,343,l),
(226,308,ls),
(107,288,o),
(55,222,o),
(55,139,cs),
(55,51,o),
(130,-12,o),
(232,-12,cs)
);
}
);
width = 572;
},
{
anchors = (
{
name = bottom;
pos = (292,0);
},
{
name = ogonek;
pos = (508,0);
},
{
name = top;
pos = (295,546);
}
);
layerId = "9398AC28-6BE1-4A79-9C94-3CBC2F226CE7";
shapes = (
{
closed = 1;
nodes = (
(312,-12,o),
(374,21,o),
(422,94,c),
(388,88,l),
(388,0,l),
(528,0,l),
(528,360,ls),
(528,477,o),
(432,558,o),
(294,558,cs),
(178,558,o),
(84,501,o),
(52,410,c),
(172,353,l),
(190,401,o),
(233,433,o),
(287,433,cs),
(343,433,o),
(378,401,o),
(378,360,cs),
(378,218,ls),
(378,151,o),
(328,98,o),
(254,98,cs),
(216,98,o),
(188,117,o),
(188,151,cs),
(188,187,o),
(211,205,o),
(254,213,cs),
(394,238,l),
(394,348,l),
(227,321,ls),
(96,300,o),
(33,238,o),
(33,146,cs),
(33,47,o),
(106,-12,o),
(224,-12,cs)
);
}
);
width = 583;
},
{
anchors = (
{
name = bottom;
pos = (287,0);
},
{
name = ogonek;
pos = (464,0);
},
{
name = top;
pos = (293,526);
}
);
layerId = "C1DB0BE6-5704-4A8C-8C00-D80E72C16D98";
shapes = (
{
closed = 1;
nodes = (
(339,-12,o),
(418,49,o),
(445,115,c),
(441,115,l),
(441,0,l),
(486,0,l),
(486,365,ls),
(486,466,o),
(406,538,o),
(293,538,cs),
(199,538,o),
(122,484,o),
(92,425,c),
(132,404,l),
(164,459,o),
(225,495,o),
(293,495,cs),
(382,495,o),
(441,444,o),
(441,365,cs),
(441,238,ls),
(441,127,o),
(362,30,o),
(241,30,cs),
(168,30,o),
(112,71,o),
(112,138,cs),
(112,194,o),
(148,242,o),
(252,259,cs),
(457,293,l),
(457,336,l),
(237,299,ls),
(110,278,o),
(66,208,o),
(66,136,cs),
(66,47,o),
(141,-12,o),
(237,-12,cs)
);
}
);
width = 574;
}
);
unicode = 97;
},
{
glyphname = a.ss01;
lastChange = "2023-01-30 07:37:07 +0000";
layers = (
{
anchors = (
{
name = bottom;
pos = (286,0);
},
{
name = ogonek;
pos = (458,0);
},
{
name = top;
pos = (286,536);
}
);
layerId = "30C2FD74-1A74-41AC-9C29-B288AE1DBDD7";
shapes = (
{
closed = 1;
nodes = (
(325,-12,o),
(402,35,o),
(431,96,c),
(420,107,l),
(420,0,l),
(495,0,l),
(495,536,l),
(105,536,l),
(105,461,l),
(420,461,l),
(420,232,ls),
(420,133,o),
(346,56,o),
(237,56,cs),
(177,56,o),
(135,94,o),
(135,142,cs),
(135,191,o),
(166,230,o),
(244,243,cs),
(436,275,l),
(436,343,l),
(226,308,ls),
(107,288,o),
(55,222,o),
(55,139,cs),
(55,51,o),
(130,-12,o),
(232,-12,cs)
);
}
);
width = 572;
},
{
anchors = (
{
name = bottom;
pos = (292,0);
},
{
name = ogonek;
pos = (508,0);
},
{
name = top;
pos = (292,546);
}
);
layerId = "9398AC28-6BE1-4A79-9C94-3CBC2F226CE7";
shapes = (
{
closed = 1;
nodes = (
(312,-12,o),
(374,21,o),
(422,94,c),
(388,88,l),
(388,0,l),
(528,0,l),
(528,546,l),
(93,546,l),
(93,416,l),
(378,416,l),
(378,218,ls),
(378,151,o),
(328,98,o),
(254,98,cs),
(216,98,o),
(188,117,o),
(188,151,cs),
(188,187,o),
(211,205,o),
(254,213,cs),
(394,238,l),
(394,348,l),
(227,321,ls),
(96,300,o),
(33,238,o),
(33,146,cs),
(33,47,o),
(106,-12,o),
(224,-12,cs)
);
}
);
width = 583;
},
{
anchors = (
{
name = bottom;
pos = (287,0);
},
{
name = ogonek;
pos = (463,0);
},
{
name = top;
pos = (287,526);
}
);
layerId = "C1DB0BE6-5704-4A8C-8C00-D80E72C16D98";
shapes = (
{
closed = 1;
nodes = (
(339,-12,o),
(418,49,o),
(445,115,c),
(440,115,l),
(440,0,l),
(486,0,l),
(486,526,l),
(112,526,l),
(112,486,l),
(441,486,l),
(441,238,ls),
(441,127,o),
(362,30,o),
(241,30,cs),
(168,30,o),
(112,71,o),
(112,138,cs),
(112,194,o),
(148,242,o),
(252,259,cs),
(457,293,l),
(457,336,l),
(237,299,ls),
(110,278,o),
(66,208,o),
(66,136,cs),
(66,47,o),
(141,-12,o),
(237,-12,cs)
);
}
);
width = 574;
}
);
metricLeft = "=a";
metricRight = "=|n";
},
{
glyphname = a.ss02;
lastChange = "2023-01-30 07:37:07 +0000";
layers = (
{
anchors = (
{
name = bottom;
pos = (286,0);
},
{
name = ogonek;
pos = (458,0);
},
{
name = top;
pos = (286,536);
}
);
layerId = "30C2FD74-1A74-41AC-9C29-B288AE1DBDD7";
shapes = (
{
closed = 1;
nodes = (
(325,-12,o),
(402,35,o),
(431,96,c),
(420,107,l),
(420,0,l),
(555,0,l),
(555,70,l),
(495,70,l),
(495,368,ls),
(495,474,o),
(412,548,o),
(294,548,cs),
(204,548,o),
(115,493,o),
(85,425,c),
(153,388,l),
(177,440,o),
(228,476,o),
(294,476,cs),
(368,476,o),
(420,432,o),
(420,368,cs),
(420,232,ls),
(420,133,o),
(346,56,o),
(237,56,cs),
(177,56,o),
(135,94,o),
(135,142,cs),
(135,191,o),
(166,230,o),
(244,243,cs),
(436,275,l),
(436,343,l),
(226,308,ls),
(107,288,o),
(55,222,o),
(55,139,cs),
(55,51,o),
(130,-12,o),
(232,-12,cs)
);
}
);
width = 594;
},
{
anchors = (
{
name = bottom;
pos = (292,0);
},
{
name = ogonek;
pos = (508,0);
},
{
name = top;
pos = (292,546);
}
);
layerId = "9398AC28-6BE1-4A79-9C94-3CBC2F226CE7";
shapes = (
{
closed = 1;
nodes = (
(312,-12,o),
(374,21,o),
(422,94,c),
(388,88,l),
(388,0,l),
(588,0,l),
(588,120,l),
(528,120,l),
(528,360,ls),
(528,477,o),
(432,558,o),
(294,558,cs),
(178,558,o),
(84,501,o),
(52,410,c),
(172,353,l),
(190,401,o),
(233,433,o),
(287,433,cs),
(343,433,o),
(378,401,o),
(378,360,cs),
(378,218,ls),
(378,151,o),
(328,98,o),
(254,98,cs),
(216,98,o),
(188,117,o),
(188,151,cs),
(188,187,o),
(211,205,o),
(254,213,cs),
(394,238,l),
(394,348,l),
(227,321,ls),
(96,300,o),
(33,238,o),
(33,146,cs),
(33,47,o),
(106,-12,o),
(224,-12,cs)
);
}
);
width = 616;
},
{
anchors = (
{
name = bottom;
pos = (287,0);
},
{
name = ogonek;
pos = (463,0);
},
{
name = top;
pos = (287,526);
}
);
layerId = "C1DB0BE6-5704-4A8C-8C00-D80E72C16D98";
shapes = (
{
closed = 1;
nodes = (
(339,-12,o),
(418,49,o),
(445,115,c),
(440,115,l),
(440,0,l),
(546,0,l),
(546,40,l),
(486,40,l),
(486,365,ls),
(486,466,o),
(406,538,o),
(293,538,cs),
(199,538,o),
(122,484,o),
(92,425,c),
(132,404,l),
(164,459,o),
(225,495,o),
(293,495,cs),
(382,495,o),
(440,444,o),
(440,365,cs),
(440,238,ls),
(440,127,o),
(362,30,o),
(241,30,cs),
(168,30,o),
(112,71,o),
(112,138,cs),
(112,194,o),
(148,242,o),
(252,259,cs),
(457,293,l),
(457,336,l),
(237,299,ls),
(110,278,o),
(66,208,o),
(66,136,cs),
(66,47,o),
(141,-12,o),
(237,-12,cs)
);
}
);
width = 590;
}
);
metricLeft = "=a";
metricRight = "=l/2";
},
{
glyphname = a.ss03;
lastChange = "2023-01-30 07:37:07 +0000";
layers = (
{
anchors = (
{
name = bottom;
pos = (286,0);
},
{
name = ogonek;
pos = (458,0);
},
{
name = top;
pos = (286,536);
}
);
layerId = "30C2FD74-1A74-41AC-9C29-B288AE1DBDD7";
shapes = (
{
closed = 1;
nodes = (
(325,-12,o),
(402,35,o),
(431,96,c),
(420,107,l),
(420,0,l),
(495,0,l),
(495,327,ls),
(495,458,o),
(416,536,o),
(283,536,cs),
(105,536,l),
(105,461,l),
(283,461,ls),
(369,461,o),
(420,411,o),
(420,327,cs),
(420,232,ls),
(420,133,o),
(346,56,o),
(237,56,cs),
(177,56,o),
(135,94,o),
(135,142,cs),
(135,191,o),
(166,230,o),
(244,243,cs),
(436,275,l),
(436,343,l),
(226,308,ls),
(107,288,o),
(55,222,o),
(55,139,cs),
(55,51,o),
(130,-12,o),
(232,-12,cs)
);
}
);
width = 572;
},
{
anchors = (
{
name = bottom;
pos = (292,0);
},
{
name = ogonek;
pos = (508,0);
},
{
name = top;
pos = (292,546);
}
);
layerId = "9398AC28-6BE1-4A79-9C94-3CBC2F226CE7";
shapes = (
{
closed = 1;
nodes = (
(312,-12,o),
(374,21,o),
(422,94,c),
(388,88,l),
(388,0,l),
(528,0,l),
(528,332,ls),
(528,464,o),
(436,546,o),
(287,546,cs),
(93,546,l),
(93,416,l),
(277,416,ls),
(342,416,o),
(378,380,o),
(378,324,cs),
(378,218,ls),
(378,151,o),
(328,98,o),
(254,98,cs),
(216,98,o),
(188,117,o),
(188,151,cs),
(188,187,o),
(211,205,o),
(254,213,cs),
(394,238,l),
(394,348,l),
(227,321,ls),
(96,300,o),
(33,238,o),
(33,146,cs),
(33,47,o),
(106,-12,o),
(224,-12,cs)
);
}
);
width = 583;
},
{
anchors = (
{
name = bottom;
pos = (287,0);
},
{
name = ogonek;
pos = (464,0);
},
{
name = top;
pos = (287,526);
}
);
layerId = "C1DB0BE6-5704-4A8C-8C00-D80E72C16D98";
shapes = (
{
closed = 1;
nodes = (
(339,-12,o),
(418,49,o),
(445,115,c),
(441,115,l),
(441,0,l),
(486,0,l),
(486,337,ls),
(486,450,o),
(410,526,o),
(297,526,cs),
(112,526,l),
(112,486,l),
(297,486,ls),
(383,486,o),
(441,426,o),
(441,337,cs),
(441,238,ls),
(441,127,o),
(362,30,o),
(241,30,cs),
(168,30,o),
(112,71,o),
(112,138,cs),
(112,194,o),
(148,242,o),
(252,259,cs),
(457,293,l),
(457,336,l),
(237,299,ls),
(110,278,o),
(66,208,o),
(66,136,cs),
(66,47,o),
(141,-12,o),
(237,-12,cs)
);
}
);
width = 574;
}
);
},
{
glyphname = ae;
lastChange = "2023-05-19 07:44:20 +0000";
layers = (
{
anchors = (
{
name = bottom;
pos = (492,0);
},
{
name = top;
pos = (492,536);
}
);
layerId = "30C2FD74-1A74-41AC-9C29-B288AE1DBDD7";
shapes = (
{
closed = 1;
nodes = (
(331,-12,o),
(419,31,o),
(471,161,c),
(445,162,l),
(508,25,o),
(595,-12,o),
(689,-12,cs),
(798,-12,o),
(884,49,o),
(917,122,c),
(853,156,l),
(819,100,o),
(767,58,o),
(689,58,cs),
(593,58,o),
(505,130,o),
(502,245,c),
(924,245,l),
(927,262,o),
(928,280,o),
(928,293,cs),
(928,421,o),
(835,548,o),
(681,548,cs),
(588,548,o),
(509,501,o),
(465,426,c),
(487,425,l),
(461,500,o),
(389,548,o),
(294,548,cs),
(204,548,o),
(115,493,o),
(85,425,c),
(153,388,l),
(177,440,o),
(228,476,o),
(294,476,cs),
(368,476,o),
(420,432,o),
(420,368,cs),
(420,340,l),
(226,308,ls),
(107,288,o),
(55,222,o),
(55,139,cs),
(55,51,o),
(130,-12,o),
(232,-12,cs)
);
},
{
closed = 1;
nodes = (
(177,56,o),
(135,94,o),
(135,142,cs),
(135,191,o),
(166,230,o),
(244,243,cs),
(420,272,l),
(420,232,ls),
(420,133,o),
(346,56,o),
(237,56,cs)
);
},
{
closed = 1;
nodes = (
(515,415,o),
(594,478,o),
(681,478,cs),
(771,478,o),
(847,410,o),
(847,315,c),
(504,315,l)
);
}
);
width = 983;
},
{
anchors = (
{
name = bottom;
pos = (481,0);
},
{
name = top;
pos = (481,546);
}
);
layerId = "9398AC28-6BE1-4A79-9C94-3CBC2F226CE7";
shapes = (
{
closed = 1;
nodes = (
(325,-12,o),
(414,17,o),
(484,141,c),
(418,141,l),
(490,13,o),
(585,-12,o),
(688,-12,cs),
(780,-12,o),
(870,41,o),
(903,121,c),
(783,178,l),
(762,141,o),
(723,118,o),
(670,118,cs),
(596,118,o),
(548,162,o),
(539,231,c),
(921,231,l),
(926,246,o),
(928,267,o),
(928,289,cs),
(928,440,o),
(831,558,o),
(658,558,cs),
(571,558,o),
(496,520,o),
(446,460,c),
(500,460,l),
(463,520,o),
(388,558,o),
(294,558,cs),
(178,558,o),
(84,501,o),
(52,410,c),
(172,353,l),
(190,401,o),
(233,433,o),
(287,433,cs),
(343,433,o),
(378,401,o),
(378,360,cs),
(378,345,l),
(227,321,ls),
(96,300,o),
(33,238,o),
(33,146,cs),
(33,47,o),
(106,-12,o),
(224,-12,cs)
);
},
{
closed = 1;
nodes = (
(216,98,o),
(188,117,o),
(188,151,cs),
(188,187,o),
(211,205,o),
(254,213,cs),
(378,235,l),
(378,218,ls),
(378,151,o),
(328,98,o),
(254,98,cs)
);
},
{
closed = 1;
nodes = (
(556,404,o),
(599,438,o),
(658,438,cs),
(720,438,o),
(763,399,o),
(769,341,c),
(542,341,l)
);
}
);
width = 961;
},
{
anchors = (
{
name = bottom;
pos = (501,0);
},
{
name = top;
pos = (501,526);
}
);
layerId = "C1DB0BE6-5704-4A8C-8C00-D80E72C16D98";
shapes = (
{
closed = 1;
nodes = (
(342,-12,o),
(430,57,o),
(469,160,c),
(456,156,l),
(510,37,o),
(604,-12,o),
(706,-12,cs),
(800,-12,o),
(882,36,o),
(921,113,c),
(883,133,l),
(846,68,o),
(782,30,o),
(706,30,cs),
(584,30,o),
(493,123,o),
(486,249,c),
(933,249,l),
(935,264,o),
(936,275,o),
(936,288,cs),
(936,430,o),
(833,538,o),
(696,538,cs),
(594,538,o),
(510,480,o),
(469,390,c),
(485,389,l),
(473,478,o),
(397,538,o),
(293,538,cs),
(199,538,o),
(122,484,o),
(92,425,c),
(132,404,l),
(164,459,o),
(225,495,o),
(293,495,cs),
(382,495,o),
(440,444,o),
(440,365,cs),
(440,333,l),
(237,299,ls),
(110,278,o),
(66,208,o),
(66,136,cs),
(66,47,o),
(141,-12,o),
(237,-12,cs)
);
},
{
closed = 1;
nodes = (
(168,30,o),
(112,71,o),
(112,138,cs),
(112,194,o),
(148,242,o),
(252,259,cs),
(440,290,l),
(440,238,ls),
(440,127,o),
(362,30,o),
(241,30,cs)
);
},
{
closed = 1;
nodes = (
(498,407,o),
(586,496,o),
(696,496,cs),
(806,496,o),
(890,406,o),
(890,289,c),
(487,289,l)
);
}
);
width = 1002;
}
);
metricLeft = "=a";
metricRight = "=e";
unicode = 230;
},
{
glyphname = b;
lastChange = "2023-01-30 07:37:07 +0000";
layers = (
{
anchors = (
{
name = bottom;
pos = (334,0);
},
{
name = top;
pos = (344,745);
}
);
layerId = "30C2FD74-1A74-41AC-9C29-B288AE1DBDD7";
shapes = (
{
closed = 1;
nodes = (
(499,-12,o),
(612,107,o),
(612,268,cs),
(612,429,o),
(500,548,o),
(348,548,cs),
(259,548,o),
(184,508,o),
(140,437,c),
(152,416,l),
(152,757,l),
(77,757,l),
(77,0,l),
(152,0,l),
(152,120,l),
(140,109,l),
(176,33,o),
(254,-12,o),
(348,-12,cs)
);
},
{
closed = 1;
nodes = (
(236,63,o),
(152,152,o),
(152,268,cs),
(152,384,o),
(236,473,o),
(344,473,cs),
(451,473,o),
(532,385,o),
(532,268,cs),
(532,151,o),
(452,63,o),
(344,63,cs)
);
}
);
width = 667;
},
{
anchors = (
{
name = bottom;
pos = (337,0);
},
{
name = top;
pos = (347,745);
}
);
layerId = "9398AC28-6BE1-4A79-9C94-3CBC2F226CE7";
shapes = (
{
closed = 1;
nodes = (
(519,-12,o),
(640,112,o),
(640,273,cs),
(640,433,o),
(518,558,o),
(362,558,cs),
(282,558,o),
(218,527,o),
(182,472,c),
(205,442,l),
(205,757,l),
(55,757,l),
(55,0,l),
(195,0,l),
(195,100,l),
(181,69,l),
(218,18,o),
(284,-12,o),
(361,-12,cs)
);
},
{
closed = 1;
nodes = (
(262,123,o),
(205,184,o),
(205,273,cs),
(205,361,o),
(262,423,o),
(343,423,cs),
(426,423,o),
(485,360,o),
(485,273,cs),
(485,185,o),
(426,123,o),
(343,123,cs)
);
}
);
width = 673;
},
{
anchors = (
{
name = bottom;
pos = (337,0);
},
{
name = top;
pos = (349,745);
}
);
layerId = "C1DB0BE6-5704-4A8C-8C00-D80E72C16D98";
shapes = (
{
closed = 1;
nodes = (
(496,-12,o),
(608,107,o),
(608,263,cs),
(608,419,o),
(496,538,o),
(349,538,cs),
(248,538,o),
(163,481,o),
(125,394,c),
(133,377,l),
(133,757,l),
(88,757,l),
(88,0,l),
(133,0,l),
(133,149,l),
(125,132,l),
(163,45,o),
(248,-12,o),
(349,-12,cs)
);
},
{
closed = 1;
nodes = (
(228,33,o),
(136,130,o),
(136,263,cs),
(136,396,o),
(228,493,o),
(349,493,cs),
(471,493,o),
(560,395,o),
(560,263,cs),
(560,131,o),
(471,33,o),
(349,33,cs)
);
}
);
width = 674;
}
);
unicode = 98;
},
{
glyphname = c;
lastChange = "2023-01-30 07:37:07 +0000";
layers = (
{
anchors = (
{
name = bottom;
pos = (322,0);
},
{
name = top;
pos = (322,536);
}
);
layerId = "30C2FD74-1A74-41AC-9C29-B288AE1DBDD7";
shapes = (
{
closed = 1;
nodes = (
(421,-12,o),
(510,47,o),
(545,125,c),
(477,162,l),
(449,102,o),
(393,63,o),
(322,63,cs),
(216,63,o),
(135,151,o),
(135,268,cs),
(135,386,o),
(216,473,o),
(322,473,cs),
(393,473,o),
(450,433,o),
(477,376,c),
(545,411,l),
(510,490,o),
(421,548,o),
(322,548,cs),
(164,548,o),
(55,429,o),
(55,269,cs),
(55,109,o),
(164,-12,o),
(322,-12,cs)
);
}
);
width = 600;
},
{
anchors = (
{
name = bottom;
pos = (323,0);
},
{
name = top;
pos = (323,546);
}
);
layerId = "9398AC28-6BE1-4A79-9C94-3CBC2F226CE7";
shapes = (
{
closed = 1;
nodes = (
(447,-12,o),
(547,58,o),
(578,155,c),
(448,212,l),
(429,157,o),
(383,123,o),
(323,123,cs),
(244,123,o),
(188,185,o),
(188,273,cs),
(188,361,o),
(244,423,o),
(323,423,cs),
(382,423,o),
(429,389,o),
(448,334,c),
(578,390,l),
(545,491,o),
(445,558,o),
(323,558,cs),
(158,558,o),
(33,436,o),
(33,274,cs),
(33,111,o),
(159,-12,o),
(323,-12,cs)
);
}
);
width = 611;
},
{
anchors = (
{
name = bottom;
pos = (328,0);
},
{
name = top;
pos = (328,526);
}
);
layerId = "C1DB0BE6-5704-4A8C-8C00-D80E72C16D98";
shapes = (
{
closed = 1;
nodes = (
(425,-12,o),
(505,42,o),
(541,113,c),
(503,133,l),
(466,67,o),
(404,30,o),
(328,30,cs),
(206,30,o),
(111,123,o),
(111,263,cs),
(111,403,o),
(206,496,o),
(328,496,cs),
(404,496,o),
(466,459,o),
(503,393,c),
(541,414,l),
(505,485,o),
(425,538,o),
(328,538,cs),
(181,538,o),
(66,420,o),
(66,263,cs),
(66,106,o),
(181,-12,o),
(328,-12,cs)
);
}
);
width = 607;
},
{
associatedMasterId = "C1DB0BE6-5704-4A8C-8C00-D80E72C16D98";
background = {
anchors = (
{
name = bottom;
pos = (298,0);
},
{
name = top;
pos = (272,526);
}
);
shapes = (
{
closed = 1;
nodes = (
(396,-12,o),
(482,48,o),
(515,121,c),
(451,156,l),
(423,97,o),
(369,58,o),
(298,58,cs),
(193,58,o),
(114,147,o),
(114,263,cs),
(114,381,o),
(193,468,o),
(298,468,cs),
(369,468,o),
(423,429,o),
(451,371,c),
(515,405,l),
(482,479,o),
(397,538,o),
(298,538,cs),
(149,538,o),
(39,422,o),
(39,264,cs),
(39,106,o),
(149,-12,o),
(298,-12,cs)
);
}
);
};
layerId = "3C2E8BAC-774F-42FA-A4EE-4D2E61E43219";
name = "Nov 23 20, 19:44";
shapes = (
{
closed = 1;
nodes = (
(400,-12,o),
(486,41,o),
(523,119,c),
(483,140,l),
(450,74,o),
(384,32,o),
(305,32,cs),
(182,32,o),
(90,130,o),
(90,263,cs),
(90,396,o),
(183,496,o),
(305,496,cs),
(382,496,o),
(450,451,o),
(482,386,c),
(523,407,l),
(486,485,o),
(401,538,o),
(305,538,cs),
(154,538,o),
(45,420,o),
(45,263,cs),
(45,108,o),
(155,-12,o),
(305,-12,cs)
);
}
);
width = 545;
}
);
unicode = 99;
},
{
glyphname = d;
lastChange = "2023-01-30 07:37:07 +0000";
layers = (
{
anchors = (
{
name = bottom;
pos = (334,0);
},
{
name = center;
pos = (553,640);
},
{
name = top;
pos = (323,745);
},
{
name = topright;
pos = (667,536);
}
);
layerId = "30C2FD74-1A74-41AC-9C29-B288AE1DBDD7";
shapes = (
{
closed = 1;
nodes = (
(411,-12,o),
(490,32,o),
(527,109,c),
(515,120,l),
(515,0,l),
(590,0,l),
(590,757,l),
(515,757,l),
(515,416,l),
(527,437,l),
(485,505,o),
(411,548,o),
(319,548,cs),
(167,548,o),
(55,429,o),
(55,268,cs),
(55,107,o),
(168,-12,o),
(319,-12,cs)
);
},
{
closed = 1;
nodes = (
(215,63,o),
(135,151,o),
(135,268,cs),
(135,385,o),
(216,473,o),
(323,473,cs),
(431,473,o),
(515,384,o),
(515,268,cs),
(515,152,o),
(431,63,o),
(323,63,cs)
);
}
);
width = 667;
},
{
anchors = (
{
name = bottom;
pos = (337,0);
},
{
name = center;
pos = (543,640);
},
{
name = top;
pos = (337,784);
},
{
name = topright;
pos = (673,546);
}
);
layerId = "9398AC28-6BE1-4A79-9C94-3CBC2F226CE7";
shapes = (
{
closed = 1;
nodes = (
(387,-12,o),
(454,16,o),
(492,69,c),
(478,100,l),
(478,0,l),
(618,0,l),
(618,757,l),
(468,757,l),
(468,442,l),
(491,472,l),
(455,527,o),
(391,558,o),
(311,558,cs),
(155,558,o),
(33,433,o),
(33,273,cs),
(33,114,o),
(152,-12,o),
(312,-12,cs)
);
},
{
closed = 1;
nodes = (
(247,123,o),
(188,185,o),
(188,273,cs),
(188,360,o),
(247,423,o),
(330,423,cs),
(411,423,o),
(468,361,o),
(468,273,cs),
(468,184,o),
(411,123,o),
(330,123,cs)
);
}
);
width = 673;
},
{
anchors = (
{
name = bottom;
pos = (337,0);
},
{
name = center;
pos = (564,640);
},
{
name = top;
pos = (326,745);
},
{
name = topright;
pos = (674,526);
}
);
layerId = "C1DB0BE6-5704-4A8C-8C00-D80E72C16D98";
shapes = (
{
closed = 1;
nodes = (
(426,-12,o),
(511,45,o),
(549,132,c),
(541,149,l),
(541,0,l),
(586,0,l),
(586,757,l),
(541,757,l),
(541,377,l),
(549,394,l),
(511,481,o),
(426,538,o),
(325,538,cs),
(178,538,o),
(66,419,o),
(66,263,cs),
(66,107,o),
(178,-12,o),
(325,-12,cs)
);
},
{
closed = 1;
nodes = (
(203,33,o),
(114,131,o),
(114,263,cs),
(114,395,o),
(203,493,o),
(325,493,cs),
(446,493,o),
(538,396,o),
(538,263,cs),
(538,130,o),
(446,33,o),
(325,33,cs)
);
}
);
width = 674;
}
);
unicode = 100;
},
{
glyphname = eth;
lastChange = "2023-01-30 07:37:07 +0000";
layers = (
{
layerId = "30C2FD74-1A74-41AC-9C29-B288AE1DBDD7";
shapes = (
{
closed = 1;
nodes = (
(477,-12,o),
(600,82,o),
(600,314,cs),
(600,554,o),
(465,795,o),
(198,795,cs),
(154,795,o),
(108,787,o),
(60,771,c),
(76,704,l),
(116,718,o),
(156,725,o),
(195,725,cs),
(368,725,o),
(512,581,o),
(508,394,c),
(528,438,l),
(482,515,o),
(396,538,o),
(327,538,cs),
(171,538,o),
(55,421,o),
(55,265,cs),
(55,107,o),
(173,-12,o),
(334,-12,cs)
);
},
{
closed = 1;
nodes = (
(223,63,o),
(135,149,o),
(135,264,cs),
(135,375,o),
(216,463,o),
(328,463,cs),
(441,463,o),
(520,375,o),
(520,266,cs),
(520,152,o),
(435,63,o),
(328,63,cs)
);
},
{
closed = 1;
nodes = (
(540,696,l),
(540,756,l),
(242,647,l),
(242,588,l)
);
}
);
width = 655;
},
{
layerId = "9398AC28-6BE1-4A79-9C94-3CBC2F226CE7";
shapes = (
{
closed = 1;
nodes = (
(497,-12,o),
(618,108,o),
(618,335,cs),
(618,581,o),
(463,796,o),
(227,796,cs),
(182,796,o),
(134,788,o),
(84,771,c),
(99,651,l),
(132,661,o),
(165,666,o),
(197,666,cs),
(333,666,o),
(450,587,o),
(459,436,c),
(482,476,l),
(432,524,o),
(387,548,o),
(316,548,cs),
(156,548,o),
(33,428,o),
(33,270,cs),
(33,104,o),
(168,-12,o),
(326,-12,cs)
);
},
{
closed = 1;
nodes = (
(246,123,o),
(188,183,o),
(188,269,cs),
(188,353,o),
(243,413,o),
(326,413,cs),
(411,413,o),
(463,350,o),
(463,269,cs),
(463,185,o),
(407,123,o),
(326,123,cs)
);
},
{
closed = 1;
nodes = (
(569,693,l),
(569,753,l),
(215,615,l),
(215,555,l)
);
}
);
width = 651;
},
{
layerId = "C1DB0BE6-5704-4A8C-8C00-D80E72C16D98";
shapes = (
{
closed = 1;
nodes = (
(482,-12,o),
(598,93,o),
(598,301,cs),
(598,532,o),
(455,796,o),
(196,796,cs),
(157,796,o),
(118,790,o),
(78,778,c),
(91,736,l),
(127,748,o),
(160,753,o),
(191,753,cs),
(399,753,o),
(548,527,o),
(548,348,c),
(568,364,l),
(518,488,o),
(422,528,o),
(332,528,cs),
(177,528,o),
(66,411,o),
(66,259,cs),
(66,106,o),
(179,-12,o),
(335,-12,cs)
);
},
{
closed = 1;
nodes = (
(212,31,o),
(114,129,o),
(114,259,cs),
(114,385,o),
(205,485,o),
(331,485,cs),
(457,485,o),
(548,385,o),
(548,260,cs),
(548,132,o),
(453,31,o),
(331,31,cs)
);
},
{
closed = 1;
nodes = (
(527,684,l),
(527,727,l),
(251,630,l),
(251,588,l)
);
}
);
width = 664;
}
);
metricLeft = "=o";
metricRight = "=o";
unicode = 240;
},
{
glyphname = e;
lastChange = "2023-01-30 07:37:07 +0000";
layers = (
{
anchors = (
{
name = bottom;
pos = (308,0);
},
{
name = ogonek;
pos = (321,0);
},
{
name = top;
pos = (308,536);
}
);
layerId = "30C2FD74-1A74-41AC-9C29-B288AE1DBDD7";
shapes = (
{
closed = 1;
nodes = (
(430,-12,o),
(516,49,o),
(549,122,c),
(485,156,l),
(451,100,o),
(399,58,o),
(321,58,cs),
(219,58,o),
(125,140,o),
(135,269,c),
(125,396,o),
(213,478,o),
(313,478,cs),
(412,478,o),
(494,395,o),
(477,285,c),
(513,315,l),
(103,315,l),
(103,245,l),
(556,245,l),
(559,262,o),
(560,280,o),
(560,293,cs),
(560,421,o),
(467,548,o),
(313,548,cs),
(166,548,o),
(55,431,o),
(55,270,cs),
(55,107,o),
(171,-12,o),
(321,-12,cs)
);
}
);
width = 615;
},
{
anchors = (
{
name = bottom;
pos = (306,0);
},
{
name = ogonek;
pos = (318,0);
},
{
name = top;
pos = (306,546);
}
);
layerId = "9398AC28-6BE1-4A79-9C94-3CBC2F226CE7";
shapes = (
{
closed = 1;
nodes = (
(430,-12,o),
(520,41,o),
(553,121,c),
(433,178,l),
(412,141,o),
(373,118,o),
(320,118,cs),
(232,118,o),
(180,181,o),
(188,273,c),
(181,379,o),
(230,438,o),
(308,438,cs),
(387,438,o),
(435,374,o),
(415,289,c),
(486,341,l),
(162,341,l),
(162,231,l),
(571,231,l),
(576,246,o),
(578,267,o),
(578,289,cs),
(578,440,o),
(481,558,o),
(308,558,cs),
(152,558,o),
(33,437,o),
(33,274,cs),
(33,116,o),
(145,-12,o),
(318,-12,cs)
);
}
);
width = 611;
},
{
anchors = (
{
name = bottom;
pos = (314,0);
},
{
name = ogonek;
pos = (331,0);
},
{
name = top;
pos = (314,526);
}
);
layerId = "C1DB0BE6-5704-4A8C-8C00-D80E72C16D98";
shapes = (
{
closed = 1;
nodes = (
(425,-12,o),
(507,36,o),
(546,113,c),
(508,133,l),
(471,68,o),
(407,30,o),
(331,30,cs),
(205,30,o),
(111,130,o),
(111,263,cs),
(111,394,o),
(203,496,o),
(321,496,cs),
(435,496,o),
(521,399,o),
(515,276,c),
(532,289,l),
(89,289,l),
(89,249,l),
(558,249,l),
(560,264,o),
(561,275,o),
(561,288,cs),
(561,430,o),
(458,538,o),
(321,538,cs),
(177,538,o),
(66,419,o),
(66,263,cs),
(66,108,o),
(181,-12,o),
(331,-12,cs)
);
}
);
width = 627;
}
);
unicode = 101;
},
{
glyphname = e.ss03;
lastChange = "2023-01-30 07:37:07 +0000";
layers = (
{
anchors = (
{
name = bottom;
pos = (308,0);
},
{
name = ogonek;
pos = (341,0);
},
{
name = top;
pos = (308,536);
}
);
layerId = "30C2FD74-1A74-41AC-9C29-B288AE1DBDD7";
shapes = (
{
closed = 1;
nodes = (
(530,-12,l),
(530,58,l),
(341,58,ls),
(219,58,o),
(125,140,o),
(135,269,c),
(125,396,o),
(213,478,o),
(313,478,cs),
(412,478,o),
(494,395,o),
(477,285,c),
(513,315,l),
(103,315,l),
(103,245,l),
(556,245,l),
(559,262,o),
(560,280,o),
(560,293,cs),
(560,421,o),
(467,548,o),
(313,548,cs),
(166,548,o),
(55,431,o),
(55,270,cs),
(55,107,o),
(171,-12,o),
(341,-12,cs)
);
}
);
width = 615;
},
{
anchors = (
{
name = bottom;
pos = (306,0);
},
{
name = ogonek;
pos = (318,0);
},
{
name = top;
pos = (306,546);
}
);
layerId = "9398AC28-6BE1-4A79-9C94-3CBC2F226CE7";
shapes = (
{
closed = 1;
nodes = (
(518,-12,l),
(518,118,l),
(318,118,ls),
(230,118,o),
(180,181,o),
(188,273,c),
(181,379,o),
(230,438,o),
(308,438,cs),
(387,438,o),
(435,374,o),
(415,289,c),
(486,341,l),
(162,341,l),
(162,231,l),
(571,231,l),
(576,246,o),
(578,267,o),
(578,289,cs),
(578,440,o),
(481,558,o),
(308,558,cs),
(152,558,o),
(33,437,o),
(33,274,cs),
(33,116,o),
(145,-12,o),
(318,-12,cs)
);
}
);
width = 611;
},
{
anchors = (
{
name = bottom;
pos = (314,0);
},
{
name = ogonek;
pos = (331,0);
},
{
name = top;
pos = (314,526);
}
);
layerId = "C1DB0BE6-5704-4A8C-8C00-D80E72C16D98";
shapes = (
{
closed = 1;
nodes = (
(518,-12,l),
(518,30,l),
(331,30,ls),
(205,30,o),
(111,130,o),
(111,263,cs),
(111,394,o),
(203,496,o),
(321,496,cs),
(435,496,o),
(521,399,o),
(515,276,c),
(532,289,l),
(89,289,l),
(89,249,l),
(558,249,l),
(560,264,o),
(561,275,o),
(561,288,cs),
(561,430,o),
(458,538,o),
(321,538,cs),
(177,538,o),
(66,419,o),
(66,263,cs),
(66,108,o),
(181,-12,o),
(331,-12,cs)
);
}
);
width = 627;
}
);
},
{
glyphname = schwa;
lastChange = "2023-01-30 07:37:07 +0000";
layers = (
{
layerId = "C1DB0BE6-5704-4A8C-8C00-D80E72C16D98";
shapes = (
{
closed = 1;
nodes = (
(450,-12,o),
(561,107,o),
(561,263,cs),
(561,418,o),
(446,538,o),
(296,538,cs),
(202,538,o),
(120,490,o),
(81,413,c),
(119,393,l),
(156,458,o),
(220,496,o),
(296,496,cs),
(422,496,o),
(516,396,o),
(516,263,cs),
(516,132,o),
(424,30,o),
(306,30,cs),
(192,30,o),
(106,127,o),
(112,250,c),
(95,237,l),
(538,237,l),
(538,277,l),
(69,277,l),
(67,262,o),
(66,251,o),
(66,238,cs),
(66,96,o),
(169,-12,o),
(306,-12,cs)
);
}
);
width = 627;
},
{
layerId = "30C2FD74-1A74-41AC-9C29-B288AE1DBDD7";
shapes = (
{
closed = 1;
nodes = (
(449,-12,o),
(560,105,o),
(560,266,cs),
(560,429,o),
(444,548,o),
(294,548,cs),
(185,548,o),
(99,487,o),
(66,414,c),
(130,380,l),
(164,436,o),
(216,478,o),
(294,478,cs),
(396,478,o),
(490,396,o),
(480,267,c),
(490,140,o),
(402,58,o),
(302,58,cs),
(203,58,o),
(121,141,o),
(138,251,c),
(102,221,l),
(512,221,l),
(512,291,l),
(59,291,l),
(56,274,o),
(55,256,o),
(55,243,cs),
(55,115,o),
(148,-12,o),
(302,-12,cs)
);
}
);
width = 615;
},
{
layerId = "9398AC28-6BE1-4A79-9C94-3CBC2F226CE7";
shapes = (
{
closed = 1;
nodes = (
(459,-12,o),
(578,109,o),
(578,272,cs),
(578,430,o),
(466,558,o),
(293,558,cs),
(181,558,o),
(91,505,o),
(58,425,c),
(178,368,l),
(199,405,o),
(238,428,o),
(291,428,cs),
(379,428,o),
(431,365,o),
(423,273,c),
(430,167,o),
(381,108,o),
(303,108,cs),
(224,108,o),
(176,172,o),
(196,257,c),
(125,205,l),
(449,205,l),
(449,315,l),
(40,315,l),
(35,300,o),
(33,279,o),
(33,257,cs),
(33,106,o),
(130,-12,o),
(303,-12,cs)
);
}
);
width = 611;
}
);
metricLeft = "=|e";
metricRight = "=|e";
unicode = 601;
},
{
glyphname = f;
lastChange = "2023-01-30 07:37:07 +0000";
layers = (
{
anchors = (
{
name = bottom;
pos = (197,0);
},
{
name = top;
pos = (197,745);
}
);
layerId = "30C2FD74-1A74-41AC-9C29-B288AE1DBDD7";
shapes = (
{
closed = 1;
nodes = (
(207,0,l),
(207,461,l),
(338,461,l),
(338,536,l),
(207,536,l),
(207,584,ls),
(207,660,o),
(255,687,o),
(319,687,cs),
(326,687,o),
(346,686,o),
(355,684,c),
(355,752,l),
(344,755,o),
(324,757,o),
(311,757,cs),
(217,757,o),
(132,696,o),
(132,584,cs),
(132,536,l),
(25,536,l),
(25,461,l),
(132,461,l),
(132,0,l)
);
}
);
width = 393;
},
{
anchors = (
{
name = bottom;
pos = (205,0);
},
{
name = top;
pos = (209,745);
}
);
layerId = "9398AC28-6BE1-4A79-9C94-3CBC2F226CE7";
shapes = (
{
closed = 1;
nodes = (
(271,0,l),
(271,416,l),
(388,416,l),
(388,546,l),
(271,546,l),
(271,554,ls),
(271,602,o),
(300,627,o),
(356,627,cs),
(366,627,o),
(376,626,o),
(389,624,c),
(389,752,l),
(375,755,o),
(353,757,o),
(336,757,cs),
(200,757,o),
(121,683,o),
(121,554,cs),
(121,546,l),
(29,546,l),
(29,416,l),
(121,416,l),
(121,0,l)
);
}
);
width = 410;
},
{
anchors = (
{
name = bottom;
pos = (194,0);
},
{
name = top;
pos = (194,745);
}
);
layerId = "C1DB0BE6-5704-4A8C-8C00-D80E72C16D98";
shapes = (
{
closed = 1;
nodes = (
(188,0,l),
(188,486,l),
(321,486,l),
(321,526,l),
(188,526,l),
(188,579,ls),
(188,664,o),
(233,714,o),
(308,714,cs),
(319,714,o),
(333,713,o),
(344,711,c),
(344,752,l),
(334,755,o),
(321,757,o),
(305,757,cs),
(208,757,o),
(143,691,o),
(143,579,cs),
(143,526,l),
(34,526,l),
(34,486,l),
(143,486,l),
(143,0,l)
);
}
);
width = 387;
}
);
unicode = 102;
},
{
glyphname = f.ss01;
lastChange = "2023-01-30 07:37:07 +0000";
layers = (
{
layerId = "30C2FD74-1A74-41AC-9C29-B288AE1DBDD7";
shapes = (
{
closed = 1;
nodes = (
(207,0,l),
(207,461,l),
(338,461,l),
(338,536,l),
(207,536,l),
(207,675,l),
(355,675,l),
(355,745,l),
(132,745,l),
(132,536,l),
(25,536,l),
(25,461,l),
(132,461,l),
(132,0,l)
);
}
);
width = 393;
},
{
layerId = "9398AC28-6BE1-4A79-9C94-3CBC2F226CE7";
shapes = (
{
closed = 1;
nodes = (
(271,0,l),
(271,416,l),
(388,416,l),
(388,546,l),
(271,546,l),
(271,625,l),
(389,625,l),
(389,745,l),
(121,745,l),
(121,546,l),
(29,546,l),
(29,416,l),
(121,416,l),
(121,0,l)
);
}
);
width = 410;
},
{
layerId = "C1DB0BE6-5704-4A8C-8C00-D80E72C16D98";
shapes = (
{
closed = 1;
nodes = (
(188,0,l),
(188,486,l),
(321,486,l),
(321,526,l),
(188,526,l),
(188,705,l),
(344,705,l),
(344,745,l),
(143,745,l),
(143,526,l),
(34,526,l),
(34,486,l),
(143,486,l),
(143,0,l)
);
}
);
width = 387;
}
);
metricLeft = "=f";
metricRight = "=f";
},
{
glyphname = g;
lastChange = "2023-01-30 07:37:07 +0000";
layers = (
{
anchors = (
{
name = bottom;
pos = (331,-240);
},
{
name = top;
pos = (331,536);
}
);
layerId = "30C2FD74-1A74-41AC-9C29-B288AE1DBDD7";
shapes = (
{
closed = 1;
nodes = (
(479,-220,o),
(585,-118,o),
(585,21,cs),
(585,536,l),
(510,536,l),
(510,416,l),
(522,437,l),
(480,505,o),
(406,548,o),
(319,548,cs),
(167,548,o),
(55,429,o),
(55,278,cs),
(55,127,o),
(168,8,o),
(319,8,cs),
(406,8,o),
(485,52,o),
(522,129,c),
(510,140,l),
(510,21,ls),
(510,-87,o),
(426,-145,o),
(329,-145,cs),
(244,-145,o),
(188,-102,o),
(167,-51,c),
(98,-88,l),
(134,-166,o),
(220,-220,o),
(331,-220,cs)
);
},
{
closed = 1;
nodes = (
(215,83,o),
(135,171,o),
(135,278,cs),
(135,385,o),
(216,473,o),
(323,473,cs),
(426,473,o),
(510,384,o),
(510,278,cs),
(510,172,o),
(426,83,o),
(323,83,cs)
);
}
);
width = 662;
},
{
anchors = (
{
name = bottom;
pos = (324,-240);
},
{
name = top;
pos = (324,546);
}
);
layerId = "9398AC28-6BE1-4A79-9C94-3CBC2F226CE7";
shapes = (
{
closed = 1;
nodes = (
(480,-220,o),
(593,-116,o),
(593,29,cs),
(593,546,l),
(453,546,l),
(453,427,l),
(472,463,l),
(431,527,o),
(373,558,o),
(294,558,cs),
(143,558,o),
(33,447,o),
(33,294,cs),
(33,140,o),
(144,27,o),
(297,27,cs),
(376,27,o),
(435,57,o),
(472,118,c),
(443,154,l),
(443,29,ls),
(443,-42,o),
(397,-85,o),
(323,-85,cs),
(260,-85,o),
(212,-54,o),
(197,-3,c),
(58,-52,l),
(92,-154,o),
(196,-220,o),
(323,-220,cs)
);
},
{
closed = 1;
nodes = (
(242,163,o),
(188,216,o),
(188,292,cs),
(188,369,o),
(242,423,o),
(318,423,cs),
(392,423,o),
(443,370,o),
(443,292,cs),
(443,214,o),
(393,163,o),
(318,163,cs)
);
}
);
width = 648;
},
{
anchors = (
{
name = bottom;
pos = (332,-240);
},
{
name = top;
pos = (332,526);
}
);
layerId = "C1DB0BE6-5704-4A8C-8C00-D80E72C16D98";
shapes = (
{
closed = 1;
nodes = (
(474,-220,o),
(576,-121,o),
(576,18,cs),
(576,526,l),
(531,526,l),
(531,377,l),
(541,394,l),
(503,481,o),
(421,538,o),
(320,538,cs),
(173,538,o),
(66,419,o),
(66,273,cs),
(66,127,o),
(173,8,o),
(320,8,cs),
(421,8,o),
(503,65,o),
(541,152,c),
(531,169,l),
(531,18,ls),
(531,-118,o),
(430,-178,o),
(331,-178,cs),
(251,-178,o),
(185,-139,o),
(146,-73,c),
(108,-95,l),
(146,-166,o),
(229,-220,o),
(331,-220,cs)
);
},
{
closed = 1;
nodes = (
(198,53,o),
(114,151,o),
(114,273,cs),
(114,395,o),
(198,493,o),
(320,493,cs),
(441,493,o),
(528,396,o),
(528,273,cs),
(528,150,o),
(441,53,o),
(320,53,cs)
);
}
);
width = 664;
}
);
unicode = 103;
},
{
glyphname = g.ss01;
lastChange = "2023-01-30 07:37:07 +0000";
layers = (
{
anchors = (
{
name = bottom;
pos = (331,-240);
},
{
name = top;
pos = (331,536);
}
);
layerId = "30C2FD74-1A74-41AC-9C29-B288AE1DBDD7";
shapes = (
{
closed = 1;
nodes = (
(585,-220,l),
(585,536,l),
(510,536,l),
(510,416,l),
(522,437,l),
(480,505,o),
(406,548,o),
(319,548,cs),
(167,548,o),
(55,429,o),
(55,278,cs),
(55,127,o),
(168,8,o),
(319,8,cs),
(406,8,o),
(485,52,o),
(522,129,c),
(510,140,l),
(510,-145,l),
(138,-145,l),
(138,-220,l)
);
},
{
closed = 1;
nodes = (
(215,83,o),
(135,171,o),
(135,278,cs),
(135,385,o),
(216,473,o),
(323,473,cs),
(426,473,o),
(510,384,o),
(510,278,cs),
(510,172,o),
(426,83,o),
(323,83,cs)
);
}
);
width = 662;
},
{
anchors = (
{
name = bottom;
pos = (324,-240);
},
{
name = top;
pos = (324,546);
}
);
layerId = "9398AC28-6BE1-4A79-9C94-3CBC2F226CE7";
shapes = (
{
closed = 1;
nodes = (
(593,-220,l),
(593,546,l),
(453,546,l),
(453,427,l),
(472,463,l),
(431,527,o),
(373,558,o),
(294,558,cs),
(143,558,o),
(33,447,o),
(33,294,cs),
(33,140,o),
(144,27,o),
(297,27,cs),
(376,27,o),
(435,57,o),
(472,118,c),
(443,154,l),
(443,-90,l),
(98,-90,l),
(98,-220,l)
);
},
{
closed = 1;
nodes = (
(242,163,o),
(188,216,o),
(188,292,cs),
(188,369,o),
(242,423,o),
(318,423,cs),
(392,423,o),
(443,370,o),
(443,292,cs),
(443,214,o),
(393,163,o),
(318,163,cs)
);
}
);
width = 648;
},
{
anchors = (
{
name = bottom;
pos = (332,-240);
},
{
name = top;
pos = (332,526);
}
);
layerId = "C1DB0BE6-5704-4A8C-8C00-D80E72C16D98";
shapes = (
{
closed = 1;
nodes = (
(576,-220,l),
(576,526,l),
(531,526,l),
(531,377,l),
(541,394,l),
(503,481,o),
(421,538,o),
(320,538,cs),
(173,538,o),
(66,419,o),
(66,273,cs),
(66,127,o),
(173,8,o),
(320,8,cs),
(421,8,o),
(503,65,o),
(541,152,c),
(531,169,l),
(531,-180,l),
(147,-180,l),
(147,-220,l)
);
},
{
closed = 1;
nodes = (
(198,53,o),
(114,151,o),
(114,273,cs),
(114,395,o),
(198,493,o),
(320,493,cs),
(441,493,o),
(528,396,o),
(528,273,cs),
(528,150,o),
(441,53,o),
(320,53,cs)
);
}
);
width = 664;
}
);
metricLeft = "=g";
metricRight = "=g";
},
{
glyphname = g.ss03;
lastChange = "2023-01-30 07:37:07 +0000";
layers = (
{
anchors = (
{
name = bottom;
pos = (331,-240);
},
{
name = top;
pos = (331,536);
}
);
layerId = "30C2FD74-1A74-41AC-9C29-B288AE1DBDD7";
shapes = (
{
closed = 1;
nodes = (
(337,-220,ls),
(486,-220,o),
(585,-133,o),
(585,-3,cs),
(585,536,l),
(510,536,l),
(510,416,l),
(522,437,l),
(480,505,o),
(406,548,o),
(319,548,cs),
(167,548,o),
(55,429,o),
(55,278,cs),
(55,127,o),
(168,8,o),
(319,8,cs),
(406,8,o),
(485,52,o),
(522,129,c),
(510,140,l),
(510,-3,ls),
(510,-88,o),
(441,-145,o),
(337,-145,cs),
(128,-145,l),
(128,-220,l)
);
},
{
closed = 1;
nodes = (
(215,83,o),
(135,171,o),
(135,278,cs),
(135,385,o),
(216,473,o),
(323,473,cs),
(426,473,o),
(510,384,o),
(510,278,cs),
(510,172,o),
(426,83,o),
(323,83,cs)
);
}
);
width = 662;
},
{
anchors = (
{
name = bottom;
pos = (324,-240);
},
{
name = top;
pos = (324,546);
}
);
layerId = "9398AC28-6BE1-4A79-9C94-3CBC2F226CE7";
shapes = (
{
closed = 1;
nodes = (
(321,-220,ls),
(492,-220,o),
(593,-133,o),
(593,14,cs),
(593,546,l),
(453,546,l),
(453,427,l),
(472,463,l),
(431,527,o),
(373,558,o),
(294,558,cs),
(143,558,o),
(33,447,o),
(33,294,cs),
(33,140,o),
(144,27,o),
(297,27,cs),
(376,27,o),
(435,57,o),
(472,118,c),
(443,154,l),
(443,14,ls),
(443,-51,o),
(398,-90,o),
(321,-90,cs),
(121,-90,l),
(121,-220,l)
);
},
{
closed = 1;
nodes = (
(242,163,o),
(188,216,o),
(188,292,cs),
(188,369,o),
(242,423,o),
(318,423,cs),
(392,423,o),
(443,370,o),
(443,292,cs),
(443,214,o),
(393,163,o),
(318,163,cs)
);
}
);
width = 648;
},
{
anchors = (
{
name = bottom;
pos = (332,-240);
},
{
name = top;
pos = (332,526);
}
);
layerId = "C1DB0BE6-5704-4A8C-8C00-D80E72C16D98";
shapes = (
{
closed = 1;
nodes = (
(348,-220,ls),
(488,-220,o),
(576,-139,o),
(576,-11,cs),
(576,526,l),
(531,526,l),
(531,377,l),
(541,394,l),
(503,481,o),
(421,538,o),
(320,538,cs),
(173,538,o),
(66,419,o),
(66,273,cs),
(66,127,o),
(173,8,o),
(320,8,cs),
(421,8,o),
(503,65,o),
(541,152,c),
(531,169,l),
(531,-11,ls),
(531,-115,o),
(463,-177,o),
(348,-177,cs),
(161,-177,l),
(161,-220,l)
);
},
{
closed = 1;
nodes = (
(198,53,o),
(114,151,o),
(114,273,cs),
(114,395,o),
(198,493,o),
(320,493,cs),
(441,493,o),
(528,396,o),
(528,273,cs),
(528,150,o),
(441,53,o),
(320,53,cs)
);
}
);
width = 664;
}
);
metricLeft = "=g";
metricRight = "=g";
},
{
glyphname = h;
lastChange = "2023-01-30 07:37:07 +0000";
layers = (
{
anchors = (
{
name = bottom;
pos = (287,0);
},
{
name = center;
pos = (115,640);
},
{
name = top;
pos = (115,745);
}
);
layerId = "30C2FD74-1A74-41AC-9C29-B288AE1DBDD7";
shapes = (
{
closed = 1;
nodes = (
(152,0,l),
(152,319,ls),
(152,415,o),
(213,473,o),
(293,473,cs),
(373,473,o),
(432,416,o),
(432,319,cs),
(432,0,l),
(507,0,l),
(507,348,ls),
(507,462,o),
(419,548,o),
(306,548,cs),
(226,548,o),
(161,505,o),
(135,436,c),
(152,432,l),
(152,757,l),
(77,757,l),
(77,0,l)
);
}
);
width = 573;
},
{
anchors = (
{
name = bottom;
pos = (300,0);
},
{
name = center;
pos = (130,640);
},
{
name = top;
pos = (130,745);
}
);
layerId = "9398AC28-6BE1-4A79-9C94-3CBC2F226CE7";
shapes = (
{
closed = 1;
nodes = (
(205,0,l),
(205,319,ls),
(205,382,o),
(246,423,o),
(305,423,cs),
(364,423,o),
(405,382,o),
(405,319,cs),
(405,0,l),
(555,0,l),
(555,351,ls),
(555,475,o),
(471,558,o),
(348,558,cs),
(272,558,o),
(212,527,o),
(187,462,c),
(205,438,l),
(205,757,l),
(55,757,l),
(55,0,l)
);
}
);
width = 599;
},
{
anchors = (
{
name = bottom;
pos = (285,0);
},
{
name = center;
pos = (111,640);
},
{
name = top;
pos = (111,745);
}
);
layerId = "C1DB0BE6-5704-4A8C-8C00-D80E72C16D98";
shapes = (
{
closed = 1;
nodes = (
(133,0,l),
(133,320,ls),
(133,417,o),
(191,495,o),
(291,495,cs),
(378,495,o),
(448,435,o),
(448,340,cs),
(448,0,l),
(493,0,l),
(493,345,ls),
(493,461,o),
(401,538,o),
(295,538,cs),
(211,538,o),
(142,490,o),
(121,420,c),
(133,415,l),
(133,757,l),
(88,757,l),
(88,0,l)
);
}
);
width = 570;
}
);
unicode = 104;
},
{
glyphname = h.ss01;
lastChange = "2023-01-30 07:37:07 +0000";
layers = (
{
anchors = (
{
name = bottom;
pos = (287,0);
},
{
name = center;
pos = (115,640);
},
{
name = top;
pos = (115,745);
}
);
layerId = "30C2FD74-1A74-41AC-9C29-B288AE1DBDD7";
shapes = (
{
closed = 1;
nodes = (
(507,0,l),
(507,536,l),
(129,536,l),
(129,461,l),
(432,461,l),
(432,0,l)
);
},
{
closed = 1;
nodes = (
(152,0,l),
(152,757,l),
(77,757,l),
(77,0,l)
);
}
);
width = 573;
},
{
anchors = (
{
name = bottom;
pos = (300,0);
},
{
name = center;
pos = (130,640);
},
{
name = top;
pos = (130,745);
}
);
layerId = "9398AC28-6BE1-4A79-9C94-3CBC2F226CE7";
shapes = (
{
closed = 1;
nodes = (
(555,0,l),
(555,546,l),
(149,546,l),
(149,416,l),
(405,416,l),
(405,0,l)
);
},
{
closed = 1;
nodes = (
(205,0,l),
(205,757,l),
(55,757,l),
(55,0,l)
);
}
);
width = 599;
},
{
anchors = (
{
name = bottom;
pos = (285,0);
},
{
name = center;
pos = (111,640);
},
{
name = top;
pos = (111,745);
}
);
layerId = "C1DB0BE6-5704-4A8C-8C00-D80E72C16D98";
shapes = (
{
closed = 1;
nodes = (
(493,0,l),
(493,526,l),
(118,526,l),
(118,486,l),
(448,486,l),
(448,0,l)
);
},
{
closed = 1;
nodes = (
(133,0,l),
(133,757,l),
(88,757,l),
(88,0,l)
);
}
);
width = 570;
}
);
metricLeft = "=h";
metricRight = "=n";
},
{
glyphname = h.ss03;
lastChange = "2023-01-30 07:37:07 +0000";
layers = (
{
anchors = (
{
name = bottom;
pos = (287,0);
},
{
name = center;
pos = (115,640);
},
{
name = top;
pos = (115,745);
}
);
layerId = "30C2FD74-1A74-41AC-9C29-B288AE1DBDD7";
shapes = (
{
closed = 1;
nodes = (
(152,0,l),
(152,461,l),
(295,461,ls),
(381,461,o),
(432,411,o),
(432,327,cs),
(432,0,l),
(507,0,l),
(507,327,ls),
(507,458,o),
(428,536,o),
(295,536,cs),
(152,536,l),
(152,757,l),
(77,757,l),
(77,0,l)
);
}
);
width = 573;
},
{
anchors = (
{
name = bottom;
pos = (300,0);
},
{
name = center;
pos = (130,640);
},
{
name = top;
pos = (130,745);
}
);
layerId = "9398AC28-6BE1-4A79-9C94-3CBC2F226CE7";
shapes = (
{
closed = 1;
nodes = (
(205,0,l),
(205,416,l),
(314,416,ls),
(369,416,o),
(405,380,o),
(405,324,cs),
(405,0,l),
(555,0,l),
(555,332,ls),
(555,464,o),
(463,546,o),
(314,546,cs),
(205,546,l),
(205,757,l),
(55,757,l),
(55,0,l)
);
}
);
width = 599;
},
{
anchors = (
{
name = bottom;
pos = (285,0);
},
{
name = center;
pos = (111,640);
},
{
name = top;
pos = (111,745);
}
);
layerId = "C1DB0BE6-5704-4A8C-8C00-D80E72C16D98";
shapes = (
{
closed = 1;
nodes = (
(133,0,l),
(133,486,l),
(304,486,ls),
(390,486,o),
(448,426,o),
(448,337,cs),
(448,0,l),
(493,0,l),
(493,337,ls),
(493,450,o),
(417,526,o),
(304,526,cs),
(133,526,l),
(133,757,l),
(88,757,l),
(88,0,l)
);
}
);
width = 570;
}
);
metricLeft = "=h";
metricRight = "=n";
},
{
glyphname = i;
lastChange = "2023-01-30 07:37:07 +0000";
layers = (
{
anchors = (
{
name = bottom;
pos = (115,0);
}
);
layerId = "30C2FD74-1A74-41AC-9C29-B288AE1DBDD7";
shapes = (
{
closed = 1;
nodes = (
(152,0,l),
(152,536,l),
(77,536,l),
(77,0,l)
);
},
{
closed = 1;
nodes = (
(152,635,l),
(152,745,l),
(77,745,l),
(77,635,l)
);
}
);
width = 229;
},
{
anchors = (
{
name = bottom;
pos = (130,0);
}
);
layerId = "9398AC28-6BE1-4A79-9C94-3CBC2F226CE7";
shapes = (
{
closed = 1;
nodes = (
(205,0,l),
(205,546,l),
(55,546,l),
(55,0,l)
);
},
{
closed = 1;
nodes = (
(205,595,l),
(205,745,l),
(55,745,l),
(55,595,l)
);
}
);
width = 260;
},
{
anchors = (
{
name = bottom;
pos = (111,0);
}
);
layerId = "C1DB0BE6-5704-4A8C-8C00-D80E72C16D98";
shapes = (
{
closed = 1;
nodes = (
(133,0,l),
(133,526,l),
(88,526,l),
(88,0,l)
);
},
{
closed = 1;
nodes = (
(133,635,l),
(133,745,l),
(88,745,l),
(88,635,l)
);
}
);
width = 221;
}
);
unicode = 105;
},
{
glyphname = i.ss01;
lastChange = "2023-01-30 07:37:07 +0000";
layers = (
{
anchors = (
{
name = bottom;
pos = (152,0);
}
);
layerId = "30C2FD74-1A74-41AC-9C29-B288AE1DBDD7";
shapes = (
{
closed = 1;
nodes = (
(189,0,l),
(189,536,l),
(39,536,l),
(39,461,l),
(114,461,l),
(114,0,l)
);
},
{
closed = 1;
nodes = (
(189,635,l),
(189,745,l),
(114,745,l),
(114,635,l)
);
}
);
width = 266;
},
{
anchors = (
{
name = bottom;
pos = (193,0);
}
);
layerId = "9398AC28-6BE1-4A79-9C94-3CBC2F226CE7";
shapes = (
{
closed = 1;
nodes = (
(268,0,l),
(268,546,l),
(28,546,l),
(28,416,l),
(118,416,l),
(118,0,l)
);
},
{
closed = 1;
nodes = (
(268,595,l),
(268,745,l),
(118,745,l),
(118,595,l)
);
}
);
width = 323;
},
{
anchors = (
{
name = bottom;
pos = (132,0);
}
);
layerId = "C1DB0BE6-5704-4A8C-8C00-D80E72C16D98";
shapes = (
{
closed = 1;
nodes = (
(154,0,l),
(154,526,l),
(44,526,l),
(44,481,l),
(109,481,l),
(109,0,l)
);
},
{
closed = 1;
nodes = (
(154,635,l),
(154,745,l),
(109,745,l),
(109,635,l)
);
}
);
width = 242;
}
);
metricLeft = "=i/2";
metricRight = "=i";
},
{
glyphname = idotless;
lastChange = "2023-01-30 07:37:07 +0000";
layers = (
{
anchors = (
{
name = bottom;
pos = (99,0);
},
{
name = ogonek;
pos = (120,0);
},
{
name = top;
pos = (99,536);
}
);
layerId = "30C2FD74-1A74-41AC-9C29-B288AE1DBDD7";
shapes = (
{
closed = 1;
nodes = (
(137,0,l),
(137,536,l),
(62,536,l),
(62,0,l)
);
}
);
width = 199;
},
{
anchors = (
{
name = bottom;
pos = (119,0);
},
{
name = ogonek;
pos = (139,0);
},
{
name = top;
pos = (119,546);
}
);
layerId = "9398AC28-6BE1-4A79-9C94-3CBC2F226CE7";
shapes = (
{
closed = 1;
nodes = (
(194,0,l),
(194,546,l),
(44,546,l),
(44,0,l)
);
}
);
width = 238;
},
{
anchors = (
{
name = bottom;
pos = (92,0);
},
{
name = ogonek;
pos = (103,0);
},
{
name = top;
pos = (92,526);
}
);
layerId = "C1DB0BE6-5704-4A8C-8C00-D80E72C16D98";
shapes = (
{
closed = 1;
nodes = (
(115,0,l),
(115,526,l),
(70,526,l),
(70,0,l)
);
}
);
width = 185;
}
);
metricLeft = "=i*.8";
metricRight = "=i*.8";
unicode = 305;
},
{
glyphname = idotless.ss01;
lastChange = "2023-01-30 07:37:07 +0000";
layers = (
{
anchors = (
{
name = bottom;
pos = (144,0);
},
{
name = ogonek;
pos = (164,0);
},
{
name = top;
pos = (144,536);
}
);
layerId = "30C2FD74-1A74-41AC-9C29-B288AE1DBDD7";
shapes = (
{
closed = 1;
nodes = (
(181,0,l),
(181,536,l),
(31,536,l),
(31,461,l),
(106,461,l),
(106,0,l)
);
}
);
width = 243;
},
{
anchors = (
{
name = bottom;
pos = (187,0);
},
{
name = ogonek;
pos = (207,0);
},
{
name = top;
pos = (187,546);
}
);
layerId = "9398AC28-6BE1-4A79-9C94-3CBC2F226CE7";
shapes = (
{
closed = 1;
nodes = (
(262,0,l),
(262,546,l),
(22,546,l),
(22,416,l),
(112,416,l),
(112,0,l)
);
}
);
width = 306;
},
{
anchors = (
{
name = bottom;
pos = (123,0);
},
{
name = ogonek;
pos = (133,0);
},
{
name = top;
pos = (123,526);
}
);
layerId = "C1DB0BE6-5704-4A8C-8C00-D80E72C16D98";
shapes = (
{
closed = 1;
nodes = (
(145,0,l),
(145,526,l),
(35,526,l),
(35,481,l),
(100,481,l),
(100,0,l)
);
}
);
width = 215;
}
);
metricLeft = "=idotless/2";
metricRight = "=idotless";
},
{
glyphname = idotless.wide;
lastChange = "2023-01-30 07:37:07 +0000";
layers = (
{
anchors = (
{
name = bottom;
pos = (134,0);
},
{
name = ogonek;
pos = (155,0);
},
{
name = top;
pos = (134,536);
}
);
layerId = "30C2FD74-1A74-41AC-9C29-B288AE1DBDD7";
shapes = (
{
closed = 1;
nodes = (
(172,0,l),
(172,536,l),
(97,536,l),
(97,0,l)
);
}
);
width = 269;
},
{
anchors = (
{
name = bottom;
pos = (150,0);
},
{
name = ogonek;
pos = (170,0);
},
{
name = top;
pos = (150,546);
}
);
layerId = "9398AC28-6BE1-4A79-9C94-3CBC2F226CE7";
shapes = (
{
closed = 1;
nodes = (
(225,0,l),
(225,546,l),
(75,546,l),
(75,0,l)
);
}
);
width = 300;
},
{
anchors = (
{
name = bottom;
pos = (130,0);
},
{
name = ogonek;
pos = (141,0);
},
{
name = top;
pos = (130,526);
}
);
layerId = "C1DB0BE6-5704-4A8C-8C00-D80E72C16D98";
shapes = (
{
closed = 1;
nodes = (
(153,0,l),
(153,526,l),
(108,526,l),
(108,0,l)
);
}
);
width = 261;
}
);
metricLeft = "=i+20";
metricRight = "=i+20";
},
{
glyphname = j;
lastChange = "2023-01-30 07:37:07 +0000";
layers = (
{
layerId = "30C2FD74-1A74-41AC-9C29-B288AE1DBDD7";
shapes = (
{
closed = 1;
nodes = (
(72,-220,o),
(152,-161,o),
(152,-50,cs),
(152,536,l),
(77,536,l),
(77,-50,ls),
(77,-117,o),
(33,-150,o),
(-21,-150,cs),
(-34,-150,o),
(-49,-149,o),
(-63,-147,c),
(-63,-216,l),
(-53,-219,o),
(-32,-220,o),
(-23,-220,cs)
);
},
{
closed = 1;
nodes = (
(152,635,l),
(152,745,l),
(77,745,l),
(77,635,l)
);
}
);
width = 229;
},
{
layerId = "9398AC28-6BE1-4A79-9C94-3CBC2F226CE7";
shapes = (
{
closed = 1;
nodes = (
(125,-222,o),
(205,-149,o),
(205,-20,cs),
(205,546,l),
(55,546,l),
(55,-20,ls),
(55,-68,o),
(26,-92,o),
(-31,-92,cs),
(-43,-92,o),
(-54,-91,o),
(-65,-89,c),
(-65,-217,l),
(-52,-220,o),
(-31,-222,o),
(-11,-222,cs)
);
},
{
closed = 1;
nodes = (
(205,595,l),
(205,745,l),
(55,745,l),
(55,595,l)
);
}
);
width = 260;
},
{
layerId = "C1DB0BE6-5704-4A8C-8C00-D80E72C16D98";
shapes = (
{
closed = 1;
nodes = (
(73,-220,o),
(133,-165,o),
(133,-62,cs),
(133,526,l),
(88,526,l),
(88,-62,ls),
(88,-137,o),
(48,-177,o),
(-21,-177,cs),
(-32,-177,o),
(-46,-176,o),
(-57,-174,c),
(-57,-215,l),
(-47,-218,o),
(-34,-220,o),
(-18,-220,cs)
);
},
{
closed = 1;
nodes = (
(133,635,l),
(133,745,l),
(88,745,l),
(88,635,l)
);
}
);
width = 221;
}
);
unicode = 106;
},
{
glyphname = j.ss01;
lastChange = "2023-01-30 07:37:07 +0000";
layers = (
{
layerId = "30C2FD74-1A74-41AC-9C29-B288AE1DBDD7";
shapes = (
{
closed = 1;
nodes = (
(132,-220,l),
(132,536,l),
(57,536,l),
(57,-150,l),
(-63,-150,l),
(-63,-220,l)
);
},
{
closed = 1;
nodes = (
(132,635,l),
(132,745,l),
(57,745,l),
(57,635,l)
);
}
);
width = 209;
},
{
layerId = "9398AC28-6BE1-4A79-9C94-3CBC2F226CE7";
shapes = (
{
closed = 1;
nodes = (
(195,-222,l),
(195,546,l),
(45,546,l),
(45,-92,l),
(-65,-92,l),
(-65,-222,l)
);
},
{
closed = 1;
nodes = (
(195,595,l),
(195,745,l),
(45,745,l),
(45,595,l)
);
}
);
width = 250;
},
{
layerId = "C1DB0BE6-5704-4A8C-8C00-D80E72C16D98";
shapes = (
{
closed = 1;
nodes = (
(113,-220,l),
(113,526,l),
(68,526,l),
(68,-180,l),
(-57,-180,l),
(-57,-220,l)
);
},
{
closed = 1;
nodes = (
(113,635,l),
(113,745,l),
(68,745,l),
(68,635,l)
);
}
);
width = 201;
}
);
metricLeft = "=j";
metricRight = "=j";
},
{
glyphname = j.ss02;
lastChange = "2023-01-30 07:37:07 +0000";
layers = (
{
layerId = "30C2FD74-1A74-41AC-9C29-B288AE1DBDD7";
shapes = (
{
closed = 1;
nodes = (
(104,-220,o),
(184,-161,o),
(184,-50,cs),
(184,536,l),
(34,536,l),
(34,461,l),
(109,461,l),
(109,-50,ls),
(109,-117,o),
(65,-150,o),
(11,-150,cs),
(-3,-150,o),
(-18,-149,o),
(-32,-147,c),
(-32,-216,l),
(-22,-219,o),
(-1,-220,o),
(9,-220,cs)
);
},
{
closed = 1;
nodes = (
(184,635,l),
(184,745,l),
(109,745,l),
(109,635,l)
);
}
);
width = 261;
},
{
layerId = "9398AC28-6BE1-4A79-9C94-3CBC2F226CE7";
shapes = (
{
closed = 1;
nodes = (
(158,-222,o),
(238,-149,o),
(238,-20,cs),
(238,546,l),
(-3,546,l),
(-3,416,l),
(88,416,l),
(88,-20,ls),
(88,-68,o),
(59,-92,o),
(2,-92,cs),
(-11,-92,o),
(-22,-91,o),
(-33,-89,c),
(-33,-217,l),
(-20,-220,o),
(2,-222,o),
(22,-222,cs)
);
},
{
closed = 1;
nodes = (
(238,595,l),
(238,745,l),
(88,745,l),
(88,595,l)
);
}
);
width = 293;
},
{
layerId = "C1DB0BE6-5704-4A8C-8C00-D80E72C16D98";
shapes = (
{
closed = 1;
nodes = (
(102,-220,o),
(162,-165,o),
(162,-62,cs),
(162,526,l),
(52,526,l),
(52,481,l),
(117,481,l),
(117,-62,ls),
(117,-137,o),
(77,-177,o),
(8,-177,cs),
(-4,-177,o),
(-18,-176,o),
(-29,-174,c),
(-29,-215,l),
(-19,-218,o),
(-6,-220,o),
(11,-220,cs)
);
},
{
closed = 1;
nodes = (
(162,635,l),
(162,745,l),
(117,745,l),
(117,635,l)
);
}
);
width = 250;
}
);
metricLeft = "=j/2";
metricRight = "=j";
},
{
glyphname = jdotless;
lastChange = "2023-01-30 07:37:07 +0000";
layers = (
{
anchors = (
{
name = bottom;
pos = (111,-240);
},
{
name = top;
pos = (111,526);
}
);
layerId = "C1DB0BE6-5704-4A8C-8C00-D80E72C16D98";
shapes = (
{
closed = 1;
nodes = (
(73,-220,o),
(133,-165,o),
(133,-62,cs),
(133,526,l),
(88,526,l),
(88,-62,ls),
(88,-137,o),
(48,-177,o),
(-21,-177,cs),
(-32,-177,o),
(-46,-176,o),
(-57,-174,c),
(-57,-215,l),
(-47,-218,o),
(-34,-220,o),
(-18,-220,cs)
);
}
);
width = 221;
},
{
anchors = (
{
name = bottom;
pos = (115,-240);
},
{
name = top;
pos = (115,536);
}
);
layerId = "30C2FD74-1A74-41AC-9C29-B288AE1DBDD7";
shapes = (
{
closed = 1;
nodes = (
(72,-220,o),
(152,-161,o),
(152,-50,cs),
(152,536,l),
(77,536,l),
(77,-50,ls),
(77,-117,o),
(33,-150,o),
(-21,-150,cs),
(-34,-150,o),
(-49,-149,o),
(-63,-147,c),
(-63,-216,l),
(-53,-219,o),
(-32,-220,o),
(-23,-220,cs)
);
}
);
width = 229;
},
{
anchors = (
{
name = bottom;
pos = (130,-240);
},
{
name = top;
pos = (130,546);
}
);
layerId = "9398AC28-6BE1-4A79-9C94-3CBC2F226CE7";
shapes = (
{
closed = 1;
nodes = (
(125,-222,o),
(205,-149,o),
(205,-20,cs),
(205,546,l),
(55,546,l),
(55,-20,ls),
(55,-68,o),
(26,-92,o),
(-31,-92,cs),
(-43,-92,o),
(-54,-91,o),
(-65,-89,c),
(-65,-217,l),
(-52,-220,o),
(-31,-222,o),
(-11,-222,cs)
);
}
);
width = 260;
}
);
unicode = 567;
},
{
glyphname = jdotless.ss01;
lastChange = "2023-01-30 07:37:07 +0000";
layers = (
{
anchors = (
{
name = bottom;
pos = (105,-240);
},
{
name = top;
pos = (95,536);
}
);
layerId = "30C2FD74-1A74-41AC-9C29-B288AE1DBDD7";
shapes = (
{
closed = 1;
nodes = (
(132,-220,l),
(132,536,l),
(57,536,l),
(57,-150,l),
(-63,-150,l),
(-63,-220,l)
);
}
);
width = 209;
},
{
anchors = (
{
name = bottom;
pos = (125,-240);
},
{
name = top;
pos = (120,546);
}
);
layerId = "9398AC28-6BE1-4A79-9C94-3CBC2F226CE7";
shapes = (
{
closed = 1;
nodes = (
(195,-222,l),
(195,546,l),
(45,546,l),
(45,-92,l),
(-65,-92,l),
(-65,-222,l)
);
}
);
width = 250;
},
{
anchors = (
{
name = bottom;
pos = (101,-240);
},
{
name = top;
pos = (91,526);
}
);
layerId = "C1DB0BE6-5704-4A8C-8C00-D80E72C16D98";
shapes = (
{
closed = 1;
nodes = (
(113,-220,l),
(113,526,l),
(68,526,l),
(68,-180,l),
(-57,-180,l),
(-57,-220,l)
);
}
);
width = 201;
}
);
metricLeft = "=j";
metricRight = "=j";
},
{
glyphname = jdotless.ss02;
lastChange = "2023-01-30 07:37:07 +0000";
layers = (
{
anchors = (
{
name = bottom;
pos = (157,-240);
},
{
name = top;
pos = (157,536);
}
);
layerId = "30C2FD74-1A74-41AC-9C29-B288AE1DBDD7";
shapes = (
{
closed = 1;
nodes = (
(114,-220,o),
(194,-161,o),
(194,-50,cs),
(194,536,l),
(44,536,l),
(44,461,l),
(119,461,l),
(119,-50,ls),
(119,-117,o),
(75,-150,o),
(21,-150,cs),
(8,-150,o),
(-7,-149,o),
(-21,-147,c),
(-21,-216,l),
(-11,-219,o),
(10,-220,o),
(19,-220,cs)
);
}
);
width = 271;
},
{
anchors = (
{
name = bottom;
pos = (173,-240);
},
{
name = top;
pos = (173,546);
}
);
layerId = "9398AC28-6BE1-4A79-9C94-3CBC2F226CE7";
shapes = (
{
closed = 1;
nodes = (
(168,-222,o),
(248,-149,o),
(248,-20,cs),
(248,546,l),
(8,546,l),
(8,416,l),
(98,416,l),
(98,-20,ls),
(98,-68,o),
(69,-92,o),
(12,-92,cs),
(0,-92,o),
(-11,-91,o),
(-22,-89,c),
(-22,-217,l),
(-9,-220,o),
(12,-222,o),
(32,-222,cs)
);
}
);
width = 303;
},
{
anchors = (
{
name = bottom;
pos = (149,-240);
},
{
name = top;
pos = (149,526);
}
);
layerId = "C1DB0BE6-5704-4A8C-8C00-D80E72C16D98";
shapes = (
{
closed = 1;
nodes = (
(111,-220,o),
(171,-165,o),
(171,-62,cs),
(171,526,l),
(61,526,l),
(61,481,l),
(126,481,l),
(126,-62,ls),
(126,-137,o),
(86,-177,o),
(17,-177,cs),
(6,-177,o),
(-8,-176,o),
(-19,-174,c),
(-19,-215,l),
(-9,-218,o),
(4,-220,o),
(20,-220,cs)
);
}
);
width = 259;
}
);
metricLeft = "=j/3";
metricRight = "=j";
},
{
glyphname = k;
lastChange = "2023-01-30 07:37:07 +0000";
layers = (
{
anchors = (
{
name = bottom;
pos = (274,0);
},
{
name = top;
pos = (115,745);
}
);
layerId = "30C2FD74-1A74-41AC-9C29-B288AE1DBDD7";
shapes = (
{
closed = 1;
nodes = (
(152,0,l),
(152,197,l),
(127,135,l),
(280,293,l),
(232,297,l),
(447,0,l),
(537,0,l),
(308,321,l),
(518,536,l),
(421,536,l),
(120,232,l),
(152,227,l),
(152,757,l),
(77,757,l),
(77,0,l)
);
}
);
width = 548;
},
{
anchors = (
{
name = bottom;
pos = (293,0);
},
{
name = top;
pos = (130,745);
}
);
layerId = "9398AC28-6BE1-4A79-9C94-3CBC2F226CE7";
shapes = (
{
closed = 1;
nodes = (
(205,0,l),
(205,204,l),
(159,117,l),
(326,299,l),
(239,277,l),
(404,0,l),
(574,0,l),
(377,326,l),
(575,546,l),
(390,546,l),
(149,290,l),
(205,272,l),
(205,757,l),
(55,757,l),
(55,0,l)
);
}
);
width = 586;
},
{
anchors = (
{
name = bottom;
pos = (270,0);
},
{
name = top;
pos = (111,745);
}
);
layerId = "C1DB0BE6-5704-4A8C-8C00-D80E72C16D98";
shapes = (
{
closed = 1;
nodes = (
(133,0,l),
(133,182,l),
(126,163,l),
(261,300,l),
(230,299,l),
(458,0,l),
(518,0,l),
(280,313,l),
(498,526,l),
(430,526,l),
(103,205,l),
(133,205,l),
(133,757,l),
(88,757,l),
(88,0,l)
);
}
);
width = 540;
}
);
unicode = 107;
},
{
glyphname = k.ss01;
lastChange = "2023-01-30 07:37:07 +0000";
layers = (
{
layerId = "30C2FD74-1A74-41AC-9C29-B288AE1DBDD7";
shapes = (
{
closed = 1;
nodes = (
(537,0,l),
(336,285,l),
(505,536,l),
(414,536,l),
(268,319,l),
(268,249,l),
(447,0,l)
);
},
{
closed = 1;
nodes = (
(152,0,l),
(152,757,l),
(77,757,l),
(77,0,l)
);
},
{
closed = 1;
nodes = (
(322,247,l),
(322,322,l),
(119,322,l),
(119,247,l)
);
}
);
width = 548;
},
{
layerId = "9398AC28-6BE1-4A79-9C94-3CBC2F226CE7";
shapes = (
{
closed = 1;
nodes = (
(575,0,l),
(386,276,l),
(554,546,l),
(390,546,l),
(260,341,l),
(251,224,l),
(406,0,l)
);
},
{
closed = 1;
nodes = (
(205,0,l),
(205,757,l),
(55,757,l),
(55,0,l)
);
},
{
closed = 1;
nodes = (
(336,218,l),
(336,348,l),
(150,348,l),
(150,218,l)
);
}
);
width = 586;
},
{
layerId = "C1DB0BE6-5704-4A8C-8C00-D80E72C16D98";
shapes = (
{
closed = 1;
nodes = (
(518,0,l),
(312,289,l),
(478,526,l),
(420,526,l),
(262,300,l),
(261,276,l),
(462,0,l)
);
},
{
closed = 1;
nodes = (
(133,0,l),
(133,757,l),
(88,757,l),
(88,0,l)
);
},
{
closed = 1;
nodes = (
(299,266,l),
(299,306,l),
(109,306,l),
(109,266,l)
);
}
);
width = 540;
}
);
metricLeft = "=k";
metricRight = "=k";
},
{
glyphname = kgreenlandic;
lastChange = "2023-01-30 07:37:07 +0000";
layers = (
{
layerId = "C1DB0BE6-5704-4A8C-8C00-D80E72C16D98";
shapes = (
{
closed = 1;
nodes = (
(518,0,l),
(312,289,l),
(478,526,l),
(420,526,l),
(262,300,l),
(261,276,l),
(462,0,l)
);
},
{
closed = 1;
nodes = (
(133,0,l),
(133,526,l),
(88,526,l),
(88,0,l)
);
},
{
closed = 1;
nodes = (
(299,266,l),
(299,306,l),
(109,306,l),
(109,266,l)
);
}
);
width = 540;
},
{
layerId = "30C2FD74-1A74-41AC-9C29-B288AE1DBDD7";
shapes = (
{
closed = 1;
nodes = (
(537,0,l),
(336,285,l),
(505,536,l),
(414,536,l),
(268,319,l),
(268,249,l),
(447,0,l)
);
},
{
closed = 1;
nodes = (
(152,0,l),
(152,536,l),
(77,536,l),
(77,0,l)
);
},
{
closed = 1;
nodes = (
(322,247,l),
(322,322,l),
(119,322,l),
(119,247,l)
);
}
);
width = 548;
},
{
layerId = "9398AC28-6BE1-4A79-9C94-3CBC2F226CE7";
shapes = (
{
closed = 1;
nodes = (
(575,0,l),
(386,276,l),
(554,546,l),
(390,546,l),
(260,341,l),
(251,224,l),
(406,0,l)
);
},
{
closed = 1;
nodes = (
(205,0,l),
(205,546,l),
(55,546,l),
(55,0,l)
);
},
{
closed = 1;
nodes = (
(336,218,l),
(336,348,l),
(150,348,l),
(150,218,l)
);
}
);
width = 586;
}
);
unicode = 312;
},
{
glyphname = l;
lastChange = "2023-01-30 07:37:07 +0000";
layers = (
{
anchors = (
{
name = bottom;
pos = (115,0);
},
{
name = center;
pos = (115,392);
},
{
name = dot;
pos = (279,372);
},
{
name = top;
pos = (115,745);
},
{
name = topright;
pos = (229,536);
}
);
layerId = "30C2FD74-1A74-41AC-9C29-B288AE1DBDD7";
shapes = (
{
closed = 1;
nodes = (
(152,0,l),
(152,757,l),
(77,757,l),
(77,0,l)
);
}
);
width = 229;
},
{
anchors = (
{
name = bottom;
pos = (130,0);
},
{
name = center;
pos = (130,392);
},
{
name = dot;
pos = (340,372);
},
{
name = top;
pos = (130,745);
},
{
name = topright;
pos = (260,546);
}
);
layerId = "9398AC28-6BE1-4A79-9C94-3CBC2F226CE7";
shapes = (
{
closed = 1;
nodes = (
(205,0,l),
(205,757,l),
(55,757,l),
(55,0,l)
);
}
);
width = 260;
},
{
anchors = (
{
name = bottom;
pos = (111,0);
},
{
name = center;
pos = (111,392);
},
{
name = dot;
pos = (271,372);
},
{
name = top;
pos = (111,745);
},
{
name = topright;
pos = (221,526);
}
);
layerId = "C1DB0BE6-5704-4A8C-8C00-D80E72C16D98";
shapes = (
{
closed = 1;
nodes = (
(133,0,l),
(133,757,l),
(88,757,l),
(88,0,l)
);
}
);
width = 221;
}
);
unicode = 108;
},
{
glyphname = l.ss01;
lastChange = "2023-01-11 09:55:14 +0000";
layers = (
{
anchors = (
{
name = bottom;
pos = (115,0);
},
{
name = center;
pos = (115,392);
},
{
name = dot;
pos = (279,372);
},
{
name = top;
pos = (115,745);
},
{
name = topright;
pos = (229,536);
}
);
layerId = "30C2FD74-1A74-41AC-9C29-B288AE1DBDD7";
shapes = (
{
closed = 1;
nodes = (
(227,0,l),
(227,70,l),
(152,70,l),
(152,757,l),
(77,757,l),
(77,0,l)
);
}
);
width = 266;
},
{
anchors = (
{
name = bottom;
pos = (130,0);
},
{
name = center;
pos = (130,392);
},
{
name = dot;
pos = (340,372);
},
{
name = top;
pos = (130,745);
},
{
name = topright;
pos = (260,546);
}
);
layerId = "9398AC28-6BE1-4A79-9C94-3CBC2F226CE7";
shapes = (
{
closed = 1;
nodes = (
(275,0,l),
(275,130,l),
(205,130,l),
(205,757,l),
(55,757,l),
(55,0,l)
);
}
);
width = 303;
},
{
anchors = (
{
name = bottom;
pos = (111,0);
},
{
name = center;
pos = (111,392);
},
{
name = dot;
pos = (271,372);
},
{
name = top;
pos = (111,745);
},
{
name = topright;
pos = (221,526);
}
);
layerId = "C1DB0BE6-5704-4A8C-8C00-D80E72C16D98";
shapes = (
{
closed = 1;
nodes = (
(208,0,l),
(208,40,l),
(133,40,l),
(133,757,l),
(88,757,l),
(88,0,l)
);
}
);
width = 252;
}
);
metricLeft = "=l";
metricRight = "=l/2";
},
{
glyphname = l.ss03;
lastChange = "2023-01-30 07:37:07 +0000";
layers = (
{
anchors = (
{
name = bottom;
pos = (115,0);
},
{
name = center;
pos = (115,392);
},
{
name = dot;
pos = (279,372);
},
{
name = top;
pos = (115,745);
},
{
name = topright;
pos = (229,536);
}
);
layerId = "30C2FD74-1A74-41AC-9C29-B288AE1DBDD7";
shapes = (
{
closed = 1;
nodes = (
(227,-6,l),
(227,59,l),
(218,59,ls),
(176,59,o),
(152,79,o),
(152,120,cs),
(152,757,l),
(77,757,l),
(77,114,ls),
(77,35,o),
(125,-6,o),
(210,-6,cs)
);
}
);
width = 266;
},
{
anchors = (
{
name = bottom;
pos = (130,0);
},
{
name = center;
pos = (130,392);
},
{
name = dot;
pos = (340,372);
},
{
name = top;
pos = (130,745);
},
{
name = topright;
pos = (260,546);
}
);
layerId = "9398AC28-6BE1-4A79-9C94-3CBC2F226CE7";
shapes = (
{
closed = 1;
nodes = (
(275,-6,l),
(275,124,l),
(271,124,ls),
(228,124,o),
(205,145,o),
(205,185,cs),
(205,757,l),
(55,757,l),
(55,174,ls),
(55,50,o),
(115,-6,o),
(248,-6,cs)
);
}
);
width = 303;
},
{
anchors = (
{
name = bottom;
pos = (111,0);
},
{
name = center;
pos = (111,392);
},
{
name = dot;
pos = (271,372);
},
{
name = top;
pos = (111,745);
},
{
name = topright;
pos = (221,526);
}
);
layerId = "C1DB0BE6-5704-4A8C-8C00-D80E72C16D98";
shapes = (
{
closed = 1;
nodes = (
(208,-6,l),
(208,34,l),
(199,34,ls),
(155,34,o),
(133,54,o),
(133,94,cs),
(133,757,l),
(88,757,l),
(88,94,ls),
(88,32,o),
(122,-6,o),
(197,-6,cs)
);
}
);
width = 252;
}
);
metricLeft = "=l";
metricRight = "=l/2";
},
{
glyphname = m;
lastChange = "2023-01-30 07:37:07 +0000";
layers = (
{
anchors = (
{
name = bottom;
pos = (454,0);
},
{
name = top;
pos = (454,536);
}
);
layerId = "30C2FD74-1A74-41AC-9C29-B288AE1DBDD7";
shapes = (
{
closed = 1;
nodes = (
(152,0,l),
(152,319,ls),
(152,415,o),
(211,473,o),
(288,473,cs),
(365,473,o),
(422,416,o),
(422,319,cs),
(422,0,l),
(497,0,l),
(497,319,ls),
(497,415,o),
(556,473,o),
(633,473,cs),
(710,473,o),
(767,416,o),
(767,319,cs),
(767,0,l),
(842,0,l),
(842,348,ls),
(842,462,o),
(750,548,o),
(642,548,cs),
(562,548,o),
(490,503,o),
(463,421,c),
(484,422,l),
(456,497,o),
(384,548,o),
(301,548,cs),
(231,548,o),
(169,511,o),
(140,449,c),
(152,434,l),
(152,536,l),
(77,536,l),
(77,0,l)
);
}
);
width = 908;
},
{
anchors = (
{
name = bottom;
pos = (465,0);
},
{
name = top;
pos = (465,546);
}
);
layerId = "9398AC28-6BE1-4A79-9C94-3CBC2F226CE7";
shapes = (
{
closed = 1;
nodes = (
(205,0,l),
(205,319,ls),
(205,382,o),
(241,423,o),
(300,423,cs),
(359,423,o),
(395,382,o),
(395,319,cs),
(395,0,l),
(545,0,l),
(545,319,ls),
(545,382,o),
(581,423,o),
(640,423,cs),
(699,423,o),
(735,382,o),
(735,319,cs),
(735,0,l),
(885,0,l),
(885,351,ls),
(885,475,o),
(801,558,o),
(683,558,cs),
(594,558,o),
(525,516,o),
(489,427,c),
(532,431,l),
(514,508,o),
(439,558,o),
(348,558,cs),
(262,558,o),
(196,519,o),
(180,435,c),
(195,413,l),
(195,546,l),
(55,546,l),
(55,0,l)
);
}
);
width = 929;
},
{
anchors = (
{
name = bottom;
pos = (455,0);
},
{
name = top;
pos = (455,526);
}
);
layerId = "C1DB0BE6-5704-4A8C-8C00-D80E72C16D98";
shapes = (
{
closed = 1;
nodes = (
(133,0,l),
(133,320,ls),
(133,417,o),
(191,495,o),
(286,495,cs),
(368,495,o),
(438,435,o),
(438,340,cs),
(438,0,l),
(483,0,l),
(483,320,ls),
(483,417,o),
(541,495,o),
(636,495,cs),
(718,495,o),
(788,435,o),
(788,340,cs),
(788,0,l),
(833,0,l),
(833,345,ls),
(833,461,o),
(741,538,o),
(640,538,cs),
(553,538,o),
(478,483,o),
(459,403,c),
(475,403,l),
(450,485,o),
(373,538,o),
(290,538,cs),
(213,538,o),
(147,494,o),
(124,428,c),
(133,413,l),
(133,526,l),
(88,526,l),
(88,0,l)
);
}
);
width = 910;
}
);
unicode = 109;
},
{
glyphname = m.ss01;
lastChange = "2023-01-30 07:37:07 +0000";
layers = (
{
layerId = "30C2FD74-1A74-41AC-9C29-B288AE1DBDD7";
shapes = (
{
closed = 1;
nodes = (
(152,0,l),
(152,461,l),
(422,461,l),
(422,0,l),
(497,0,l),
(497,461,l),
(767,461,l),
(767,0,l),
(842,0,l),
(842,536,l),
(77,536,l),
(77,0,l)
);
}
);
width = 908;
},
{
layerId = "9398AC28-6BE1-4A79-9C94-3CBC2F226CE7";
shapes = (
{
closed = 1;
nodes = (
(205,0,l),
(205,416,l),
(395,416,l),
(395,0,l),
(545,0,l),
(545,416,l),
(735,416,l),
(735,0,l),
(885,0,l),
(885,546,l),
(55,546,l),
(55,0,l)
);
}
);
width = 929;
},
{
layerId = "C1DB0BE6-5704-4A8C-8C00-D80E72C16D98";
shapes = (
{
closed = 1;
nodes = (
(133,0,l),
(133,486,l),
(438,486,l),
(438,0,l),
(483,0,l),
(483,486,l),
(788,486,l),
(788,0,l),
(833,0,l),
(833,526,l),
(88,526,l),
(88,0,l)
);
}
);
width = 910;
}
);
metricLeft = "=n";
metricRight = "=n";
},
{
glyphname = m.ss03;
lastChange = "2023-01-30 07:37:07 +0000";
layers = (
{
anchors = (
{
name = bottom;
pos = (454,0);
},
{
name = top;
pos = (454,536);
}
);
layerId = "30C2FD74-1A74-41AC-9C29-B288AE1DBDD7";
shapes = (
{
closed = 1;
nodes = (
(152,0,l),
(152,461,l),
(422,461,l),
(422,0,l),
(497,0,l),
(497,461,l),
(630,461,ls),
(716,461,o),
(767,411,o),
(767,327,cs),
(767,0,l),
(842,0,l),
(842,327,ls),
(842,458,o),
(763,536,o),
(630,536,cs),
(77,536,l),
(77,0,l)
);
}
);
width = 908;
},
{
anchors = (
{
name = bottom;
pos = (465,0);
},
{
name = top;
pos = (465,546);
}
);
layerId = "9398AC28-6BE1-4A79-9C94-3CBC2F226CE7";
shapes = (
{
closed = 1;
nodes = (
(205,0,l),
(205,416,l),
(395,416,l),
(395,0,l),
(545,0,l),
(545,416,l),
(644,416,ls),
(699,416,o),
(735,380,o),
(735,324,cs),
(735,0,l),
(885,0,l),
(885,332,ls),
(885,464,o),
(793,546,o),
(644,546,cs),
(55,546,l),
(55,0,l)
);
}
);
width = 929;
},
{
anchors = (
{
name = bottom;
pos = (455,0);
},
{
name = top;
pos = (455,526);
}
);
layerId = "C1DB0BE6-5704-4A8C-8C00-D80E72C16D98";
shapes = (
{
closed = 1;
nodes = (
(133,0,l),
(133,486,l),
(438,486,l),
(438,0,l),
(483,0,l),
(483,486,l),
(644,486,ls),
(730,486,o),
(788,426,o),
(788,337,cs),
(788,0,l),
(833,0,l),
(833,337,ls),
(833,450,o),
(757,526,o),
(644,526,cs),
(88,526,l),
(88,0,l)
);
}
);
width = 910;
}
);
metricLeft = "=n";
metricRight = "=n";
},
{
glyphname = n;
lastChange = "2023-01-30 07:37:07 +0000";
layers = (
{
anchors = (
{
name = bottom;
pos = (287,0);
},
{
name = top;
pos = (287,536);
}
);
layerId = "30C2FD74-1A74-41AC-9C29-B288AE1DBDD7";
shapes = (
{
closed = 1;
nodes = (
(152,0,l),
(152,319,ls),
(152,415,o),
(211,473,o),
(293,473,cs),
(375,473,o),
(432,416,o),
(432,319,cs),
(432,0,l),
(507,0,l),
(507,348,ls),
(507,462,o),
(419,548,o),
(306,548,cs),
(226,548,o),
(161,505,o),
(135,436,c),
(152,432,l),
(152,536,l),
(77,536,l),
(77,0,l)
);
}
);
width = 573;
},
{
anchors = (
{
name = bottom;
pos = (300,0);
},
{
name = top;
pos = (300,546);
}
);
layerId = "9398AC28-6BE1-4A79-9C94-3CBC2F226CE7";
shapes = (
{
closed = 1;
nodes = (
(205,0,l),
(205,319,ls),
(205,382,o),
(246,423,o),
(305,423,cs),
(364,423,o),
(405,382,o),
(405,319,cs),
(405,0,l),
(555,0,l),
(555,351,ls),
(555,475,o),
(471,558,o),
(348,558,cs),
(272,558,o),
(212,527,o),
(187,462,c),
(195,438,l),
(195,546,l),
(55,546,l),
(55,0,l)
);
}
);
width = 599;
},
{
anchors = (
{
name = bottom;
pos = (285,0);
},
{
name = top;
pos = (285,526);
}
);
layerId = "C1DB0BE6-5704-4A8C-8C00-D80E72C16D98";
shapes = (
{
closed = 1;
nodes = (
(133,0,l),
(133,320,ls),
(133,417,o),
(191,495,o),
(291,495,cs),
(378,495,o),
(448,435,o),
(448,340,cs),
(448,0,l),
(493,0,l),
(493,345,ls),
(493,461,o),
(401,538,o),
(295,538,cs),
(211,538,o),
(142,490,o),
(121,420,c),
(133,415,l),
(133,526,l),
(88,526,l),
(88,0,l)
);
}
);
width = 570;
}
);
unicode = 110;
},
{
glyphname = n.ss01;
lastChange = "2023-01-30 07:37:07 +0000";
layers = (
{
anchors = (
{
name = bottom;
pos = (292,0);
},
{
name = top;
pos = (292,536);
}
);
layerId = "30C2FD74-1A74-41AC-9C29-B288AE1DBDD7";
shapes = (
{
closed = 1;
nodes = (
(152,0,l),
(152,461,l),
(432,461,l),
(432,0,l),
(507,0,l),
(507,536,l),
(77,536,l),
(77,0,l)
);
}
);
width = 584;
},
{
anchors = (
{
name = bottom;
pos = (305,0);
},
{
name = top;
pos = (305,546);
}
);
layerId = "9398AC28-6BE1-4A79-9C94-3CBC2F226CE7";
shapes = (
{
closed = 1;
nodes = (
(205,0,l),
(205,416,l),
(405,416,l),
(405,0,l),
(555,0,l),
(555,546,l),
(55,546,l),
(55,0,l)
);
}
);
width = 610;
},
{
anchors = (
{
name = bottom;
pos = (291,0);
},
{
name = top;
pos = (291,526);
}
);
layerId = "C1DB0BE6-5704-4A8C-8C00-D80E72C16D98";
shapes = (
{
closed = 1;
nodes = (
(133,0,l),
(133,486,l),
(448,486,l),
(448,0,l),
(493,0,l),
(493,526,l),
(88,526,l),
(88,0,l)
);
}
);
width = 581;
}
);
metricLeft = "=n";
metricRight = "=|n";
},
{
glyphname = n.ss03;
lastChange = "2023-01-30 07:37:07 +0000";
layers = (
{
anchors = (
{
name = bottom;
pos = (287,0);
},
{
name = top;
pos = (287,536);
}
);
layerId = "30C2FD74-1A74-41AC-9C29-B288AE1DBDD7";
shapes = (
{
closed = 1;
nodes = (
(152,0,l),
(152,461,l),
(295,461,ls),
(381,461,o),
(432,411,o),
(432,327,cs),
(432,0,l),
(507,0,l),
(507,327,ls),
(507,458,o),
(428,536,o),
(295,536,cs),
(77,536,l),
(77,0,l)
);
}
);
width = 573;
},
{
anchors = (
{
name = bottom;
pos = (300,0);
},
{
name = top;
pos = (300,546);
}
);
layerId = "9398AC28-6BE1-4A79-9C94-3CBC2F226CE7";
shapes = (
{
closed = 1;
nodes = (
(205,0,l),
(205,416,l),
(314,416,ls),
(369,416,o),
(405,380,o),
(405,324,cs),
(405,0,l),
(555,0,l),
(555,332,ls),
(555,464,o),
(463,546,o),
(314,546,cs),
(55,546,l),
(55,0,l)
);
}
);
width = 599;
},
{
anchors = (
{
name = bottom;
pos = (285,0);
},
{
name = top;
pos = (285,526);
}
);
layerId = "C1DB0BE6-5704-4A8C-8C00-D80E72C16D98";
shapes = (
{
closed = 1;
nodes = (
(133,0,l),
(133,486,l),
(304,486,ls),
(390,486,o),
(448,426,o),
(448,337,cs),
(448,0,l),
(493,0,l),
(493,337,ls),
(493,450,o),
(417,526,o),
(304,526,cs),
(88,526,l),
(88,0,l)
);
}
);
width = 570;
}
);
metricLeft = "=n";
metricRight = "=n";
},
{
glyphname = eng;
lastChange = "2023-01-30 07:37:07 +0000";
layers = (
{
layerId = "C1DB0BE6-5704-4A8C-8C00-D80E72C16D98";
shapes = (
{
closed = 1;
nodes = (
(422,-220,o),
(482,-165,o),
(482,-62,cs),
(482,345,ls),
(482,461,o),
(390,538,o),
(284,538,cs),
(200,538,o),
(131,490,o),
(110,420,c),
(122,415,l),
(122,526,l),
(77,526,l),
(77,0,l),
(122,0,l),
(122,320,ls),
(122,417,o),
(180,495,o),
(280,495,cs),
(367,495,o),
(437,435,o),
(437,340,cs),
(437,-62,ls),
(437,-137,o),
(397,-177,o),
(328,-177,cs),
(317,-177,o),
(303,-176,o),
(292,-174,c),
(292,-215,l),
(302,-218,o),
(315,-220,o),
(331,-220,cs)
);
}
);
width = 600;
},
{
layerId = "30C2FD74-1A74-41AC-9C29-B288AE1DBDD7";
shapes = (
{
closed = 1;
nodes = (
(415,-220,o),
(495,-161,o),
(495,-50,cs),
(495,348,ls),
(495,462,o),
(407,548,o),
(294,548,cs),
(214,548,o),
(149,505,o),
(123,436,c),
(140,432,l),
(140,536,l),
(65,536,l),
(65,0,l),
(140,0,l),
(140,319,ls),
(140,415,o),
(199,473,o),
(281,473,cs),
(363,473,o),
(420,416,o),
(420,319,cs),
(420,-50,ls),
(420,-117,o),
(376,-150,o),
(322,-150,cs),
(309,-150,o),
(294,-149,o),
(280,-147,c),
(280,-216,l),
(290,-219,o),
(311,-220,o),
(320,-220,cs)
);
}
);
width = 600;
},
{
layerId = "9398AC28-6BE1-4A79-9C94-3CBC2F226CE7";
shapes = (
{
closed = 1;
nodes = (
(470,-222,o),
(550,-149,o),
(550,-20,cs),
(550,351,ls),
(550,475,o),
(466,558,o),
(343,558,cs),
(267,558,o),
(207,527,o),
(182,462,c),
(190,438,l),
(190,546,l),
(50,546,l),
(50,0,l),
(200,0,l),
(200,319,ls),
(200,382,o),
(241,423,o),
(300,423,cs),
(359,423,o),
(400,382,o),
(400,319,cs),
(400,-20,ls),
(400,-68,o),
(371,-92,o),
(314,-92,cs),
(302,-92,o),
(291,-91,o),
(280,-89,c),
(280,-217,l),
(293,-220,o),
(314,-222,o),
(334,-222,cs)
);
}
);
width = 600;
}
);
unicode = 331;
},
{
glyphname = eng.ss01;
lastChange = "2023-01-30 07:37:07 +0000";
layers = (
{
layerId = "C1DB0BE6-5704-4A8C-8C00-D80E72C16D98";
shapes = (
{
closed = 1;
nodes = (
(433,-220,o),
(493,-165,o),
(493,-62,cs),
(493,526,l),
(88,526,l),
(88,0,l),
(133,0,l),
(133,486,l),
(448,486,l),
(448,-62,ls),
(448,-137,o),
(408,-177,o),
(339,-177,cs),
(328,-177,o),
(314,-176,o),
(303,-174,c),
(303,-215,l),
(313,-218,o),
(326,-220,o),
(342,-220,cs)
);
}
);
width = 570;
},
{
layerId = "30C2FD74-1A74-41AC-9C29-B288AE1DBDD7";
shapes = (
{
closed = 1;
nodes = (
(427,-220,o),
(507,-161,o),
(507,-50,cs),
(507,536,l),
(77,536,l),
(77,0,l),
(152,0,l),
(152,461,l),
(432,461,l),
(432,-50,ls),
(432,-117,o),
(388,-150,o),
(334,-150,cs),
(321,-150,o),
(306,-149,o),
(292,-147,c),
(292,-216,l),
(302,-219,o),
(323,-220,o),
(332,-220,cs)
);
}
);
width = 573;
},
{
layerId = "9398AC28-6BE1-4A79-9C94-3CBC2F226CE7";
shapes = (
{
closed = 1;
nodes = (
(475,-222,o),
(555,-149,o),
(555,-20,cs),
(555,546,l),
(55,546,l),
(55,0,l),
(205,0,l),
(205,416,l),
(405,416,l),
(405,-20,ls),
(405,-68,o),
(376,-92,o),
(319,-92,cs),
(307,-92,o),
(296,-91,o),
(285,-89,c),
(285,-217,l),
(298,-220,o),
(319,-222,o),
(339,-222,cs)
);
}
);
width = 599;
}
);
metricLeft = "=n";
metricRight = "=n";
},
{
glyphname = eng.ss03;
lastChange = "2023-01-30 07:37:07 +0000";
layers = (
{
layerId = "C1DB0BE6-5704-4A8C-8C00-D80E72C16D98";
shapes = (
{
closed = 1;
nodes = (
(433,-220,o),
(493,-165,o),
(493,-62,cs),
(493,337,ls),
(493,450,o),
(417,526,o),
(304,526,cs),
(88,526,l),
(88,0,l),
(133,0,l),
(133,486,l),
(304,486,ls),
(390,486,o),
(448,426,o),
(448,337,cs),
(448,-62,ls),
(448,-137,o),
(408,-177,o),
(339,-177,cs),
(328,-177,o),
(314,-176,o),
(303,-174,c),
(303,-215,l),
(313,-218,o),
(326,-220,o),
(342,-220,cs)
);
}
);
width = 570;
},
{
layerId = "30C2FD74-1A74-41AC-9C29-B288AE1DBDD7";
shapes = (
{
closed = 1;
nodes = (
(427,-220,o),
(507,-161,o),
(507,-50,cs),
(507,327,ls),
(507,458,o),
(428,536,o),
(295,536,cs),
(77,536,l),
(77,0,l),
(152,0,l),
(152,461,l),
(295,461,ls),
(381,461,o),
(432,411,o),
(432,327,cs),
(432,-50,ls),
(432,-117,o),
(388,-150,o),
(334,-150,cs),
(321,-150,o),
(306,-149,o),
(292,-147,c),
(292,-216,l),
(302,-219,o),
(323,-220,o),
(332,-220,cs)
);
}
);
width = 573;
},
{
layerId = "9398AC28-6BE1-4A79-9C94-3CBC2F226CE7";
shapes = (
{
closed = 1;
nodes = (
(475,-222,o),
(555,-149,o),
(555,-20,cs),
(555,332,ls),
(555,464,o),
(463,546,o),
(314,546,cs),
(55,546,l),
(55,0,l),
(205,0,l),
(205,416,l),
(314,416,ls),
(369,416,o),
(405,380,o),
(405,324,cs),
(405,-20,ls),
(405,-68,o),
(376,-92,o),
(319,-92,cs),
(307,-92,o),
(296,-91,o),
(285,-89,c),
(285,-217,l),
(298,-220,o),
(319,-222,o),
(339,-222,cs)
);
}
);
width = 599;
}
);
metricLeft = "=n";
metricRight = "=n";
},
{
glyphname = o;
lastChange = "2023-01-30 07:44:26 +0000";
layers = (
{
anchors = (
{
name = bottom;
pos = (328,0);
},
{
name = center;
pos = (328,268);
},
{
name = ogonek;
pos = (378,0);
},
{
name = top;
pos = (328,536);
},
{
name = topright;
pos = (635,536);
}
);
layerId = "30C2FD74-1A74-41AC-9C29-B288AE1DBDD7";
shapes = (
{
closed = 1;
nodes = (
(483,-12,o),
(601,110,o),
(601,269,cs),
(601,429,o),
(485,548,o),
(328,548,cs),
(171,548,o),
(55,429,o),
(55,269,cs),
(55,110,o),
(173,-12,o),
(328,-12,cs)
);
},
{
closed = 1;
nodes = (
(219,63,o),
(135,153,o),
(135,269,cs),
(135,384,o),
(219,473,o),
(328,473,cs),
(437,473,o),
(521,384,o),
(521,269,cs),
(521,153,o),
(437,63,o),
(328,63,cs)
);
}
);
width = 656;
},
{
anchors = (
{
name = bottom;
pos = (326,0);
},
{
name = center;
pos = (326,273);
},
{
name = ogonek;
pos = (376,0);
},
{
name = top;
pos = (326,546);
},
{
name = topright;
pos = (631,546);
}
);
layerId = "9398AC28-6BE1-4A79-9C94-3CBC2F226CE7";
shapes = (
{
closed = 1;
nodes = (
(492,-12,o),
(619,112,o),
(619,273,cs),
(619,434,o),
(492,558,o),
(326,558,cs),
(160,558,o),
(33,434,o),
(33,273,cs),
(33,112,o),
(160,-12,o),
(326,-12,cs)
);
},
{
closed = 1;
nodes = (
(244,123,o),
(188,184,o),
(188,273,cs),
(188,361,o),
(245,423,o),
(326,423,cs),
(407,423,o),
(464,361,o),
(464,273,cs),
(464,185,o),
(408,123,o),
(326,123,cs)
);
}
);
width = 652;
},
{
anchors = (
{
name = bottom;
pos = (331,0);
},
{
name = center;
pos = (331,263);
},
{
name = ogonek;
pos = (381,0);
},
{
name = top;
pos = (331,526);
},
{
name = topright;
pos = (642,526);
}
);
layerId = "C1DB0BE6-5704-4A8C-8C00-D80E72C16D98";
shapes = (
{
closed = 1;
nodes = (
(482,-12,o),
(596,106,o),
(596,263,cs),
(596,420,o),
(482,538,o),
(331,538,cs),
(180,538,o),
(66,420,o),
(66,263,cs),
(66,106,o),
(180,-12,o),
(331,-12,cs)
);
},
{
closed = 1;
nodes = (
(209,31,o),
(114,132,o),
(114,263,cs),
(114,394,o),
(208,495,o),
(331,495,cs),
(454,495,o),
(548,394,o),
(548,263,cs),
(548,132,o),
(453,31,o),
(331,31,cs)
);
}
);
width = 662;
}
);
metricRight = "=|";
unicode = 111;
},
{
glyphname = ohorn;
lastChange = "2023-05-19 07:51:19 +0000";
layers = (
{
anchors = (
{
name = bottom;
pos = (331,0);
},
{
name = center;
pos = (331,263);
},
{
name = ogonek;
pos = (381,30);
},
{
name = top;
pos = (331,526);
},
{
name = topright;
pos = (642,526);
}
);
layerId = "C1DB0BE6-5704-4A8C-8C00-D80E72C16D98";
shapes = (
{
closed = 1;
nodes = (
(482,-12,o),
(596,106,o),
(596,263,cs),
(596,372,o),
(542,461,o),
(459,506,c),
(455,497,l),
(507,499,o),
(543,523,o),
(543,567,cs),
(543,596,o),
(533,625,o),
(522,654,c),
(477,654,l),
(487,627,o),
(497,601,o),
(497,573,cs),
(497,548,o),
(476,538,o),
(444,538,cs),
(331,538,ls),
(180,538,o),
(66,420,o),
(66,263,cs),
(66,106,o),
(180,-12,o),
(331,-12,cs)
);
},
{
closed = 1;
nodes = (
(209,31,o),
(114,132,o),
(114,263,cs),
(114,394,o),
(208,495,o),
(331,495,cs),
(454,495,o),
(548,394,o),
(548,263,cs),
(548,132,o),
(453,31,o),
(331,31,cs)
);
}
);
width = 662;
},
{
anchors = (
{
name = bottom;
pos = (328,0);
},
{
name = center;
pos = (328,268);
},
{
name = ogonek;
pos = (378,40);
},
{
name = top;
pos = (328,536);
},
{
name = topright;
pos = (635,536);
}
);
layerId = "30C2FD74-1A74-41AC-9C29-B288AE1DBDD7";
shapes = (
{
closed = 1;
nodes = (
(477,-12,o),
(600,104,o),
(600,269,cs),
(600,369,o),
(555,452,o),
(483,501,c),
(480,490,l),
(532,496,o),
(567,524,o),
(567,574,cs),
(567,607,o),
(556,634,o),
(544,661,c),
(470,661,l),
(482,634,o),
(492,609,o),
(492,581,cs),
(492,554,o),
(467,548,o),
(441,548,cs),
(328,548,ls),
(172,548,o),
(55,429,o),
(55,269,cs),
(55,107,o),
(176,-12,o),
(328,-12,cs)
);
},
{
closed = 1;
nodes = (
(220,63,o),
(135,152,o),
(135,269,cs),
(135,385,o),
(220,473,o),
(328,473,cs),
(435,473,o),
(520,385,o),
(520,269,cs),
(520,152,o),
(435,63,o),
(328,63,cs)
);
}
);
width = 655;
},
{
anchors = (
{
name = bottom;
pos = (326,0);
},
{
name = center;
pos = (326,273);
},
{
name = ogonek;
pos = (326,41);
},
{
name = top;
pos = (326,546);
},
{
name = topright;
pos = (631,546);
}
);
layerId = "9398AC28-6BE1-4A79-9C94-3CBC2F226CE7";
shapes = (
{
closed = 1;
nodes = (
(487,-12,o),
(618,108,o),
(618,273,cs),
(618,370,o),
(573,451,o),
(505,501,c),
(494,457,l),
(561,466,o),
(606,493,o),
(606,544,cs),
(606,580,o),
(596,605,o),
(583,633,c),
(457,633,l),
(467,618,o),
(477,600,o),
(477,587,cs),
(477,556,o),
(442,558,o),
(430,558,cs),
(326,558,ls),
(164,558,o),
(33,438,o),
(33,273,cs),
(33,108,o),
(164,-12,o),
(326,-12,cs)
);
},
{
closed = 1;
nodes = (
(244,123,o),
(188,185,o),
(188,273,cs),
(188,360,o),
(244,423,o),
(326,423,cs),
(407,423,o),
(463,360,o),
(463,273,cs),
(463,185,o),
(407,123,o),
(326,123,cs)
);
}
);
width = 651;
}
);
metricLeft = "=o";
metricRight = "=o";
unicode = 417;
},
{
glyphname = oe;
lastChange = "2023-01-30 07:37:07 +0000";
layers = (
{
layerId = "30C2FD74-1A74-41AC-9C29-B288AE1DBDD7";
shapes = (
{
closed = 1;
nodes = (
(435,-12,o),
(529,48,o),
(573,144,c),
(551,144,l),
(594,49,o),
(683,-12,o),
(791,-12,cs),
(900,-12,o),
(986,49,o),
(1019,122,c),
(955,156,l),
(921,100,o),
(869,58,o),
(791,58,cs),
(695,58,o),
(607,130,o),
(604,245,c),
(1026,245,l),
(1029,262,o),
(1030,280,o),
(1030,293,cs),
(1030,421,o),
(937,548,o),
(783,548,cs),
(678,548,o),
(592,489,o),
(550,395,c),
(572,396,l),
(530,488,o),
(438,548,o),
(328,548,cs),
(172,548,o),
(55,429,o),
(55,269,cs),
(55,107,o),
(176,-12,o),
(328,-12,cs)
);
},
{
closed = 1;
nodes = (
(220,63,o),
(135,152,o),
(135,269,cs),
(135,385,o),
(220,473,o),
(328,473,cs),
(435,473,o),
(520,385,o),
(520,269,cs),
(520,152,o),
(435,63,o),
(328,63,cs)
);
},
{
closed = 1;
nodes = (
(617,415,o),
(696,478,o),
(783,478,cs),
(873,478,o),
(949,410,o),
(949,315,c),
(606,315,l)
);
}
);
width = 1085;
},
{
layerId = "9398AC28-6BE1-4A79-9C94-3CBC2F226CE7";
shapes = (
{
closed = 1;
nodes = (
(427,-12,o),
(515,35,o),
(568,110,c),
(514,109,l),
(563,36,o),
(646,-12,o),
(752,-12,cs),
(864,-12,o),
(954,41,o),
(987,121,c),
(867,178,l),
(846,141,o),
(807,118,o),
(754,118,cs),
(680,118,o),
(632,162,o),
(623,231,c),
(1005,231,l),
(1010,246,o),
(1012,267,o),
(1012,289,cs),
(1012,440,o),
(915,558,o),
(742,558,cs),
(645,558,o),
(561,511,o),
(514,435,c),
(568,436,l),
(515,511,o),
(426,558,o),
(326,558,cs),
(164,558,o),
(33,438,o),
(33,273,cs),
(33,108,o),
(164,-12,o),
(326,-12,cs)
);
},
{
closed = 1;
nodes = (
(244,123,o),
(188,185,o),
(188,273,cs),
(188,360,o),
(244,423,o),
(326,423,cs),
(407,423,o),
(463,360,o),
(463,273,cs),
(463,185,o),
(407,123,o),
(326,123,cs)
);
},
{
closed = 1;
nodes = (
(640,404,o),
(683,438,o),
(742,438,cs),
(804,438,o),
(847,399,o),
(853,341,c),
(626,341,l)
);
}
);
width = 1045;
},
{
layerId = "C1DB0BE6-5704-4A8C-8C00-D80E72C16D98";
shapes = (
{
closed = 1;
nodes = (
(452,-12,o),
(548,63,o),
(582,173,c),
(565,173,l),
(601,63,o),
(697,-12,o),
(817,-12,cs),
(911,-12,o),
(993,36,o),
(1032,113,c),
(994,133,l),
(957,68,o),
(893,30,o),
(817,30,cs),
(695,30,o),
(604,123,o),
(597,249,c),
(1044,249,l),
(1046,264,o),
(1047,275,o),
(1047,288,cs),
(1047,430,o),
(944,538,o),
(807,538,cs),
(693,538,o),
(599,463,o),
(566,353,c),
(582,354,l),
(548,464,o),
(451,538,o),
(331,538,cs),
(180,538,o),
(66,420,o),
(66,263,cs),
(66,106,o),
(180,-12,o),
(331,-12,cs)
);
},
{
closed = 1;
nodes = (
(209,31,o),
(114,132,o),
(114,263,cs),
(114,394,o),
(208,495,o),
(331,495,cs),
(454,495,o),
(548,394,o),
(548,263,cs),
(548,132,o),
(453,31,o),
(331,31,cs)
);
},
{
closed = 1;
nodes = (
(609,407,o),
(697,496,o),
(807,496,cs),
(917,496,o),
(1001,406,o),
(1001,289,c),
(598,289,l)
);
}
);
width = 1113;
}
);
metricLeft = "=o";
metricRight = "=e";
unicode = 339;
},
{
glyphname = p;
lastChange = "2023-01-30 07:37:07 +0000";
layers = (
{
anchors = (
{
name = bottom;
pos = (334,0);
},
{
name = top;
pos = (334,536);
}
);
layerId = "30C2FD74-1A74-41AC-9C29-B288AE1DBDD7";
shapes = (
{
closed = 1;
nodes = (
(152,-200,l),
(152,120,l),
(140,109,l),
(177,32,o),
(256,-12,o),
(348,-12,cs),
(499,-12,o),
(612,107,o),
(612,268,cs),
(612,429,o),
(500,548,o),
(348,548,cs),
(256,548,o),
(182,505,o),
(140,437,c),
(152,416,l),
(152,536,l),
(77,536,l),
(77,-200,l)
);
},
{
closed = 1;
nodes = (
(236,63,o),
(152,152,o),
(152,268,cs),
(152,384,o),
(236,473,o),
(344,473,cs),
(451,473,o),
(532,385,o),
(532,268,cs),
(532,151,o),
(452,63,o),
(344,63,cs)
);
}
);
width = 667;
},
{
anchors = (
{
name = bottom;
pos = (337,0);
},
{
name = top;
pos = (337,546);
}
);
layerId = "9398AC28-6BE1-4A79-9C94-3CBC2F226CE7";
shapes = (
{
closed = 1;
nodes = (
(205,-200,l),
(205,100,l),
(181,69,l),
(219,16,o),
(286,-12,o),
(361,-12,cs),
(521,-12,o),
(640,114,o),
(640,273,cs),
(640,433,o),
(518,558,o),
(362,558,cs),
(282,558,o),
(218,527,o),
(182,472,c),
(195,442,l),
(195,546,l),
(55,546,l),
(55,-200,l)
);
},
{
closed = 1;
nodes = (
(262,123,o),
(205,184,o),
(205,273,cs),
(205,361,o),
(262,423,o),
(343,423,cs),
(426,423,o),
(485,360,o),
(485,273,cs),
(485,185,o),
(426,123,o),
(343,123,cs)
);
}
);
width = 673;
},
{
anchors = (
{
name = bottom;
pos = (337,0);
},
{
name = top;
pos = (337,526);
}
);
layerId = "C1DB0BE6-5704-4A8C-8C00-D80E72C16D98";
shapes = (
{
closed = 1;
nodes = (
(133,-200,l),
(133,149,l),
(125,132,l),
(163,45,o),
(248,-12,o),
(349,-12,cs),
(496,-12,o),
(608,107,o),
(608,263,cs),
(608,419,o),
(496,538,o),
(349,538,cs),
(248,538,o),
(163,481,o),
(125,394,c),
(133,377,l),
(133,526,l),
(88,526,l),
(88,-200,l)
);
},
{
closed = 1;
nodes = (
(228,33,o),
(136,130,o),
(136,263,cs),
(136,396,o),
(228,493,o),
(349,493,cs),
(471,493,o),
(560,395,o),
(560,263,cs),
(560,131,o),
(471,33,o),
(349,33,cs)
);
}
);
width = 674;
}
);
unicode = 112;
},
{
glyphname = p.ss02;
lastChange = "2023-01-30 07:37:07 +0000";
layers = (
{
layerId = "30C2FD74-1A74-41AC-9C29-B288AE1DBDD7";
shapes = (
{
closed = 1;
nodes = (
(189,-200,l),
(189,120,l),
(177,109,l),
(214,32,o),
(293,-12,o),
(385,-12,cs),
(536,-12,o),
(649,107,o),
(649,268,cs),
(649,429,o),
(537,548,o),
(385,548,cs),
(293,548,o),
(219,505,o),
(177,437,c),
(189,416,l),
(189,536,l),
(39,536,l),
(39,466,l),
(114,466,l),
(114,-200,l)
);
},
{
closed = 1;
nodes = (
(273,63,o),
(189,152,o),
(189,268,cs),
(189,384,o),
(273,473,o),
(381,473,cs),
(488,473,o),
(569,385,o),
(569,268,cs),
(569,151,o),
(489,63,o),
(381,63,cs)
);
}
);
width = 704;
},
{
layerId = "9398AC28-6BE1-4A79-9C94-3CBC2F226CE7";
shapes = (
{
closed = 1;
nodes = (
(248,-200,l),
(248,100,l),
(224,69,l),
(262,16,o),
(329,-12,o),
(404,-12,cs),
(563,-12,o),
(682,114,o),
(682,273,cs),
(682,433,o),
(560,558,o),
(405,558,cs),
(325,558,o),
(261,527,o),
(225,472,c),
(238,442,l),
(238,546,l),
(28,546,l),
(28,416,l),
(98,416,l),
(98,-200,l)
);
},
{
closed = 1;
nodes = (
(305,123,o),
(248,184,o),
(248,273,cs),
(248,361,o),
(305,423,o),
(386,423,cs),
(468,423,o),
(527,360,o),
(527,273,cs),
(527,185,o),
(468,123,o),
(386,123,cs)
);
}
);
width = 715;
},
{
layerId = "C1DB0BE6-5704-4A8C-8C00-D80E72C16D98";
shapes = (
{
closed = 1;
nodes = (
(164,-200,l),
(164,149,l),
(156,132,l),
(194,45,o),
(279,-12,o),
(380,-12,cs),
(527,-12,o),
(639,107,o),
(639,263,cs),
(639,419,o),
(527,538,o),
(380,538,cs),
(279,538,o),
(194,481,o),
(156,394,c),
(164,377,l),
(164,526,l),
(44,526,l),
(44,486,l),
(119,486,l),
(119,-200,l)
);
},
{
closed = 1;
nodes = (
(259,33,o),
(167,130,o),
(167,263,cs),
(167,396,o),
(259,493,o),
(380,493,cs),
(502,493,o),
(591,395,o),
(591,263,cs),
(591,131,o),
(502,33,o),
(380,33,cs)
);
}
);
width = 705;
}
);
metricLeft = "=p/2";
metricRight = "=o";
},
{
glyphname = thorn;
lastChange = "2023-01-30 07:37:07 +0000";
layers = (
{
layerId = "30C2FD74-1A74-41AC-9C29-B288AE1DBDD7";
shapes = (
{
closed = 1;
nodes = (
(152,-200,l),
(152,120,l),
(140,109,l),
(177,32,o),
(256,-12,o),
(348,-12,cs),
(499,-12,o),
(612,107,o),
(612,268,cs),
(612,429,o),
(500,548,o),
(348,548,cs),
(256,548,o),
(182,505,o),
(140,437,c),
(152,416,l),
(152,745,l),
(77,745,l),
(77,-200,l)
);
},
{
closed = 1;
nodes = (
(236,63,o),
(152,152,o),
(152,268,cs),
(152,384,o),
(236,473,o),
(344,473,cs),
(451,473,o),
(532,385,o),
(532,268,cs),
(532,151,o),
(452,63,o),
(344,63,cs)
);
}
);
width = 667;
},
{
layerId = "9398AC28-6BE1-4A79-9C94-3CBC2F226CE7";
shapes = (
{
closed = 1;
nodes = (
(205,-200,l),
(205,100,l),
(181,69,l),
(219,16,o),
(286,-12,o),
(361,-12,cs),
(521,-12,o),
(640,114,o),
(640,273,cs),
(640,433,o),
(518,558,o),
(362,558,cs),
(282,558,o),
(218,527,o),
(182,472,c),
(195,442,l),
(195,745,l),
(55,745,l),
(55,-200,l)
);
},
{
closed = 1;
nodes = (
(262,123,o),
(205,184,o),
(205,273,cs),
(205,361,o),
(262,423,o),
(343,423,cs),
(426,423,o),
(485,360,o),
(485,273,cs),
(485,185,o),
(426,123,o),
(343,123,cs)
);
}
);
width = 673;
},
{
layerId = "C1DB0BE6-5704-4A8C-8C00-D80E72C16D98";
shapes = (
{
closed = 1;
nodes = (
(133,-200,l),
(133,149,l),
(125,132,l),
(163,45,o),
(248,-12,o),
(349,-12,cs),
(496,-12,o),
(608,107,o),
(608,263,cs),
(608,419,o),
(496,538,o),
(349,538,cs),
(248,538,o),
(163,481,o),
(125,394,c),
(133,377,l),
(133,745,l),
(88,745,l),
(88,-200,l)
);
},
{
closed = 1;
nodes = (
(228,33,o),
(136,130,o),
(136,263,cs),
(136,396,o),
(228,493,o),
(349,493,cs),
(471,493,o),
(560,395,o),
(560,263,cs),
(560,131,o),
(471,33,o),
(349,33,cs)
);
}
);
width = 674;
}
);
metricLeft = "=p";
metricRight = "=p";
unicode = 254;
},
{
glyphname = q;
lastChange = "2023-01-30 07:37:07 +0000";
layers = (
{
anchors = (
{
name = bottom;
pos = (334,0);
},
{
name = top;
pos = (334,536);
}
);
layerId = "30C2FD74-1A74-41AC-9C29-B288AE1DBDD7";
shapes = (
{
closed = 1;
nodes = (
(590,-200,l),
(590,536,l),
(515,536,l),
(515,416,l),
(527,437,l),
(485,505,o),
(411,548,o),
(319,548,cs),
(167,548,o),
(55,429,o),
(55,268,cs),
(55,107,o),
(168,-12,o),
(319,-12,cs),
(411,-12,o),
(490,32,o),
(527,109,c),
(515,120,l),
(515,-200,l)
);
},
{
closed = 1;
nodes = (
(215,63,o),
(135,151,o),
(135,268,cs),
(135,385,o),
(216,473,o),
(323,473,cs),
(431,473,o),
(515,384,o),
(515,268,cs),
(515,152,o),
(431,63,o),
(323,63,cs)
);
}
);
width = 667;
},
{
anchors = (
{
name = bottom;
pos = (337,0);
},
{
name = top;
pos = (337,546);
}
);
layerId = "9398AC28-6BE1-4A79-9C94-3CBC2F226CE7";
shapes = (
{
closed = 1;
nodes = (
(618,-200,l),
(618,546,l),
(478,546,l),
(478,442,l),
(491,472,l),
(455,527,o),
(391,558,o),
(311,558,cs),
(155,558,o),
(33,433,o),
(33,273,cs),
(33,114,o),
(152,-12,o),
(312,-12,cs),
(387,-12,o),
(454,16,o),
(492,69,c),
(468,100,l),
(468,-200,l)
);
},
{
closed = 1;
nodes = (
(247,123,o),
(188,185,o),
(188,273,cs),
(188,360,o),
(247,423,o),
(330,423,cs),
(411,423,o),
(468,361,o),
(468,273,cs),
(468,184,o),
(411,123,o),
(330,123,cs)
);
}
);
width = 673;
},
{
anchors = (
{
name = bottom;
pos = (337,0);
},
{
name = top;
pos = (337,526);
}
);
layerId = "C1DB0BE6-5704-4A8C-8C00-D80E72C16D98";
shapes = (
{
closed = 1;
nodes = (
(586,-200,l),
(586,526,l),
(541,526,l),
(541,377,l),
(549,394,l),
(511,481,o),
(426,538,o),
(325,538,cs),
(178,538,o),
(66,419,o),
(66,263,cs),
(66,107,o),
(178,-12,o),
(325,-12,cs),
(426,-12,o),
(511,45,o),
(549,132,c),
(541,149,l),
(541,-200,l)
);
},
{
closed = 1;
nodes = (
(203,33,o),
(114,131,o),
(114,263,cs),
(114,395,o),
(203,493,o),
(325,493,cs),
(446,493,o),
(538,396,o),
(538,263,cs),
(538,130,o),
(446,33,o),
(325,33,cs)
);
}
);
width = 674;
}
);
unicode = 113;
},
{
glyphname = q.ss02;
lastChange = "2023-01-30 07:37:07 +0000";
layers = (
{
layerId = "30C2FD74-1A74-41AC-9C29-B288AE1DBDD7";
shapes = (
{
closed = 1;
nodes = (
(590,-200,l),
(590,466,l),
(665,466,l),
(665,536,l),
(515,536,l),
(515,416,l),
(527,437,l),
(485,505,o),
(411,548,o),
(319,548,cs),
(167,548,o),
(55,429,o),
(55,268,cs),
(55,107,o),
(168,-12,o),
(319,-12,cs),
(411,-12,o),
(490,32,o),
(527,109,c),
(515,120,l),
(515,-200,l)
);
},
{
closed = 1;
nodes = (
(215,63,o),
(135,151,o),
(135,268,cs),
(135,385,o),
(216,473,o),
(323,473,cs),
(431,473,o),
(515,384,o),
(515,268,cs),
(515,152,o),
(431,63,o),
(323,63,cs)
);
}
);
width = 704;
},
{
layerId = "9398AC28-6BE1-4A79-9C94-3CBC2F226CE7";
shapes = (
{
closed = 1;
nodes = (
(617,-200,l),
(617,416,l),
(687,416,l),
(687,546,l),
(477,546,l),
(477,442,l),
(490,472,l),
(454,527,o),
(390,558,o),
(310,558,cs),
(155,558,o),
(33,433,o),
(33,273,cs),
(33,114,o),
(152,-12,o),
(311,-12,cs),
(386,-12,o),
(453,16,o),
(491,69,c),
(467,100,l),
(467,-200,l)
);
},
{
closed = 1;
nodes = (
(247,123,o),
(188,185,o),
(188,273,cs),
(188,360,o),
(247,423,o),
(329,423,cs),
(410,423,o),
(467,361,o),
(467,273,cs),
(467,184,o),
(410,123,o),
(329,123,cs)
);
}
);
width = 715;
},
{
layerId = "C1DB0BE6-5704-4A8C-8C00-D80E72C16D98";
shapes = (
{
closed = 1;
nodes = (
(586,-200,l),
(586,486,l),
(661,486,l),
(661,526,l),
(541,526,l),
(541,377,l),
(549,394,l),
(511,481,o),
(426,538,o),
(325,538,cs),
(178,538,o),
(66,419,o),
(66,263,cs),
(66,107,o),
(178,-12,o),
(325,-12,cs),
(426,-12,o),
(511,45,o),
(549,132,c),
(541,149,l),
(541,-200,l)
);
},
{
closed = 1;
nodes = (
(203,33,o),
(114,131,o),
(114,263,cs),
(114,395,o),
(203,493,o),
(325,493,cs),
(446,493,o),
(538,396,o),
(538,263,cs),
(538,130,o),
(446,33,o),
(325,33,cs)
);
}
);
width = 705;
}
);
metricLeft = "=o";
metricRight = "=|p/2";
},
{
glyphname = r;
lastChange = "2023-01-30 07:37:07 +0000";
layers = (
{
anchors = (
{
name = bottom;
pos = (115,0);
},
{
name = top;
pos = (202,536);
}
);
layerId = "30C2FD74-1A74-41AC-9C29-B288AE1DBDD7";
shapes = (
{
closed = 1;
nodes = (
(152,0,l),
(152,330,ls),
(152,418,o),
(203,468,o),
(280,468,cs),
(327,468,l),
(327,543,l),
(293,543,ls),
(219,543,o),
(167,512,o),
(142,461,c),
(152,448,l),
(152,536,l),
(77,536,l),
(77,0,l)
);
}
);
width = 338;
},
{
anchors = (
{
name = bottom;
pos = (130,0);
},
{
name = top;
pos = (215,546);
}
);
layerId = "9398AC28-6BE1-4A79-9C94-3CBC2F226CE7";
shapes = (
{
closed = 1;
nodes = (
(205,0,l),
(205,294,ls),
(205,375,o),
(255,422,o),
(328,422,cs),
(375,422,l),
(375,552,l),
(343,552,ls),
(267,552,o),
(209,526,o),
(185,434,c),
(195,415,l),
(195,546,l),
(55,546,l),
(55,0,l)
);
}
);
width = 386;
},
{
anchors = (
{
name = bottom;
pos = (111,0);
},
{
name = top;
pos = (203,526);
}
);
layerId = "C1DB0BE6-5704-4A8C-8C00-D80E72C16D98";
shapes = (
{
closed = 1;
nodes = (
(133,0,l),
(133,320,ls),
(133,417,o),
(188,487,o),
(284,487,cs),
(318,487,l),
(318,532,l),
(285,532,ls),
(206,532,o),
(141,490,o),
(121,420,c),
(133,415,l),
(133,526,l),
(88,526,l),
(88,0,l)
);
}
);
width = 340;
}
);
unicode = 114;
},
{
glyphname = r.ss01;
lastChange = "2023-01-30 07:37:07 +0000";
layers = (
{
anchors = (
{
name = bottom;
pos = (115,0);
},
{
name = top;
pos = (202,536);
}
);
layerId = "30C2FD74-1A74-41AC-9C29-B288AE1DBDD7";
shapes = (
{
closed = 1;
nodes = (
(152,0,l),
(152,461,l),
(337,461,l),
(337,536,l),
(77,536,l),
(77,0,l)
);
}
);
width = 348;
},
{
anchors = (
{
name = bottom;
pos = (130,0);
},
{
name = top;
pos = (215,546);
}
);
layerId = "9398AC28-6BE1-4A79-9C94-3CBC2F226CE7";
shapes = (
{
closed = 1;
nodes = (
(205,0,l),
(205,416,l),
(375,416,l),
(375,546,l),
(55,546,l),
(55,0,l)
);
}
);
width = 386;
},
{
anchors = (
{
name = bottom;
pos = (111,0);
},
{
name = top;
pos = (203,526);
}
);
layerId = "C1DB0BE6-5704-4A8C-8C00-D80E72C16D98";
shapes = (
{
closed = 1;
nodes = (
(134,0,l),
(134,481,l),
(328,481,l),
(328,526,l),
(88,526,l),
(88,0,l)
);
}
);
width = 350;
}
);
metricLeft = "=n";
metricRight = "=r";
},
{
glyphname = r.ss02;
lastChange = "2023-01-30 07:37:07 +0000";
layers = (
{
anchors = (
{
name = bottom;
pos = (162,0);
},
{
name = top;
pos = (202,536);
}
);
layerId = "30C2FD74-1A74-41AC-9C29-B288AE1DBDD7";
shapes = (
{
closed = 1;
nodes = (
(284,0,l),
(284,75,l),
(189,75,l),
(189,330,ls),
(189,418,o),
(240,468,o),
(317,468,cs),
(364,468,l),
(364,543,l),
(330,543,ls),
(255,543,o),
(203,511,o),
(178,459,c),
(189,442,l),
(189,536,l),
(39,536,l),
(39,461,l),
(114,461,l),
(114,75,l),
(39,75,l),
(39,0,l)
);
}
);
width = 375;
},
{
anchors = (
{
name = bottom;
pos = (203,0);
},
{
name = top;
pos = (233,546);
}
);
layerId = "9398AC28-6BE1-4A79-9C94-3CBC2F226CE7";
shapes = (
{
closed = 1;
nodes = (
(378,0,l),
(378,130,l),
(268,130,l),
(268,294,ls),
(268,375,o),
(318,422,o),
(391,422,cs),
(438,422,l),
(438,552,l),
(406,552,ls),
(329,552,o),
(272,526,o),
(247,434,c),
(258,418,l),
(258,546,l),
(28,546,l),
(28,416,l),
(118,416,l),
(118,130,l),
(28,130,l),
(28,0,l)
);
}
);
width = 449;
},
{
anchors = (
{
name = bottom;
pos = (132,0);
},
{
name = top;
pos = (192,526);
}
);
layerId = "C1DB0BE6-5704-4A8C-8C00-D80E72C16D98";
shapes = (
{
closed = 1;
nodes = (
(219,0,l),
(219,45,l),
(154,45,l),
(154,320,ls),
(154,417,o),
(209,486,o),
(305,486,cs),
(339,486,l),
(339,531,l),
(306,531,ls),
(230,531,o),
(167,493,o),
(145,428,c),
(154,414,l),
(154,526,l),
(44,526,l),
(44,481,l),
(109,481,l),
(109,45,l),
(44,45,l),
(44,0,l)
);
}
);
width = 361;
}
);
metricLeft = "=r/2";
metricRight = "=r";
},
{
glyphname = s;
lastChange = "2023-01-30 07:37:07 +0000";
layers = (
{
anchors = (
{
name = bottom;
pos = (255,0);
},
{
name = top;
pos = (255,536);
}
);
layerId = "30C2FD74-1A74-41AC-9C29-B288AE1DBDD7";
shapes = (
{
closed = 1;
nodes = (
(375,-12,o),
(454,52,o),
(454,141,cs),
(454,213,o),
(402,269,o),
(316,294,cs),
(227,320,ls),
(199,328,o),
(148,344,o),
(148,399,cs),
(148,446,o),
(187,480,o),
(247,480,cs),
(308,480,o),
(361,444,o),
(388,384,c),
(452,414,l),
(421,498,o),
(340,548,o),
(250,548,cs),
(150,548,o),
(70,487,o),
(70,393,cs),
(70,326,o),
(111,274,o),
(210,246,cs),
(287,224,ls),
(319,215,o),
(377,196,o),
(377,141,cs),
(377,90,o),
(327,56,o),
(263,56,cs),
(196,56,o),
(138,97,o),
(107,163,c),
(44,133,l),
(78,44,o),
(160,-12,o),
(263,-12,cs)
);
}
);
width = 509;
},
{
anchors = (
{
name = bottom;
pos = (258,0);
},
{
name = top;
pos = (258,546);
}
);
layerId = "9398AC28-6BE1-4A79-9C94-3CBC2F226CE7";
shapes = (
{
closed = 1;
nodes = (
(396,-12,o),
(480,56,o),
(480,158,cs),
(480,236,o),
(431,291,o),
(340,318,cs),
(253,344,ls),
(212,356,o),
(194,371,o),
(194,393,cs),
(194,421,o),
(217,438,o),
(256,438,cs),
(309,438,o),
(355,408,o),
(371,363,c),
(482,415,l),
(448,505,o),
(363,558,o),
(256,558,cs),
(133,558,o),
(49,489,o),
(49,388,cs),
(49,310,o),
(99,251,o),
(188,226,cs),
(281,200,ls),
(317,190,o),
(335,175,o),
(335,152,cs),
(335,121,o),
(311,103,o),
(269,103,cs),
(210,103,o),
(160,138,o),
(132,197,c),
(22,145,l),
(54,49,o),
(149,-12,o),
(269,-12,cs)
);
}
);
width = 515;
},
{
anchors = (
{
name = bottom;
pos = (253,0);
},
{
name = top;
pos = (253,526);
}
);
layerId = "C1DB0BE6-5704-4A8C-8C00-D80E72C16D98";
shapes = (
{
closed = 1;
nodes = (
(361,-12,o),
(440,50,o),
(440,135,cs),
(440,204,o),
(391,256,o),
(305,280,cs),
(217,305,ls),
(159,321,o),
(128,352,o),
(128,396,cs),
(128,453,o),
(177,495,o),
(244,495,cs),
(306,495,o),
(360,460,o),
(389,400,c),
(433,420,l),
(406,490,o),
(329,538,o),
(244,538,cs),
(153,538,o),
(82,479,o),
(82,395,cs),
(82,327,o),
(125,279,o),
(210,256,cs),
(297,232,ls),
(359,215,o),
(393,181,o),
(393,133,cs),
(393,72,o),
(335,31,o),
(260,31,cs),
(191,31,o),
(131,70,o),
(97,137,c),
(55,118,l),
(91,37,o),
(167,-12,o),
(260,-12,cs)
);
}
);
width = 506;
}
);
unicode = 115;
},
{
glyphname = germandbls;
lastChange = "2023-01-30 07:37:07 +0000";
layers = (
{
layerId = "30C2FD74-1A74-41AC-9C29-B288AE1DBDD7";
shapes = (
{
closed = 1;
nodes = (
(163,-150,l),
(163,540,ls),
(163,630,o),
(223,687,o),
(306,687,cs),
(385,687,o),
(438,636,o),
(438,561,cs),
(438,485,o),
(383,430,o),
(306,430,cs),
(253,430,l),
(253,360,l),
(312,360,ls),
(406,360,o),
(468,302,o),
(468,215,cs),
(468,128,o),
(406,70,o),
(312,70,cs),
(253,70,l),
(253,0,l),
(312,0,ls),
(455,0,o),
(548,85,o),
(548,215,cs),
(548,310,o),
(499,373,o),
(401,409,c),
(406,389,l),
(475,412,o),
(518,481,o),
(518,566,cs),
(518,681,o),
(432,757,o),
(307,757,cs),
(182,757,o),
(88,674,o),
(88,540,cs),
(88,-150,l)
);
}
);
width = 603;
},
{
layerId = "9398AC28-6BE1-4A79-9C94-3CBC2F226CE7";
shapes = (
{
closed = 1;
nodes = (
(216,-160,l),
(216,490,ls),
(216,578,o),
(264,627,o),
(336,627,cs),
(395,627,o),
(435,592,o),
(435,542,cs),
(435,495,o),
(398,460,o),
(346,460,cs),
(296,460,l),
(296,330,l),
(356,330,ls),
(423,330,o),
(466,292,o),
(466,232,cs),
(466,171,o),
(421,130,o),
(356,130,cs),
(296,130,l),
(296,0,l),
(366,0,ls),
(523,0,o),
(621,89,o),
(621,232,cs),
(621,330,o),
(577,387,o),
(464,423,c),
(472,380,l),
(549,406,o),
(590,470,o),
(590,539,cs),
(590,669,o),
(489,757,o),
(336,757,cs),
(180,757,o),
(66,656,o),
(66,490,cs),
(66,-160,l)
);
}
);
width = 654;
},
{
layerId = "C1DB0BE6-5704-4A8C-8C00-D80E72C16D98";
shapes = (
{
closed = 1;
nodes = (
(145,-140,l),
(145,551,ls),
(145,649,o),
(215,712,o),
(305,712,cs),
(395,712,o),
(457,649,o),
(457,565,cs),
(457,474,o),
(388,417,o),
(300,417,cs),
(245,417,l),
(245,372,l),
(307,372,ls),
(415,372,o),
(488,306,o),
(488,208,cs),
(488,110,o),
(416,45,o),
(314,45,cs),
(245,45,l),
(245,0,l),
(314,0,ls),
(443,0,o),
(539,82,o),
(539,209,cs),
(539,310,o),
(479,376,o),
(366,405,c),
(369,387,l),
(456,419,o),
(508,473,o),
(508,565,cs),
(508,683,o),
(418,757,o),
(307,757,cs),
(191,757,o),
(99,676,o),
(99,551,cs),
(99,-140,l)
);
}
);
width = 605;
}
);
metricLeft = "=I";
metricRight = "=s";
unicode = 223;
},
{
glyphname = t;
lastChange = "2023-01-30 07:37:07 +0000";
layers = (
{
anchors = (
{
name = bottom;
pos = (274,0);
},
{
name = center;
pos = (170,268);
},
{
name = top;
pos = (170,660);
},
{
name = topright;
pos = (266,536);
}
);
layerId = "30C2FD74-1A74-41AC-9C29-B288AE1DBDD7";
shapes = (
{
closed = 1;
nodes = (
(294,-6,o),
(317,-4,o),
(333,0,c),
(333,67,l),
(322,65,o),
(306,64,o),
(295,64,cs),
(228,64,o),
(207,102,o),
(207,156,cs),
(207,461,l),
(325,461,l),
(325,536,l),
(207,536,l),
(207,660,l),
(132,660,l),
(132,615,ls),
(132,569,o),
(103,536,o),
(58,536,cs),
(33,536,l),
(33,461,l),
(132,461,l),
(132,156,ls),
(132,52,o),
(186,-6,o),
(282,-6,cs)
);
}
);
width = 388;
},
{
anchors = (
{
name = bottom;
pos = (311,0);
},
{
name = center;
pos = (185,273);
},
{
name = top;
pos = (185,670);
},
{
name = topright;
pos = (324,546);
}
);
layerId = "9398AC28-6BE1-4A79-9C94-3CBC2F226CE7";
shapes = (
{
closed = 1;
nodes = (
(341,-6,o),
(368,-3,o),
(388,0,c),
(388,127,l),
(374,125,o),
(362,124,o),
(353,124,cs),
(290,124,o),
(260,151,o),
(260,207,cs),
(260,416,l),
(388,416,l),
(388,546,l),
(260,546,l),
(260,670,l),
(110,670,l),
(110,630,ls),
(110,574,o),
(79,546,o),
(23,546,cs),
(18,546,l),
(18,416,l),
(110,416,l),
(110,197,ls),
(110,69,o),
(186,-6,o),
(318,-6,cs)
);
}
);
width = 421;
},
{
anchors = (
{
name = bottom;
pos = (240,0);
},
{
name = center;
pos = (166,263);
},
{
name = top;
pos = (166,650);
},
{
name = topright;
pos = (245,526);
}
);
layerId = "C1DB0BE6-5704-4A8C-8C00-D80E72C16D98";
shapes = (
{
closed = 1;
nodes = (
(278,-6,o),
(299,-4,o),
(313,0,c),
(313,40,l),
(303,38,o),
(285,37,o),
(274,37,cs),
(198,37,o),
(188,89,o),
(188,126,cs),
(188,486,l),
(302,486,l),
(302,526,l),
(188,526,l),
(188,650,l),
(143,650,l),
(143,580,ls),
(143,543,o),
(127,526,o),
(93,526,cs),
(43,526,l),
(43,486,l),
(143,486,l),
(143,126,ls),
(143,38,o),
(188,-6,o),
(270,-6,cs)
);
}
);
width = 379;
}
);
unicode = 116;
},
{
glyphname = t.ss01;
lastChange = "2023-01-30 07:37:07 +0000";
layers = (
{
anchors = (
{
name = bottom;
pos = (233,0);
},
{
name = center;
pos = (170,268);
},
{
name = top;
pos = (170,660);
},
{
name = topright;
pos = (266,536);
}
);
layerId = "30C2FD74-1A74-41AC-9C29-B288AE1DBDD7";
shapes = (
{
closed = 1;
nodes = (
(333,0,l),
(333,75,l),
(207,75,l),
(207,461,l),
(325,461,l),
(325,536,l),
(207,536,l),
(207,660,l),
(132,660,l),
(132,536,l),
(33,536,l),
(33,461,l),
(132,461,l),
(132,0,l)
);
}
);
width = 388;
},
{
anchors = (
{
name = bottom;
pos = (249,0);
},
{
name = center;
pos = (185,273);
},
{
name = top;
pos = (185,670);
},
{
name = topright;
pos = (324,546);
}
);
layerId = "9398AC28-6BE1-4A79-9C94-3CBC2F226CE7";
shapes = (
{
closed = 1;
nodes = (
(388,0,l),
(388,130,l),
(260,130,l),
(260,416,l),
(388,416,l),
(388,546,l),
(260,546,l),
(260,670,l),
(110,670,l),
(110,546,l),
(18,546,l),
(18,416,l),
(110,416,l),
(110,0,l)
);
}
);
width = 421;
},
{
anchors = (
{
name = bottom;
pos = (228,0);
},
{
name = center;
pos = (166,263);
},
{
name = top;
pos = (166,650);
},
{
name = topright;
pos = (245,526);
}
);
layerId = "C1DB0BE6-5704-4A8C-8C00-D80E72C16D98";
shapes = (
{
closed = 1;
nodes = (
(313,0,l),
(313,40,l),
(188,40,l),
(188,486,l),
(302,486,l),
(302,526,l),
(188,526,l),
(188,650,l),
(143,650,l),
(143,526,l),
(43,526,l),
(43,486,l),
(143,486,l),
(143,0,l)
);
}
);
width = 379;
}
);
metricLeft = "=t";
metricRight = "=t";
},
{
glyphname = u;
lastChange = "2023-01-30 07:37:07 +0000";
layers = (
{
anchors = (
{
name = bottom;
pos = (287,0);
},
{
name = ogonek;
pos = (459,0);
},
{
name = top;
pos = (287,536);
},
{
name = topright;
pos = (553,536);
}
);
layerId = "30C2FD74-1A74-41AC-9C29-B288AE1DBDD7";
shapes = (
{
closed = 1;
nodes = (
(347,-12,o),
(412,31,o),
(438,100,c),
(421,104,l),
(421,0,l),
(496,0,l),
(496,536,l),
(421,536,l),
(421,217,ls),
(421,121,o),
(362,63,o),
(280,63,cs),
(198,63,o),
(141,120,o),
(141,207,cs),
(141,536,l),
(66,536,l),
(66,198,ls),
(66,74,o),
(154,-12,o),
(267,-12,cs)
);
}
);
width = 573;
},
{
anchors = (
{
name = bottom;
pos = (300,0);
},
{
name = ogonek;
pos = (524,0);
},
{
name = top;
pos = (300,546);
},
{
name = topright;
pos = (579,546);
}
);
layerId = "9398AC28-6BE1-4A79-9C94-3CBC2F226CE7";
shapes = (
{
closed = 1;
nodes = (
(327,-12,o),
(387,19,o),
(412,84,c),
(404,108,l),
(404,0,l),
(544,0,l),
(544,546,l),
(394,546,l),
(394,227,ls),
(394,164,o),
(353,123,o),
(294,123,cs),
(235,123,o),
(194,164,o),
(194,227,cs),
(194,546,l),
(44,546,l),
(44,215,ls),
(44,79,o),
(118,-12,o),
(251,-12,cs)
);
}
);
width = 599;
},
{
anchors = (
{
name = bottom;
pos = (285,0);
},
{
name = ogonek;
pos = (460,0);
},
{
name = top;
pos = (285,526);
},
{
name = topright;
pos = (550,526);
}
);
layerId = "C1DB0BE6-5704-4A8C-8C00-D80E72C16D98";
shapes = (
{
closed = 1;
nodes = (
(361,-12,o),
(428,36,o),
(449,106,c),
(437,111,l),
(437,0,l),
(482,0,l),
(482,526,l),
(437,526,l),
(437,206,ls),
(437,109,o),
(381,31,o),
(279,31,cs),
(194,31,o),
(122,85,o),
(122,186,cs),
(122,526,l),
(77,526,l),
(77,186,ls),
(77,59,o),
(171,-12,o),
(275,-12,cs)
);
}
);
width = 570;
}
);
unicode = 117;
},
{
glyphname = u.ss01;
lastChange = "2023-01-30 07:37:07 +0000";
layers = (
{
anchors = (
{
name = bottom;
pos = (281,0);
},
{
name = ogonek;
pos = (331,0);
},
{
name = top;
pos = (287,536);
},
{
name = topright;
pos = (553,536);
}
);
layerId = "30C2FD74-1A74-41AC-9C29-B288AE1DBDD7";
shapes = (
{
closed = 1;
nodes = (
(496,0,l),
(496,536,l),
(421,536,l),
(421,75,l),
(141,75,l),
(141,536,l),
(66,536,l),
(66,0,l)
);
}
);
width = 573;
},
{
anchors = (
{
name = bottom;
pos = (294,0);
},
{
name = ogonek;
pos = (344,0);
},
{
name = top;
pos = (300,546);
},
{
name = topright;
pos = (579,546);
}
);
layerId = "9398AC28-6BE1-4A79-9C94-3CBC2F226CE7";
shapes = (
{
closed = 1;
nodes = (
(544,0,l),
(544,546,l),
(394,546,l),
(394,130,l),
(194,130,l),
(194,546,l),
(44,546,l),
(44,0,l)
);
}
);
width = 599;
},
{
anchors = (
{
name = bottom;
pos = (280,0);
},
{
name = ogonek;
pos = (330,0);
},
{
name = top;
pos = (285,526);
},
{
name = topright;
pos = (550,526);
}
);
layerId = "C1DB0BE6-5704-4A8C-8C00-D80E72C16D98";
shapes = (
{
closed = 1;
nodes = (
(482,0,l),
(482,526,l),
(437,526,l),
(437,40,l),
(122,40,l),
(122,526,l),
(77,526,l),
(77,0,l)
);
}
);
width = 570;
}
);
metricLeft = "=u";
metricRight = "=u";
},
{
glyphname = u.ss03;
lastChange = "2023-01-30 07:37:07 +0000";
layers = (
{
anchors = (
{
name = bottom;
pos = (287,0);
},
{
name = ogonek;
pos = (331,0);
},
{
name = top;
pos = (287,536);
},
{
name = topright;
pos = (553,536);
}
);
layerId = "30C2FD74-1A74-41AC-9C29-B288AE1DBDD7";
shapes = (
{
closed = 1;
nodes = (
(410,-12,o),
(496,73,o),
(496,200,cs),
(496,536,l),
(421,536,l),
(421,205,ls),
(421,119,o),
(365,62,o),
(281,62,cs),
(197,62,o),
(141,119,o),
(141,205,cs),
(141,536,l),
(66,536,l),
(66,200,ls),
(66,73,o),
(152,-12,o),
(281,-12,cs)
);
}
);
width = 573;
},
{
anchors = (
{
name = bottom;
pos = (300,0);
},
{
name = ogonek;
pos = (354,0);
},
{
name = top;
pos = (300,546);
},
{
name = topright;
pos = (579,546);
}
);
layerId = "9398AC28-6BE1-4A79-9C94-3CBC2F226CE7";
shapes = (
{
closed = 1;
nodes = (
(443,-12,o),
(544,80,o),
(544,219,cs),
(544,546,l),
(394,546,l),
(394,222,ls),
(394,162,o),
(353,123,o),
(294,123,cs),
(235,123,o),
(194,162,o),
(194,222,cs),
(194,546,l),
(44,546,l),
(44,219,ls),
(44,80,o),
(144,-12,o),
(294,-12,cs)
);
}
);
width = 599;
},
{
anchors = (
{
name = bottom;
pos = (285,0);
},
{
name = ogonek;
pos = (329,0);
},
{
name = top;
pos = (285,526);
},
{
name = topright;
pos = (550,526);
}
);
layerId = "C1DB0BE6-5704-4A8C-8C00-D80E72C16D98";
shapes = (
{
closed = 1;
nodes = (
(384,-12,o),
(482,59,o),
(482,186,cs),
(482,526,l),
(437,526,l),
(437,186,ls),
(437,85,o),
(361,31,o),
(279,31,cs),
(198,31,o),
(122,85,o),
(122,186,cs),
(122,526,l),
(77,526,l),
(77,186,ls),
(77,59,o),
(175,-12,o),
(279,-12,cs)
);
}
);
width = 570;
}
);
metricLeft = "=u";
metricRight = "=u";
},
{
glyphname = uhorn;
lastChange = "2023-01-30 07:37:07 +0000";
layers = (
{
anchors = (
{
name = bottom;
pos = (285,0);
},
{
name = ogonek;
pos = (464,30);
},
{
name = top;
pos = (285,526);
},
{
name = topright;
pos = (550,526);
}
);
layerId = "C1DB0BE6-5704-4A8C-8C00-D80E72C16D98";
shapes = (
{
closed = 1;
nodes = (
(348,-12,o),
(408,23,o),
(437,77,c),
(437,0,l),
(482,0,l),
(482,508,l),
(465,485,l),
(523,485,o),
(564,515,o),
(564,575,cs),
(564,604,o),
(554,633,o),
(543,662,c),
(498,662,l),
(508,635,o),
(518,609,o),
(518,581,cs),
(518,542,o),
(497,526,o),
(465,526,cs),
(437,526,l),
(437,206,ls),
(437,109,o),
(381,31,o),
(279,31,cs),
(194,31,o),
(122,85,o),
(122,186,cs),
(122,526,l),
(77,526,l),
(77,186,ls),
(77,59,o),
(171,-12,o),
(275,-12,cs)
);
}
);
width = 575;
},
{
anchors = (
{
name = bottom;
pos = (287,0);
},
{
name = ogonek;
pos = (478,40);
},
{
name = top;
pos = (287,536);
},
{
name = topright;
pos = (553,536);
}
);
layerId = "30C2FD74-1A74-41AC-9C29-B288AE1DBDD7";
shapes = (
{
closed = 1;
nodes = (
(333,-12,o),
(389,17,o),
(421,66,c),
(421,0,l),
(496,0,l),
(496,499,l),
(480,475,l),
(543,479,o),
(585,513,o),
(585,582,cs),
(585,615,o),
(574,642,o),
(562,669,c),
(488,669,l),
(500,642,o),
(510,617,o),
(510,589,cs),
(510,546,o),
(485,536,o),
(459,536,cs),
(421,536,l),
(421,217,ls),
(421,121,o),
(362,63,o),
(280,63,cs),
(198,63,o),
(141,120,o),
(141,207,cs),
(141,536,l),
(66,536,l),
(66,198,ls),
(66,74,o),
(154,-12,o),
(267,-12,cs)
);
}
);
width = 595;
},
{
anchors = (
{
name = bottom;
pos = (300,0);
},
{
name = ogonek;
pos = (498,41);
},
{
name = top;
pos = (300,546);
},
{
name = topright;
pos = (579,546);
}
);
layerId = "9398AC28-6BE1-4A79-9C94-3CBC2F226CE7";
shapes = (
{
closed = 1;
nodes = (
(320,-12,o),
(376,13,o),
(404,66,c),
(404,0,l),
(544,0,l),
(544,514,l),
(489,444,l),
(597,434,o),
(674,475,o),
(674,582,cs),
(674,618,o),
(664,643,o),
(651,671,c),
(525,671,l),
(535,646,o),
(545,616,o),
(545,595,cs),
(545,551,o),
(520,546,o),
(505,546,cs),
(394,546,l),
(394,227,ls),
(394,164,o),
(353,123,o),
(294,123,cs),
(235,123,o),
(194,164,o),
(194,227,cs),
(194,546,l),
(44,546,l),
(44,215,ls),
(44,79,o),
(118,-12,o),
(251,-12,cs)
);
}
);
width = 681;
}
);
metricLeft = "=u";
metricRight = "=u/8";
unicode = 432;
},
{
glyphname = uhorn.ss01;
lastChange = "2023-01-30 07:37:07 +0000";
layers = (
{
anchors = (
{
name = bottom;
pos = (287,0);
},
{
name = top;
pos = (287,536);
}
);
layerId = "30C2FD74-1A74-41AC-9C29-B288AE1DBDD7";
shapes = (
{
closed = 1;
nodes = (
(496,0,l),
(496,499,l),
(480,475,l),
(543,479,o),
(585,513,o),
(585,582,cs),
(585,615,o),
(574,642,o),
(562,669,c),
(488,669,l),
(500,642,o),
(510,617,o),
(510,589,cs),
(510,546,o),
(485,536,o),
(459,536,cs),
(421,536,l),
(421,75,l),
(141,75,l),
(141,536,l),
(66,536,l),
(66,0,l)
);
}
);
width = 595;
},
{
anchors = (
{
name = bottom;
pos = (300,0);
},
{
name = top;
pos = (300,546);
}
);
layerId = "9398AC28-6BE1-4A79-9C94-3CBC2F226CE7";
shapes = (
{
closed = 1;
nodes = (
(544,0,l),
(544,514,l),
(489,444,l),
(597,434,o),
(674,475,o),
(674,582,cs),
(674,618,o),
(664,643,o),
(651,671,c),
(525,671,l),
(535,646,o),
(545,616,o),
(545,595,cs),
(545,551,o),
(520,546,o),
(505,546,cs),
(394,546,l),
(394,130,l),
(194,130,l),
(194,546,l),
(44,546,l),
(44,0,l)
);
}
);
width = 681;
},
{
anchors = (
{
name = bottom;
pos = (285,0);
},
{
name = top;
pos = (285,526);
}
);
layerId = "C1DB0BE6-5704-4A8C-8C00-D80E72C16D98";
shapes = (
{
closed = 1;
nodes = (
(482,0,l),
(482,508,l),
(465,485,l),
(523,485,o),
(564,515,o),
(564,575,cs),
(564,604,o),
(554,633,o),
(543,662,c),
(498,662,l),
(508,635,o),
(518,609,o),
(518,581,cs),
(518,542,o),
(497,526,o),
(465,526,cs),
(437,526,l),
(437,40,l),
(122,40,l),
(122,526,l),
(77,526,l),
(77,0,l)
);
}
);
width = 575;
}
);
metricLeft = "=u";
metricRight = "=u/8";
},
{
glyphname = uhorn.ss03;
lastChange = "2023-01-30 07:37:07 +0000";
layers = (
{
anchors = (
{
name = bottom;
pos = (287,0);
},
{
name = ogonek;
pos = (331,40);
},
{
name = top;
pos = (287,536);
},
{
name = topright;
pos = (553,536);
}
);
layerId = "30C2FD74-1A74-41AC-9C29-B288AE1DBDD7";
shapes = (
{
closed = 1;
nodes = (
(410,-12,o),
(496,73,o),
(496,200,cs),
(496,499,l),
(480,475,l),
(543,479,o),
(585,513,o),
(585,582,cs),
(585,615,o),
(574,642,o),
(562,669,c),
(488,669,l),
(500,642,o),
(510,617,o),
(510,589,cs),
(510,546,o),
(485,536,o),
(459,536,cs),
(421,536,l),
(421,205,ls),
(421,119,o),
(365,62,o),
(281,62,cs),
(197,62,o),
(141,119,o),
(141,205,cs),
(141,536,l),
(66,536,l),
(66,200,ls),
(66,73,o),
(152,-12,o),
(281,-12,cs)
);
}
);
width = 595;
},
{
anchors = (
{
name = bottom;
pos = (300,0);
},
{
name = ogonek;
pos = (344,41);
},
{
name = top;
pos = (300,546);
},
{
name = topright;
pos = (579,546);
}
);
layerId = "9398AC28-6BE1-4A79-9C94-3CBC2F226CE7";
shapes = (
{
closed = 1;
nodes = (
(443,-12,o),
(544,80,o),
(544,219,cs),
(544,514,l),
(489,444,l),
(597,434,o),
(674,475,o),
(674,582,cs),
(674,618,o),
(664,643,o),
(651,671,c),
(525,671,l),
(535,646,o),
(545,616,o),
(545,595,cs),
(545,551,o),
(520,546,o),
(505,546,cs),
(394,546,l),
(394,222,ls),
(394,162,o),
(353,123,o),
(294,123,cs),
(235,123,o),
(194,162,o),
(194,222,cs),
(194,546,l),
(44,546,l),
(44,219,ls),
(44,80,o),
(144,-12,o),
(294,-12,cs)
);
}
);
width = 681;
},
{
anchors = (
{
name = bottom;
pos = (285,0);
},
{
name = ogonek;
pos = (329,30);
},
{
name = top;
pos = (285,526);
},
{
name = topright;
pos = (550,526);
}
);
layerId = "C1DB0BE6-5704-4A8C-8C00-D80E72C16D98";
shapes = (
{
closed = 1;
nodes = (
(384,-12,o),
(482,59,o),
(482,186,cs),
(482,508,l),
(465,485,l),
(523,485,o),
(564,515,o),
(564,575,cs),
(564,604,o),
(554,633,o),
(543,662,c),
(498,662,l),
(508,635,o),
(518,609,o),
(518,581,cs),
(518,542,o),
(497,526,o),
(465,526,cs),
(437,526,l),
(437,186,ls),
(437,85,o),
(361,31,o),
(279,31,cs),
(198,31,o),
(122,85,o),
(122,186,cs),
(122,526,l),
(77,526,l),
(77,186,ls),
(77,59,o),
(175,-12,o),
(279,-12,cs)
);
}
);
width = 575;
}
);
metricLeft = "=u";
metricRight = "=u/8";
},
{
glyphname = v;
lastChange = "2023-01-30 07:37:07 +0000";
layers = (
{
anchors = (
{
name = bottom;
pos = (259,0);
},
{
name = top;
pos = (259,536);
}
);
layerId = "30C2FD74-1A74-41AC-9C29-B288AE1DBDD7";
shapes = (
{
closed = 1;
nodes = (
(295,0,l),
(506,536,l),
(421,536,l),
(244,66,l),
(271,66,l),
(95,536,l),
(11,536,l),
(220,0,l)
);
}
);
width = 517;
},
{
anchors = (
{
name = bottom;
pos = (291,0);
},
{
name = top;
pos = (291,546);
}
);
layerId = "9398AC28-6BE1-4A79-9C94-3CBC2F226CE7";
shapes = (
{
closed = 1;
nodes = (
(356,0,l),
(571,546,l),
(409,546,l),
(260,133,l),
(322,133,l),
(173,546,l),
(11,546,l),
(226,0,l)
);
}
);
width = 582;
},
{
anchors = (
{
name = bottom;
pos = (260,0);
},
{
name = top;
pos = (260,526);
}
);
layerId = "C1DB0BE6-5704-4A8C-8C00-D80E72C16D98";
shapes = (
{
closed = 1;
nodes = (
(282,0,l),
(497,526,l),
(445,526,l),
(249,39,l),
(268,39,l),
(73,526,l),
(22,526,l),
(234,0,l)
);
}
);
width = 519;
}
);
unicode = 118;
},
{
glyphname = w;
lastChange = "2023-01-30 07:37:07 +0000";
layers = (
{
anchors = (
{
name = bottom;
pos = (399,0);
},
{
name = top;
pos = (399,536);
}
);
layerId = "30C2FD74-1A74-41AC-9C29-B288AE1DBDD7";
shapes = (
{
closed = 1;
nodes = (
(270,0,l),
(409,459,l),
(388,459,l),
(527,0,l),
(602,0,l),
(786,536,l),
(702,536,l),
(549,67,l),
(579,67,l),
(436,536,l),
(361,536,l),
(218,67,l),
(248,67,l),
(96,536,l),
(11,536,l),
(195,0,l)
);
}
);
width = 797;
},
{
anchors = (
{
name = bottom;
pos = (456,0);
},
{
name = top;
pos = (456,546);
}
);
layerId = "9398AC28-6BE1-4A79-9C94-3CBC2F226CE7";
shapes = (
{
closed = 1;
nodes = (
(329,0,l),
(482,422,l),
(430,422,l),
(582,0,l),
(712,0,l),
(901,546,l),
(745,546,l),
(613,152,l),
(667,153,l),
(521,546,l),
(391,546,l),
(244,153,l),
(298,152,l),
(166,546,l),
(11,546,l),
(199,0,l)
);
}
);
width = 912;
},
{
anchors = (
{
name = bottom;
pos = (385,0);
},
{
name = top;
pos = (385,526);
}
);
layerId = "C1DB0BE6-5704-4A8C-8C00-D80E72C16D98";
shapes = (
{
closed = 1;
nodes = (
(250,0,l),
(388,469,l),
(380,469,l),
(518,0,l),
(566,0,l),
(747,526,l),
(697,526,l),
(530,33,l),
(552,33,l),
(408,526,l),
(360,526,l),
(216,33,l),
(237,33,l),
(72,526,l),
(22,526,l),
(202,0,l)
);
}
);
width = 769;
}
);
unicode = 119;
},
{
glyphname = x;
lastChange = "2023-01-30 07:37:07 +0000";
layers = (
{
anchors = (
{
name = bottom;
pos = (244,0);
},
{
name = top;
pos = (244,536);
}
);
layerId = "30C2FD74-1A74-41AC-9C29-B288AE1DBDD7";
shapes = (
{
closed = 1;
nodes = (
(104,0,l),
(270,241,l),
(219,241,l),
(384,0,l),
(476,0,l),
(289,268,l),
(476,536,l),
(384,536,l),
(219,295,l),
(270,295,l),
(104,536,l),
(12,536,l),
(199,268,l),
(11,0,l)
);
}
);
width = 487;
},
{
anchors = (
{
name = bottom;
pos = (291,0);
},
{
name = top;
pos = (291,546);
}
);
layerId = "9398AC28-6BE1-4A79-9C94-3CBC2F226CE7";
shapes = (
{
closed = 1;
nodes = (
(186,0,l),
(327,212,l),
(255,212,l),
(396,0,l),
(569,0,l),
(379,274,l),
(571,546,l),
(397,546,l),
(253,334,l),
(329,334,l),
(185,546,l),
(11,546,l),
(203,274,l),
(12,0,l)
);
}
);
width = 582;
},
{
anchors = (
{
name = bottom;
pos = (237,0);
},
{
name = top;
pos = (237,526);
}
);
layerId = "C1DB0BE6-5704-4A8C-8C00-D80E72C16D98";
shapes = (
{
closed = 1;
nodes = (
(79,0,l),
(257,250,l),
(218,250,l),
(394,0,l),
(452,0,l),
(266,263,l),
(451,526,l),
(393,526,l),
(218,276,l),
(257,276,l),
(81,526,l),
(24,526,l),
(209,263,l),
(22,0,l)
);
}
);
width = 474;
}
);
unicode = 120;
},
{
glyphname = y;
lastChange = "2023-01-30 07:37:07 +0000";
layers = (
{
anchors = (
{
name = bottom;
pos = (486,100);
},
{
name = top;
pos = (268,536);
}
);
layerId = "30C2FD74-1A74-41AC-9C29-B288AE1DBDD7";
shapes = (
{
closed = 1;
nodes = (
(194,-220,o),
(248,-147,o),
(280,-68,cs),
(525,536,l),
(442,536,l),
(257,67,l),
(278,67,l),
(92,536,l),
(11,536,l),
(238,-32,l),
(240,34,l),
(206,-46,ls),
(173,-123,o),
(145,-145,o),
(80,-145,cs),
(58,-145,o),
(36,-141,o),
(23,-139,c),
(23,-209,l),
(44,-217,o),
(67,-220,o),
(88,-220,cs)
);
}
);
width = 536;
},
{
anchors = (
{
name = bottom;
pos = (552,100);
},
{
name = top;
pos = (301,546);
}
);
layerId = "9398AC28-6BE1-4A79-9C94-3CBC2F226CE7";
shapes = (
{
closed = 1;
nodes = (
(240,-222,o),
(312,-165,o),
(357,-51,cs),
(591,546,l),
(430,546,l),
(271,113,l),
(331,113,l),
(172,546,l),
(11,546,l),
(251,-63,l),
(253,62,l),
(216,-23,ls),
(200,-59,o),
(181,-92,o),
(122,-92,cs),
(100,-92,o),
(73,-88,o),
(54,-82,c),
(54,-205,l),
(77,-217,o),
(108,-222,o),
(140,-222,cs)
);
}
);
width = 602;
},
{
anchors = (
{
name = bottom;
pos = (479,100);
},
{
name = top;
pos = (265,526);
}
);
layerId = "C1DB0BE6-5704-4A8C-8C00-D80E72C16D98";
shapes = (
{
closed = 1;
nodes = (
(183,-220,o),
(233,-135,o),
(255,-81,cs),
(507,526,l),
(455,526,l),
(252,30,l),
(280,30,l),
(79,526,l),
(28,526,l),
(251,-24,l),
(249,22,l),
(207,-76,ls),
(179,-141,o),
(143,-176,o),
(78,-177,cs),
(63,-177,o),
(40,-175,o),
(22,-170,c),
(22,-211,l),
(42,-218,o),
(65,-220,o),
(81,-220,cs)
);
}
);
width = 529;
}
);
unicode = 121;
},
{
glyphname = y.ss01;
lastChange = "2023-01-30 07:37:07 +0000";
layers = (
{
anchors = (
{
name = bottom;
pos = (486,100);
},
{
name = top;
pos = (268,536);
}
);
layerId = "30C2FD74-1A74-41AC-9C29-B288AE1DBDD7";
shapes = (
{
closed = 1;
nodes = (
(227,-200,l),
(525,537,l),
(442,537,l),
(257,67,l),
(278,67,l),
(92,537,l),
(11,537,l),
(238,-32,l),
(240,34,l),
(171,-130,l),
(31,-130,l),
(31,-200,l)
);
}
);
width = 536;
},
{
anchors = (
{
name = bottom;
pos = (552,100);
},
{
name = top;
pos = (301,546);
}
);
layerId = "9398AC28-6BE1-4A79-9C94-3CBC2F226CE7";
shapes = (
{
closed = 1;
nodes = (
(299,-200,l),
(591,546,l),
(430,546,l),
(271,113,l),
(331,113,l),
(172,546,l),
(11,546,l),
(251,-63,l),
(248,62,l),
(194,-70,l),
(19,-70,l),
(19,-200,l)
);
}
);
width = 602;
},
{
anchors = (
{
name = bottom;
pos = (479,100);
},
{
name = top;
pos = (265,526);
}
);
layerId = "C1DB0BE6-5704-4A8C-8C00-D80E72C16D98";
shapes = (
{
closed = 1;
nodes = (
(200,-200,l),
(501,526,l),
(449,526,l),
(246,30,l),
(274,30,l),
(73,526,l),
(22,526,l),
(245,-24,l),
(243,22,l),
(168,-160,l),
(38,-160,l),
(38,-200,l)
);
}
);
width = 523;
}
);
metricLeft = "=y";
metricRight = "=y";
},
{
glyphname = y.ss02;
lastChange = "2023-01-30 07:37:07 +0000";
layers = (
{
anchors = (
{
name = bottom;
pos = (486,100);
},
{
name = top;
pos = (268,536);
}
);
layerId = "30C2FD74-1A74-41AC-9C29-B288AE1DBDD7";
shapes = (
{
closed = 1;
nodes = (
(226,-200,l),
(525,537,l),
(442,537,l),
(257,67,l),
(278,67,l),
(92,537,l),
(11,537,l),
(238,-32,l),
(240,34,l),
(142,-200,l)
);
}
);
width = 536;
},
{
anchors = (
{
name = bottom;
pos = (552,100);
},
{
name = top;
pos = (301,546);
}
);
layerId = "9398AC28-6BE1-4A79-9C94-3CBC2F226CE7";
shapes = (
{
closed = 1;
nodes = (
(299,-200,l),
(591,546,l),
(430,546,l),
(271,113,l),
(331,113,l),
(172,546,l),
(11,546,l),
(251,-63,l),
(243,62,l),
(139,-200,l)
);
}
);
width = 602;
},
{
anchors = (
{
name = bottom;
pos = (479,100);
},
{
name = top;
pos = (265,526);
}
);
layerId = "C1DB0BE6-5704-4A8C-8C00-D80E72C16D98";
shapes = (
{
closed = 1;
nodes = (
(200,-200,l),
(501,526,l),
(449,526,l),
(246,30,l),
(274,30,l),
(73,526,l),
(22,526,l),
(245,-24,l),
(243,22,l),
(151,-200,l)
);
}
);
width = 523;
}
);
metricLeft = "=y";
metricRight = "=y";
},
{
glyphname = y.ss03;
lastChange = "2023-01-30 07:37:07 +0000";
layers = (
{
anchors = (
{
name = bottom;
pos = (588,100);
},
{
name = top;
pos = (289,536);
}
);
layerId = "30C2FD74-1A74-41AC-9C29-B288AE1DBDD7";
shapes = (
{
closed = 1;
nodes = (
(410,-220,o),
(501,-143,o),
(501,-9,cs),
(501,536,l),
(426,536,l),
(426,237,ls),
(426,141,o),
(367,83,o),
(285,83,cs),
(203,83,o),
(146,140,o),
(146,227,cs),
(146,536,l),
(71,536,l),
(71,218,ls),
(71,94,o),
(159,8,o),
(272,8,cs),
(352,8,o),
(417,51,o),
(443,120,c),
(426,124,l),
(426,-9,ls),
(426,-108,o),
(359,-145,o),
(284,-145,cs),
(204,-145,o),
(153,-102,o),
(135,-51,c),
(66,-88,l),
(99,-166,o),
(179,-220,o),
(284,-220,cs)
);
}
);
width = 578;
},
{
anchors = (
{
name = bottom;
pos = (663,100);
},
{
name = top;
pos = (312,546);
}
);
guides = (
{
pos = (411,27);
}
);
layerId = "9398AC28-6BE1-4A79-9C94-3CBC2F226CE7";
shapes = (
{
closed = 1;
nodes = (
(456,-220,o),
(568,-124,o),
(568,21,cs),
(568,546,l),
(418,546,l),
(418,266,ls),
(418,203,o),
(377,162,o),
(318,162,cs),
(259,162,o),
(218,203,o),
(218,266,cs),
(218,546,l),
(68,546,l),
(68,254,ls),
(68,118,o),
(142,27,o),
(275,27,cs),
(351,27,o),
(411,58,o),
(436,123,c),
(419,147,l),
(419,21,ls),
(419,-50,o),
(373,-85,o),
(306,-85,cs),
(241,-85,o),
(197,-54,o),
(183,-3,c),
(44,-52,l),
(77,-154,o),
(177,-220,o),
(306,-220,cs)
);
}
);
width = 623;
},
{
anchors = (
{
name = bottom;
pos = (587,100);
},
{
name = top;
pos = (289,526);
}
);
layerId = "C1DB0BE6-5704-4A8C-8C00-D80E72C16D98";
shapes = (
{
closed = 1;
nodes = (
(396,-220,o),
(489,-150,o),
(489,-22,cs),
(489,526,l),
(444,526,l),
(444,226,ls),
(444,129,o),
(388,51,o),
(286,51,cs),
(201,51,o),
(129,105,o),
(129,206,cs),
(129,526,l),
(84,526,l),
(84,206,ls),
(84,79,o),
(178,8,o),
(282,8,cs),
(368,8,o),
(435,56,o),
(456,126,c),
(444,131,l),
(444,-22,ls),
(444,-139,o),
(358,-178,o),
(283,-178,cs),
(208,-178,o),
(150,-139,o),
(115,-73,c),
(77,-95,l),
(112,-166,o),
(183,-220,o),
(283,-220,cs)
);
}
);
width = 577;
}
);
metricLeft = "=u";
metricRight = "=u";
},
{
glyphname = z;
lastChange = "2023-01-30 07:37:07 +0000";
layers = (
{
anchors = (
{
name = bottom;
pos = (219,0);
},
{
name = center;
pos = (219,268);
},
{
name = top;
pos = (219,536);
}
);
layerId = "30C2FD74-1A74-41AC-9C29-B288AE1DBDD7";
shapes = (
{
closed = 1;
nodes = (
(427,0,l),
(427,75,l),
(89,75,l),
(103,46,l),
(425,471,l),
(425,536,l),
(39,536,l),
(39,461,l),
(359,461,l),
(345,490,l),
(22,65,l),
(22,0,l)
);
}
);
width = 449;
},
{
anchors = (
{
name = bottom;
pos = (252,0);
},
{
name = center;
pos = (252,273);
},
{
name = top;
pos = (252,546);
}
);
layerId = "9398AC28-6BE1-4A79-9C94-3CBC2F226CE7";
shapes = (
{
closed = 1;
nodes = (
(481,0,l),
(481,130,l),
(152,130,l),
(174,79,l),
(480,426,l),
(480,546,l),
(24,546,l),
(24,416,l),
(347,416,l),
(325,466,l),
(11,120,l),
(11,0,l)
);
}
);
width = 492;
},
{
anchors = (
{
name = bottom;
pos = (218,0);
},
{
name = center;
pos = (218,263);
},
{
name = top;
pos = (218,526);
}
);
layerId = "C1DB0BE6-5704-4A8C-8C00-D80E72C16D98";
shapes = (
{
closed = 1;
nodes = (
(413,0,l),
(413,40,l),
(57,40,l),
(72,10,l),
(410,496,l),
(410,526,l),
(52,526,l),
(52,486,l),
(385,486,l),
(370,516,l),
(33,30,l),
(33,0,l)
);
}
);
width = 435;
}
);
unicode = 122;
},
{
export = 0;
glyphname = f.liga;
lastChange = "2023-01-30 07:37:07 +0000";
layers = (
{
layerId = "30C2FD74-1A74-41AC-9C29-B288AE1DBDD7";
shapes = (
{
closed = 1;
nodes = (
(207,0,l),
(207,461,l),
(508,461,l),
(508,536,l),
(207,536,l),
(207,584,ls),
(207,660,o),
(255,687,o),
(319,687,cs),
(326,687,o),
(346,686,o),
(355,684,c),
(355,752,l),
(344,755,o),
(324,757,o),
(311,757,cs),
(217,757,o),
(132,696,o),
(132,584,cs),
(132,536,l),
(25,536,l),
(25,461,l),
(132,461,l),
(132,0,l)
);
}
);
width = 393;
},
{
layerId = "9398AC28-6BE1-4A79-9C94-3CBC2F226CE7";
shapes = (
{
closed = 1;
nodes = (
(271,0,l),
(271,416,l),
(488,416,l),
(488,546,l),
(271,546,l),
(271,554,ls),
(271,602,o),
(300,627,o),
(356,627,cs),
(366,627,o),
(376,626,o),
(389,624,c),
(389,752,l),
(375,755,o),
(353,757,o),
(336,757,cs),
(200,757,o),
(121,683,o),
(121,554,cs),
(121,546,l),
(29,546,l),
(29,416,l),
(121,416,l),
(121,0,l)
);
}
);
width = 410;
},
{
layerId = "C1DB0BE6-5704-4A8C-8C00-D80E72C16D98";
shapes = (
{
closed = 1;
nodes = (
(188,0,l),
(188,486,l),
(491,486,l),
(491,526,l),
(188,526,l),
(188,579,ls),
(188,664,o),
(233,714,o),
(308,714,cs),
(319,714,o),
(333,713,o),
(344,711,c),
(344,752,l),
(334,755,o),
(321,757,o),
(305,757,cs),
(208,757,o),
(143,691,o),
(143,579,cs),
(143,526,l),
(34,526,l),
(34,486,l),
(143,486,l),
(143,0,l)
);
}
);
width = 387;
}
);
},
{
glyphname = ordfeminine;
lastChange = "2023-01-30 07:37:07 +0000";
layers = (
{
layerId = "30C2FD74-1A74-41AC-9C29-B288AE1DBDD7";
shapes = (
{
closed = 1;
nodes = (
(248,361,o),
(297,391,o),
(322,436,c),
(308,439,l),
(308,369,l),
(378,369,l),
(378,624,ls),
(378,701,o),
(317,755,o),
(228,755,cs),
(161,755,o),
(96,719,o),
(73,662,c),
(135,631,l),
(150,666,o),
(184,690,o),
(226,690,cs),
(272,690,o),
(305,663,o),
(305,624,cs),
(305,527,ls),
(305,467,o),
(259,420,o),
(193,420,cs),
(158,420,o),
(132,441,o),
(132,471,cs),
(132,502,o),
(151,523,o),
(196,531,cs),
(316,551,l),
(316,611,l),
(181,588,ls),
(98,574,o),
(55,531,o),
(55,468,cs),
(55,404,o),
(107,361,o),
(183,361,cs)
);
}
);
width = 455;
},
{
layerId = "9398AC28-6BE1-4A79-9C94-3CBC2F226CE7";
shapes = (
{
closed = 1;
nodes = (
(230,353,o),
(271,375,o),
(307,426,c),
(279,421,l),
(279,362,l),
(387,362,l),
(387,613,ls),
(387,697,o),
(317,755,o),
(219,755,cs),
(136,755,o),
(68,714,o),
(45,647,c),
(137,604,l),
(148,635,o),
(176,659,o),
(214,659,cs),
(249,659,o),
(271,638,o),
(271,613,cs),
(271,513,ls),
(271,471,o),
(239,437,o),
(193,437,cs),
(169,437,o),
(153,449,o),
(153,469,cs),
(153,493,o),
(168,501,o),
(192,506,cs),
(283,523,l),
(283,607,l),
(171,589,ls),
(79,574,o),
(33,531,o),
(33,465,cs),
(33,395,o),
(85,353,o),
(169,353,cs)
);
}
);
width = 442;
},
{
layerId = "C1DB0BE6-5704-4A8C-8C00-D80E72C16D98";
shapes = (
{
closed = 1;
nodes = (
(254,367,o),
(311,404,o),
(330,449,c),
(325,452,l),
(325,375,l),
(368,375,l),
(368,631,ls),
(368,703,o),
(311,755,o),
(229,755,cs),
(166,755,o),
(107,718,o),
(85,673,c),
(124,651,l),
(143,689,o),
(184,714,o),
(229,714,cs),
(286,714,o),
(325,680,o),
(325,631,cs),
(325,539,ls),
(325,467,o),
(272,405,o),
(191,405,cs),
(147,405,o),
(112,433,o),
(112,473,cs),
(112,510,o),
(134,539,o),
(198,550,cs),
(336,573,l),
(336,613,l),
(187,588,ls),
(100,573,o),
(66,524,o),
(66,471,cs),
(66,409,o),
(120,367,o),
(188,367,cs)
);
}
);
width = 456;
}
);
metricLeft = "=a";
metricRight = "=a";
unicode = 170;
},
{
glyphname = ordmasculine;
lastChange = "2021-11-11 09:55:14 +0000";
layers = (
{
layerId = "30C2FD74-1A74-41AC-9C29-B288AE1DBDD7";
shapes = (
{
closed = 1;
nodes = (
(359,361,o),
(448,443,o),
(448,558,cs),
(448,672,o),
(362,755,o),
(252,755,cs),
(142,755,o),
(55,672,o),
(55,558,cs),
(55,444,o),
(143,361,o),
(252,361,cs)
);
},
{
closed = 1;
nodes = (
(183,430,o),
(132,486,o),
(132,558,cs),
(132,631,o),
(183,686,o),
(252,686,cs),
(319,686,o),
(371,631,o),
(371,558,cs),
(371,485,o),
(319,430,o),
(252,430,cs)
);
}
);
width = 503;
},
{
layerId = "9398AC28-6BE1-4A79-9C94-3CBC2F226CE7";
shapes = (
{
closed = 1;
nodes = (
(354,353,o),
(448,438,o),
(448,554,cs),
(448,670,o),
(354,755,o),
(241,755,cs),
(127,755,o),
(33,670,o),
(33,554,cs),
(33,438,o),
(127,353,o),
(241,353,cs)
);
},
{
closed = 1;
nodes = (
(188,457,o),
(153,497,o),
(153,554,cs),
(153,610,o),
(188,651,o),
(241,651,cs),
(293,651,o),
(328,611,o),
(328,554,cs),
(328,498,o),
(294,457,o),
(241,457,cs)
);
}
);
width = 481;
},
{
layerId = "C1DB0BE6-5704-4A8C-8C00-D80E72C16D98";
shapes = (
{
closed = 1;
nodes = (
(360,367,o),
(443,449,o),
(443,561,cs),
(443,672,o),
(361,755,o),
(255,755,cs),
(148,755,o),
(66,672,o),
(66,561,cs),
(66,450,o),
(149,367,o),
(255,367,cs)
);
},
{
closed = 1;
nodes = (
(175,409,o),
(112,476,o),
(112,561,cs),
(112,647,o),
(175,713,o),
(255,713,cs),
(334,713,o),
(397,647,o),
(397,561,cs),
(397,475,o),
(333,409,o),
(255,409,cs)
);
}
);
width = 509;
}
);
metricLeft = "=o";
metricRight = "=o";
unicode = 186;
},
{
glyphname = Delta;
lastChange = "2023-01-30 07:37:07 +0000";
layers = (
{
layerId = "30C2FD74-1A74-41AC-9C29-B288AE1DBDD7";
shapes = (
{
closed = 1;
nodes = (
(587,0,l),
(587,75,l),
(342,745,l),
(256,745,l),
(11,75,l),
(11,0,l)
);
},
{
closed = 1;
nodes = (
(311,685,l),
(287,685,l),
(515,41,l),
(539,75,l),
(59,75,l),
(83,41,l)
);
}
);
width = 598;
},
{
layerId = "9398AC28-6BE1-4A79-9C94-3CBC2F226CE7";
shapes = (
{
closed = 1;
nodes = (
(629,0,l),
(629,135,l),
(423,745,l),
(217,745,l),
(11,135,l),
(11,0,l)
);
},
{
closed = 1;
nodes = (
(341,638,l),
(299,638,l),
(483,71,l),
(529,135,l),
(110,135,l),
(156,71,l)
);
}
);
width = 640;
},
{
layerId = "C1DB0BE6-5704-4A8C-8C00-D80E72C16D98";
shapes = (
{
closed = 1;
nodes = (
(588,0,l),
(588,45,l),
(329,745,l),
(281,745,l),
(22,45,l),
(22,0,l)
);
},
{
closed = 1;
nodes = (
(317,705,l),
(293,705,l),
(546,11,l),
(570,45,l),
(40,45,l),
(64,11,l)
);
}
);
width = 610;
}
);
metricLeft = "=A";
metricRight = "=A";
unicode = 916;
},
{
glyphname = Omega;
lastChange = "2023-01-30 07:37:07 +0000";
layers = (
{
layerId = "30C2FD74-1A74-41AC-9C29-B288AE1DBDD7";
shapes = (
{
closed = 1;
nodes = (
(358,0,l),
(358,75,l),
(230,111,o),
(146,230,o),
(146,373,cs),
(146,542,o),
(266,682,o),
(439,682,cs),
(612,682,o),
(732,542,o),
(732,373,cs),
(732,230,o),
(648,111,o),
(520,75,c),
(520,0,l),
(812,0,l),
(812,75,l),
(631,75,l),
(648,62,l),
(747,125,o),
(812,236,o),
(812,373,cs),
(812,597,o),
(646,757,o),
(439,757,cs),
(232,757,o),
(66,597,o),
(66,373,cs),
(66,236,o),
(131,125,o),
(230,62,c),
(247,75,l),
(66,75,l),
(66,0,l)
);
}
);
width = 878;
},
{
layerId = "9398AC28-6BE1-4A79-9C94-3CBC2F226CE7";
shapes = (
{
closed = 1;
nodes = (
(363,0,l),
(363,135,l),
(266,165,o),
(199,257,o),
(199,373,cs),
(199,517,o),
(303,617,o),
(439,617,cs),
(575,617,o),
(679,517,o),
(679,373,cs),
(679,257,o),
(612,165,o),
(515,135,c),
(515,0,l),
(834,0,l),
(834,135,l),
(663,135,l),
(695,106,l),
(781,167,o),
(834,267,o),
(834,373,cs),
(834,592,o),
(665,757,o),
(439,757,cs),
(213,757,o),
(44,592,o),
(44,373,cs),
(44,267,o),
(97,167,o),
(183,106,c),
(215,135,l),
(44,135,l),
(44,0,l)
);
}
);
width = 878;
},
{
layerId = "C1DB0BE6-5704-4A8C-8C00-D80E72C16D98";
shapes = (
{
closed = 1;
nodes = (
(327,0,l),
(327,45,l),
(204,99,o),
(127,226,o),
(127,373,cs),
(127,552,o),
(254,709,o),
(442,709,cs),
(630,709,o),
(757,552,o),
(757,373,cs),
(757,226,o),
(680,99,o),
(557,45,c),
(557,0,l),
(807,0,l),
(807,45,l),
(596,45,l),
(612,33,l),
(728,97,o),
(807,219,o),
(807,373,cs),
(807,599,o),
(642,757,o),
(442,757,cs),
(242,757,o),
(77,599,o),
(77,373,cs),
(77,219,o),
(156,97,o),
(272,33,c),
(288,45,l),
(77,45,l),
(77,0,l)
);
}
);
width = 884;
}
);
metricLeft = "=O";
metricRight = "=O";
unicode = 937;
},
{
glyphname = pi;
lastChange = "2023-01-30 07:37:07 +0000";
layers = (
{
layerId = "30C2FD74-1A74-41AC-9C29-B288AE1DBDD7";
shapes = (
{
closed = 1;
nodes = (
(208,0,l),
(208,461,l),
(438,461,l),
(438,0,l),
(513,0,l),
(513,461,l),
(613,461,l),
(613,536,l),
(33,536,l),
(33,461,l),
(133,461,l),
(133,0,l)
);
}
);
width = 646;
},
{
layerId = "9398AC28-6BE1-4A79-9C94-3CBC2F226CE7";
shapes = (
{
closed = 1;
nodes = (
(258,0,l),
(258,416,l),
(438,416,l),
(438,0,l),
(588,0,l),
(588,416,l),
(676,416,l),
(676,546,l),
(18,546,l),
(18,416,l),
(108,416,l),
(108,0,l)
);
}
);
width = 694;
},
{
layerId = "C1DB0BE6-5704-4A8C-8C00-D80E72C16D98";
shapes = (
{
closed = 1;
nodes = (
(188,0,l),
(188,486,l),
(438,486,l),
(438,0,l),
(483,0,l),
(483,486,l),
(583,486,l),
(583,526,l),
(43,526,l),
(43,486,l),
(143,486,l),
(143,0,l)
);
}
);
width = 626;
}
);
metricLeft = "=t";
metricRight = "=|t";
unicode = 960;
},
{
glyphname = zero;
lastChange = "2023-01-30 07:37:07 +0000";
layers = (
{
layerId = "30C2FD74-1A74-41AC-9C29-B288AE1DBDD7";
shapes = (
{
closed = 1;
nodes = (
(543,-12,o),
(660,142,o),
(660,373,cs),
(660,603,o),
(542,757,o),
(366,757,cs),
(190,757,o),
(72,603,o),
(72,373,cs),
(72,143,o),
(191,-12,o),
(367,-12,cs)
);
},
{
closed = 1;
nodes = (
(238,63,o),
(152,188,o),
(152,373,cs),
(152,558,o),
(238,682,o),
(366,682,cs),
(495,682,o),
(581,558,o),
(581,373,cs),
(581,187,o),
(495,63,o),
(367,63,cs)
);
}
);
width = 732;
},
{
layerId = "9398AC28-6BE1-4A79-9C94-3CBC2F226CE7";
shapes = (
{
closed = 1;
nodes = (
(530,-12,o),
(650,143,o),
(650,373,cs),
(650,603,o),
(530,757,o),
(349,757,cs),
(171,757,o),
(50,604,o),
(50,373,cs),
(50,142,o),
(172,-12,o),
(350,-12,cs)
);
},
{
closed = 1;
nodes = (
(258,128,o),
(205,220,o),
(205,373,cs),
(205,527,o),
(257,617,o),
(349,617,cs),
(443,617,o),
(495,526,o),
(495,373,cs),
(495,219,o),
(443,128,o),
(350,128,cs)
);
}
);
width = 700;
},
{
layerId = "C1DB0BE6-5704-4A8C-8C00-D80E72C16D98";
shapes = (
{
closed = 1;
nodes = (
(528,-12,o),
(642,143,o),
(642,373,cs),
(642,603,o),
(527,757,o),
(357,757,cs),
(187,757,o),
(72,602,o),
(72,373,cs),
(72,144,o),
(188,-12,o),
(358,-12,cs)
);
},
{
closed = 1;
nodes = (
(210,36,o),
(122,175,o),
(122,373,cs),
(122,571,o),
(208,709,o),
(357,709,cs),
(506,709,o),
(592,572,o),
(592,373,cs),
(592,174,o),
(506,36,o),
(358,36,cs)
);
}
);
width = 714;
}
);
unicode = 48;
},
{
glyphname = zero.tf;
lastChange = "2023-01-30 07:37:07 +0000";
layers = (
{
layerId = "30C2FD74-1A74-41AC-9C29-B288AE1DBDD7";
shapes = (
{
closed = 1;
nodes = (
(468,-12,o),
(561,126,o),
(561,373,cs),
(561,620,o),
(468,757,o),
(300,757,cs),
(132,757,o),
(39,620,o),
(39,373,cs),
(39,126,o),
(133,-12,o),
(301,-12,cs)
);
},
{
closed = 1;
nodes = (
(184,63,o),
(119,174,o),
(119,373,cs),
(119,572,o),
(184,682,o),
(300,682,cs),
(417,682,o),
(482,572,o),
(482,373,cs),
(482,174,o),
(417,63,o),
(301,63,cs)
);
}
);
width = 600;
},
{
layerId = "9398AC28-6BE1-4A79-9C94-3CBC2F226CE7";
shapes = (
{
closed = 1;
nodes = (
(475,-12,o),
(573,126,o),
(573,373,cs),
(573,620,o),
(475,757,o),
(299,757,cs),
(124,757,o),
(27,620,o),
(27,373,cs),
(27,126,o),
(125,-12,o),
(300,-12,cs)
);
},
{
closed = 1;
nodes = (
(218,128,o),
(179,208,o),
(179,373,cs),
(179,538,o),
(218,617,o),
(299,617,cs),
(381,617,o),
(421,538,o),
(421,373,cs),
(421,208,o),
(382,128,o),
(300,128,cs)
);
}
);
width = 600;
},
{
layerId = "C1DB0BE6-5704-4A8C-8C00-D80E72C16D98";
shapes = (
{
closed = 1;
nodes = (
(465,-12,o),
(556,126,o),
(556,373,cs),
(556,620,o),
(465,757,o),
(301,757,cs),
(136,757,o),
(45,620,o),
(45,373,cs),
(45,126,o),
(136,-12,o),
(301,-12,cs)
);
},
{
closed = 1;
nodes = (
(167,36,o),
(93,156,o),
(93,373,cs),
(93,589,o),
(167,709,o),
(301,709,cs),
(434,709,o),
(508,589,o),
(508,373,cs),
(508,156,o),
(434,36,o),
(301,36,cs)
);
}
);
width = 600;
}
);
},
